<svg width="823" height="574" viewBox="0 0 823 574" fill="none" xmlns="http://www.w3.org/2000/svg">
<g filter="url(#filter0_dddddd_621_228)">
<rect x="117" y="90" width="589" height="341" rx="18.6617" fill="white"/>
</g>
<path d="M225 139L225 431L136 431C125.507 431 117 422.493 117 412L117 139L225 139Z" fill="#E6E6E6"/>
<rect x="136" y="116" width="10" height="10" fill="#6D00C3"/>
<rect x="657" y="116" width="10" height="10" fill="#6D00C3"/>
<rect x="640" y="116" width="10" height="10" fill="#6D00C3"/>
<rect x="153" y="116" width="60" height="10" fill="#6D00C3"/>
<rect x="322" y="116" width="177" height="10" rx="5" fill="#6D00C3"/>
<rect x="136" y="177" width="63" height="5" fill="#B4B4B4"/>
<rect x="283" y="167" width="39" height="8" fill="#E5E5E5"/>
<rect x="283" y="181" width="24" height="8" fill="#E5E5E5"/>
<rect x="290" y="364" width="10" height="8" fill="#E5E5E5"/>
<rect x="324" y="364" width="10" height="8" fill="#E5E5E5"/>
<rect x="358" y="364" width="10" height="8" fill="#E5E5E5"/>
<rect x="392" y="364" width="10" height="8" fill="#E5E5E5"/>
<rect x="426" y="364" width="10" height="8" fill="#E5E5E5"/>
<rect x="460" y="364" width="10" height="8" fill="#E5E5E5"/>
<rect x="494" y="364" width="10" height="8" fill="#E5E5E5"/>
<rect x="340" y="167" width="39" height="8" fill="#E5E5E5"/>
<rect x="340" y="181" width="24" height="8" fill="#E5E5E5"/>
<rect x="397" y="167" width="39" height="8" fill="#E5E5E5"/>
<rect x="397" y="181" width="24" height="8" fill="#E5E5E5"/>
<rect x="454" y="167" width="39" height="8" fill="#E5E5E5"/>
<rect x="454" y="181" width="24" height="8" fill="#E5E5E5"/>
<rect x="136" y="199" width="63" height="5" fill="#B4B4B4"/>
<rect x="136" y="221" width="53" height="5" fill="#B4B4B4"/>
<rect x="283" y="218" width="228" height="2" fill="#E5E5E5"/>
<rect x="283" y="241" width="228" height="2" fill="#E5E5E5"/>
<rect x="283" y="264" width="228" height="2" fill="#E5E5E5"/>
<rect x="283" y="287" width="228" height="2" fill="#E5E5E5"/>
<rect x="283" y="310" width="228" height="2" fill="#E5E5E5"/>
<rect x="283" y="333" width="228" height="2" fill="#E5E5E5"/>
<rect x="283" y="356" width="228" height="2" fill="#E5E5E5"/>
<rect x="136" y="242" width="44" height="5" fill="#B4B4B4"/>
<rect x="136" y="263" width="44" height="5" fill="#B4B4B4"/>
<rect x="136" y="285" width="44" height="5" fill="#B4B4B4"/>
<mask id="path-36-inside-1_621_228" fill="white">
<rect x="262" y="151" width="282" height="254" rx="2"/>
</mask>
<rect x="262" y="151" width="282" height="254" rx="2" stroke="#E5E5E5" stroke-width="8" mask="url(#path-36-inside-1_621_228)"/>
<path d="M540 151H665C666.105 151 667 151.895 667 153V403C667 404.105 666.105 405 665 405H540V151Z" fill="#6D00C3"/>
<path d="M283 264L339.918 260.951" stroke="#6D00C3" stroke-width="2"/>
<line x1="339.193" y1="261.019" x2="395.124" y2="272.005" stroke="#6D00C3" stroke-width="2"/>
<path d="M395 272L451.426 248.825" stroke="#6D00C3" stroke-width="2"/>
<path d="M451 249L508.582 242.05" stroke="#6D00C3" stroke-width="2"/>
<line x1="284.065" y1="267.002" x2="339.947" y2="270.637" stroke="#6D00C3" stroke-width="2" stroke-dasharray="4 4"/>
<path d="M340 270L395.192 287.827" stroke="#6D00C3" stroke-width="2" stroke-dasharray="4 4"/>
<line x1="393.732" y1="288.037" x2="452.502" y2="271.693" stroke="#6D00C3" stroke-width="2" stroke-dasharray="4 4"/>
<path d="M452 272L511 271.903" stroke="#6D00C3" stroke-width="2" stroke-dasharray="4 4"/>
<rect x="554" y="167" width="35" height="11" fill="white"/>
<rect x="556" y="223" width="16" height="2" transform="rotate(90 556 223)" fill="white"/>
<rect x="559" y="220" width="19" height="2" transform="rotate(90 559 220)" fill="white"/>
<rect x="562" y="217" width="22" height="2" transform="rotate(90 562 217)" fill="white"/>
<rect x="565" y="223" width="16" height="2" transform="rotate(90 565 223)" fill="white"/>
<rect x="568" y="220" width="19" height="2" transform="rotate(90 568 220)" fill="white"/>
<rect x="571" y="217" width="22" height="2" transform="rotate(90 571 217)" fill="white"/>
<rect width="16" height="2" transform="matrix(4.37114e-08 1 1 -4.37114e-08 578 223)" fill="white"/>
<rect width="19" height="2" transform="matrix(4.37114e-08 1 1 -4.37114e-08 575 220)" fill="white"/>
<rect width="22" height="2" transform="matrix(4.37114e-08 1 1 -4.37114e-08 572 217)" fill="white"/>
<rect width="9" height="2" transform="matrix(7.39731e-08 1 1 -2.58295e-08 587 230)" fill="white"/>
<rect width="11" height="2" transform="matrix(7.39731e-08 1 1 -2.58295e-08 584 228)" fill="white"/>
<rect width="13" height="2" transform="matrix(7.39731e-08 1 1 -2.58295e-08 581 226)" fill="white"/>
<rect x="592" y="229" width="10" height="2" transform="rotate(90 592 229)" fill="white"/>
<rect x="595" y="227" width="12" height="2" transform="rotate(90 595 227)" fill="white"/>
<rect x="598" y="225" width="14" height="2" transform="rotate(90 598 225)" fill="white"/>
<rect x="601" y="223" width="16" height="2" transform="rotate(90 601 223)" fill="white"/>
<rect x="604" y="220" width="19" height="2" transform="rotate(90 604 220)" fill="white"/>
<rect x="607" y="217" width="22" height="2" transform="rotate(90 607 217)" fill="white"/>
<rect x="610" y="223" width="16" height="2" transform="rotate(90 610 223)" fill="white"/>
<rect x="613" y="220" width="19" height="2" transform="rotate(90 613 220)" fill="white"/>
<rect x="616" y="217" width="22" height="2" transform="rotate(90 616 217)" fill="white"/>
<rect width="16" height="2" transform="matrix(4.37114e-08 1 1 -4.37114e-08 623 223)" fill="white"/>
<rect width="19" height="2" transform="matrix(4.37114e-08 1 1 -4.37114e-08 620 220)" fill="white"/>
<rect width="22" height="2" transform="matrix(4.37114e-08 1 1 -4.37114e-08 617 217)" fill="white"/>
<rect width="9" height="2" transform="matrix(7.39731e-08 1 1 -2.58295e-08 632 230)" fill="white"/>
<rect width="11" height="2" transform="matrix(7.39731e-08 1 1 -2.58295e-08 629 228)" fill="white"/>
<rect width="13" height="2" transform="matrix(7.39731e-08 1 1 -2.58295e-08 626 226)" fill="white"/>
<rect x="637" y="229" width="10" height="2" transform="rotate(90 637 229)" fill="white"/>
<rect x="640" y="227" width="12" height="2" transform="rotate(90 640 227)" fill="white"/>
<rect x="643" y="225" width="14" height="2" transform="rotate(90 643 225)" fill="white"/>
<rect x="554" y="277" width="53" height="5" fill="white"/>
<rect x="638" y="277" width="5" height="5" fill="white"/>
<rect x="638" y="294" width="5" height="5" fill="white"/>
<rect x="638" y="311" width="5" height="5" fill="white"/>
<rect x="638" y="328" width="5" height="5" fill="white"/>
<rect x="554" y="294" width="53" height="5" fill="white"/>
<rect x="554" y="311" width="48" height="5" fill="white"/>
<rect x="554" y="328" width="53" height="5" fill="white"/>
<defs>
<filter id="filter0_dddddd_621_228" x="0.788551" y="0.0845718" width="821.423" height="573.423" filterUnits="userSpaceOnUse" color-interpolation-filters="sRGB">
<feFlood flood-opacity="0" result="BackgroundImageFix"/>
<feColorMatrix in="SourceAlpha" type="matrix" values="0 0 0 0 0 0 0 0 0 0 0 0 0 0 0 0 0 0 127 0" result="hardAlpha"/>
<feOffset dy="0.727678"/>
<feGaussianBlur stdDeviation="1.60793"/>
<feColorMatrix type="matrix" values="0 0 0 0 0 0 0 0 0 0 0 0 0 0 0 0 0 0 0.0449833 0"/>
<feBlend mode="normal" in2="BackgroundImageFix" result="effect1_dropShadow_621_228"/>
<feColorMatrix in="SourceAlpha" type="matrix" values="0 0 0 0 0 0 0 0 0 0 0 0 0 0 0 0 0 0 127 0" result="hardAlpha"/>
<feOffset dy="1.74871"/>
<feGaussianBlur stdDeviation="3.86409"/>
<feColorMatrix type="matrix" values="0 0 0 0 0 0 0 0 0 0 0 0 0 0 0 0 0 0 0.0646228 0"/>
<feBlend mode="normal" in2="effect1_dropShadow_621_228" result="effect2_dropShadow_621_228"/>
<feColorMatrix in="SourceAlpha" type="matrix" values="0 0 0 0 0 0 0 0 0 0 0 0 0 0 0 0 0 0 127 0" result="hardAlpha"/>
<feOffset dy="3.29267"/>
<feGaussianBlur stdDeviation="7.27574"/>
<feColorMatrix type="matrix" values="0 0 0 0 0 0 0 0 0 0 0 0 0 0 0 0 0 0 0.08 0"/>
<feBlend mode="normal" in2="effect2_dropShadow_621_228" result="effect3_dropShadow_621_228"/>
<feColorMatrix in="SourceAlpha" type="matrix" values="0 0 0 0 0 0 0 0 0 0 0 0 0 0 0 0 0 0 127 0" result="hardAlpha"/>
<feOffset dy="5.87356"/>
<feGaussianBlur stdDeviation="12.9787"/>
<feColorMatrix type="matrix" values="0 0 0 0 0 0 0 0 0 0 0 0 0 0 0 0 0 0 0.0953772 0"/>
<feBlend mode="normal" in2="effect3_dropShadow_621_228" result="effect4_dropShadow_621_228"/>
<feColorMatrix in="SourceAlpha" type="matrix" values="0 0 0 0 0 0 0 0 0 0 0 0 0 0 0 0 0 0 127 0" result="hardAlpha"/>
<feOffset dy="10.9858"/>
<feGaussianBlur stdDeviation="24.2752"/>
<feColorMatrix type="matrix" values="0 0 0 0 0 0 0 0 0 0 0 0 0 0 0 0 0 0 0.115017 0"/>
<feBlend mode="normal" in2="effect4_dropShadow_621_228" result="effect5_dropShadow_621_228"/>
<feColorMatrix in="SourceAlpha" type="matrix" values="0 0 0 0 0 0 0 0 0 0 0 0 0 0 0 0 0 0 127 0" result="hardAlpha"/>
<feOffset dy="26.296"/>
<feGaussianBlur stdDeviation="58.1057"/>
<feColorMatrix type="matrix" values="0 0 0 0 0 0 0 0 0 0 0 0 0 0 0 0 0 0 0.16 0"/>
<feBlend mode="normal" in2="effect5_dropShadow_621_228" result="effect6_dropShadow_621_228"/>
<feBlend mode="normal" in="SourceGraphic" in2="effect6_dropShadow_621_228" result="shape"/>
</filter>
</defs>
</svg>
