<svg width="589" height="341" viewBox="0 0 589 341" fill="none" xmlns="http://www.w3.org/2000/svg">
<rect width="589" height="341" rx="18.6617" fill="white"/>
<path d="M108 49L108 341L19 341C8.50659 341 2.8669e-06 332.493 3.32558e-06 322L1.52588e-05 49L108 49Z" fill="#E6E6E6"/>
<rect x="19" y="26" width="10" height="10" fill="#6D00C3"/>
<rect x="540" y="26" width="10" height="10" fill="#6D00C3"/>
<rect x="523" y="26" width="10" height="10" fill="#6D00C3"/>
<rect x="36" y="26" width="60" height="10" fill="#6D00C3"/>
<rect x="205" y="26" width="177" height="10" rx="5" fill="#6D00C3"/>
<rect x="19" y="87" width="63" height="5" fill="#B4B4B4"/>
<rect x="166" y="77" width="39" height="8" fill="#E5E5E5"/>
<rect x="166" y="91" width="24" height="8" fill="#E5E5E5"/>
<rect x="173" y="274" width="10" height="8" fill="#E5E5E5"/>
<rect x="207" y="274" width="10" height="8" fill="#E5E5E5"/>
<rect x="241" y="274" width="10" height="8" fill="#E5E5E5"/>
<rect x="275" y="274" width="10" height="8" fill="#E5E5E5"/>
<rect x="309" y="274" width="10" height="8" fill="#E5E5E5"/>
<rect x="343" y="274" width="10" height="8" fill="#E5E5E5"/>
<rect x="377" y="274" width="10" height="8" fill="#E5E5E5"/>
<rect x="223" y="77" width="39" height="8" fill="#E5E5E5"/>
<rect x="223" y="91" width="24" height="8" fill="#E5E5E5"/>
<rect x="280" y="77" width="39" height="8" fill="#E5E5E5"/>
<rect x="280" y="91" width="24" height="8" fill="#E5E5E5"/>
<rect x="337" y="77" width="39" height="8" fill="#E5E5E5"/>
<rect x="337" y="91" width="24" height="8" fill="#E5E5E5"/>
<rect x="19" y="109" width="63" height="5" fill="#B4B4B4"/>
<rect x="19" y="131" width="53" height="5" fill="#B4B4B4"/>
<rect x="166" y="128" width="228" height="2" fill="#E5E5E5"/>
<rect x="166" y="151" width="228" height="2" fill="#E5E5E5"/>
<rect x="166" y="174" width="228" height="2" fill="#E5E5E5"/>
<rect x="166" y="197" width="228" height="2" fill="#E5E5E5"/>
<rect x="166" y="220" width="228" height="2" fill="#E5E5E5"/>
<rect x="166" y="243" width="228" height="2" fill="#E5E5E5"/>
<rect x="166" y="266" width="228" height="2" fill="#E5E5E5"/>
<rect x="19" y="152" width="44" height="5" fill="#B4B4B4"/>
<rect x="19" y="173" width="44" height="5" fill="#B4B4B4"/>
<rect x="19" y="195" width="44" height="5" fill="#B4B4B4"/>
<mask id="path-36-inside-1_621_228" fill="white">
<rect x="145" y="61" width="282" height="254" rx="2"/>
</mask>
<rect x="145" y="61" width="282" height="254" rx="2" stroke="#E5E5E5" stroke-width="8" mask="url(#path-36-inside-1_621_228)"/>
<path d="M423 61H548C549.105 61 550 61.8954 550 63V313C550 314.105 549.105 315 548 315H423V61Z" fill="#6D00C3"/>
<path d="M166 174L222.918 170.951" stroke="#6D00C3" stroke-width="2"/>
<line x1="222.193" y1="171.019" x2="278.124" y2="182.005" stroke="#6D00C3" stroke-width="2"/>
<path d="M278 182L334.426 158.825" stroke="#6D00C3" stroke-width="2"/>
<path d="M334 159L391.582 152.05" stroke="#6D00C3" stroke-width="2"/>
<line x1="167.065" y1="177.002" x2="222.947" y2="180.637" stroke="#6D00C3" stroke-width="2" stroke-dasharray="4 4"/>
<path d="M223 180L278.192 197.827" stroke="#6D00C3" stroke-width="2" stroke-dasharray="4 4"/>
<line x1="276.732" y1="198.037" x2="335.502" y2="181.693" stroke="#6D00C3" stroke-width="2" stroke-dasharray="4 4"/>
<path d="M335 182L394 181.903" stroke="#6D00C3" stroke-width="2" stroke-dasharray="4 4"/>
<rect x="437" y="77" width="35" height="11" fill="white"/>
<rect x="439" y="133" width="16" height="2" transform="rotate(90 439 133)" fill="white"/>
<rect x="442" y="130" width="19" height="2" transform="rotate(90 442 130)" fill="white"/>
<rect x="445" y="127" width="22" height="2" transform="rotate(90 445 127)" fill="white"/>
<rect x="448" y="133" width="16" height="2" transform="rotate(90 448 133)" fill="white"/>
<rect x="451" y="130" width="19" height="2" transform="rotate(90 451 130)" fill="white"/>
<rect x="454" y="127" width="22" height="2" transform="rotate(90 454 127)" fill="white"/>
<rect width="16" height="2" transform="matrix(4.37114e-08 1 1 -4.37114e-08 461 133)" fill="white"/>
<rect width="19" height="2" transform="matrix(4.37114e-08 1 1 -4.37114e-08 458 130)" fill="white"/>
<rect width="22" height="2" transform="matrix(4.37114e-08 1 1 -4.37114e-08 455 127)" fill="white"/>
<rect width="9" height="2" transform="matrix(7.39731e-08 1 1 -2.58295e-08 470 140)" fill="white"/>
<rect width="11" height="2" transform="matrix(7.39731e-08 1 1 -2.58295e-08 467 138)" fill="white"/>
<rect width="13" height="2" transform="matrix(7.39731e-08 1 1 -2.58295e-08 464 136)" fill="white"/>
<rect x="475" y="139" width="10" height="2" transform="rotate(90 475 139)" fill="white"/>
<rect x="478" y="137" width="12" height="2" transform="rotate(90 478 137)" fill="white"/>
<rect x="481" y="135" width="14" height="2" transform="rotate(90 481 135)" fill="white"/>
<rect x="484" y="133" width="16" height="2" transform="rotate(90 484 133)" fill="white"/>
<rect x="487" y="130" width="19" height="2" transform="rotate(90 487 130)" fill="white"/>
<rect x="490" y="127" width="22" height="2" transform="rotate(90 490 127)" fill="white"/>
<rect x="493" y="133" width="16" height="2" transform="rotate(90 493 133)" fill="white"/>
<rect x="496" y="130" width="19" height="2" transform="rotate(90 496 130)" fill="white"/>
<rect x="499" y="127" width="22" height="2" transform="rotate(90 499 127)" fill="white"/>
<rect width="16" height="2" transform="matrix(4.37114e-08 1 1 -4.37114e-08 506 133)" fill="white"/>
<rect width="19" height="2" transform="matrix(4.37114e-08 1 1 -4.37114e-08 503 130)" fill="white"/>
<rect width="22" height="2" transform="matrix(4.37114e-08 1 1 -4.37114e-08 500 127)" fill="white"/>
<rect width="9" height="2" transform="matrix(7.39731e-08 1 1 -2.58295e-08 515 140)" fill="white"/>
<rect width="11" height="2" transform="matrix(7.39731e-08 1 1 -2.58295e-08 512 138)" fill="white"/>
<rect width="13" height="2" transform="matrix(7.39731e-08 1 1 -2.58295e-08 509 136)" fill="white"/>
<rect x="520" y="139" width="10" height="2" transform="rotate(90 520 139)" fill="white"/>
<rect x="523" y="137" width="12" height="2" transform="rotate(90 523 137)" fill="white"/>
<rect x="526" y="135" width="14" height="2" transform="rotate(90 526 135)" fill="white"/>
<rect x="437" y="187" width="53" height="5" fill="white"/>
<rect x="521" y="187" width="5" height="5" fill="white"/>
<rect x="521" y="204" width="5" height="5" fill="white"/>
<rect x="521" y="221" width="5" height="5" fill="white"/>
<rect x="521" y="238" width="5" height="5" fill="white"/>
<rect x="437" y="204" width="53" height="5" fill="white"/>
<rect x="437" y="221" width="48" height="5" fill="white"/>
<rect x="437" y="238" width="53" height="5" fill="white"/>
</svg>
