<svg width="43" height="44" viewBox="0 0 43 44" fill="none" xmlns="http://www.w3.org/2000/svg">
<path d="M28.9568 7.24512C28.6823 6.91577 28.2818 6.71716 27.8534 6.69784C27.4251 6.67852 27.0084 6.8402 26.7052 7.14339C26.4019 7.44658 26.2402 7.86328 26.2596 8.29174C26.2789 8.72006 26.4776 9.12053 26.8068 9.39516L37.7761 20.3774H1.51994C0.993078 20.4052 0.517713 20.7025 0.262006 21.1642C0.0064145 21.6256 0.0064145 22.1862 0.262006 22.6479C0.517738 23.1094 0.993078 23.4067 1.51994 23.4347H37.7761L26.7896 34.404C26.513 34.6936 26.3588 35.0786 26.3588 35.479C26.3588 35.8794 26.513 36.2644 26.7896 36.554C27.0743 36.8396 27.4612 37.0003 27.8646 37.0003C28.268 37.0003 28.6548 36.8396 28.9396 36.554L42.5276 22.966C42.8197 22.6848 42.9849 22.2966 42.9849 21.891C42.9849 21.4853 42.8197 21.0973 42.5276 20.816L28.9568 7.24512Z" fill="white"/>
</svg>
