<svg width="222" height="72" viewBox="0 0 222 72" fill="none" xmlns="http://www.w3.org/2000/svg">
<path d="M87.403 49.8462C85.8339 49.8462 84.3347 49.5673 82.8702 49.0443C81.4407 48.5213 80.2552 47.7542 79.3835 46.8128C79.1395 46.499 79 46.22 79 45.9411C79 45.5227 79.2092 45.1391 79.5927 44.7905C79.9065 44.5464 80.2204 44.4418 80.5342 44.4418C80.9526 44.4418 81.3361 44.6161 81.6499 44.9648C82.2426 45.6622 83.0446 46.22 84.0557 46.6036C85.0669 46.9871 86.1477 47.1614 87.3681 47.1614C89.1463 47.1614 90.4713 46.8476 91.3429 46.2549C92.2146 45.6622 92.7028 44.8602 92.7028 43.8491C92.7028 42.9425 92.2495 42.1754 91.3778 41.5827C90.5061 40.99 89.0766 40.5367 87.1589 40.2229C84.6833 39.8045 82.8354 39.1071 81.5802 38.096C80.3598 37.0849 79.7322 35.8994 79.7322 34.4698C79.7322 32.6219 80.4644 31.1923 81.894 30.1812C83.3235 29.17 85.1017 28.647 87.2635 28.647C88.9371 28.647 90.4015 28.926 91.6219 29.4838C92.8771 30.0417 93.8534 30.8437 94.6204 31.8548C94.8296 32.1686 94.9342 32.4824 94.9342 32.7265C94.9342 33.1449 94.725 33.4935 94.3415 33.7376C94.1672 33.8771 93.9231 33.912 93.6093 33.912C93.0863 33.912 92.633 33.7376 92.2843 33.3541C91.0291 31.9245 89.3555 31.2272 87.1938 31.2272C85.7991 31.2272 84.6833 31.5061 83.8465 32.0989C83.0097 32.6567 82.5913 33.3889 82.5913 34.2606C82.5913 35.1672 82.9748 35.8994 83.7768 36.4573C84.5787 37.0151 85.9385 37.4335 87.9608 37.7822C90.6805 38.2355 92.5982 38.9677 93.7836 40.0137C94.9342 41.0248 95.527 42.3149 95.527 43.8491C95.527 44.9997 95.1783 46.0457 94.481 46.9522C93.7836 47.8588 92.8074 48.5561 91.587 49.0791C90.4015 49.6021 89.0068 49.8462 87.403 49.8462ZM108.951 28.6819C110.938 28.6819 112.716 29.1352 114.32 30.0766C115.924 31.018 117.214 32.2732 118.121 33.912C119.062 35.5158 119.516 37.3289 119.516 39.3163V48.2423C119.516 48.6607 119.376 48.9745 119.097 49.2535C118.818 49.5324 118.47 49.6719 118.016 49.6719C117.598 49.6719 117.214 49.5324 116.935 49.2883C116.656 49.0094 116.517 48.6607 116.517 48.2423V45.976C115.645 47.1963 114.495 48.1377 113.135 48.8351C111.775 49.5324 110.276 49.8811 108.602 49.8811C106.684 49.8811 104.941 49.4278 103.372 48.4864C101.803 47.545 100.583 46.2898 99.6762 44.6859C98.7696 43.082 98.3164 41.2689 98.3164 39.3163C98.3164 37.3289 98.7696 35.5507 99.711 33.912C100.652 32.2732 101.908 31.018 103.512 30.0766C105.185 29.1352 106.998 28.6819 108.951 28.6819ZM108.951 47.1963C110.38 47.1963 111.705 46.8476 112.856 46.1852C114.007 45.4878 114.948 44.5464 115.61 43.3609C116.273 42.1406 116.622 40.8156 116.622 39.3163C116.622 37.8171 116.273 36.4572 115.61 35.2718C114.948 34.0514 114.007 33.11 112.856 32.4127C111.705 31.7153 110.38 31.3667 108.951 31.3667C107.521 31.3667 106.196 31.7153 105.011 32.4127C103.825 33.11 102.919 34.0514 102.221 35.2718C101.559 36.4921 101.21 37.8171 101.21 39.3163C101.21 40.8156 101.559 42.1754 102.221 43.3609C102.884 44.5813 103.825 45.5227 105.011 46.1852C106.196 46.8476 107.521 47.1963 108.951 47.1963ZM129.732 49.637C128.197 49.637 126.942 49.0094 125.966 47.789C124.99 46.5687 124.502 44.9997 124.502 43.0471V21.4296C124.502 21.0111 124.641 20.6625 124.92 20.3835C125.199 20.1046 125.548 20 125.931 20C126.349 20 126.698 20.1395 126.977 20.3835C127.256 20.6625 127.361 21.0111 127.361 21.4296V43.082C127.361 44.1629 127.57 45.0694 128.023 45.7319C128.476 46.4292 129.034 46.743 129.732 46.743H130.673C131.057 46.743 131.37 46.8825 131.58 47.1266C131.824 47.4055 131.928 47.7542 131.928 48.1726C131.928 48.591 131.754 48.9397 131.44 49.2186C131.126 49.4975 130.708 49.6021 130.22 49.6021H129.732V49.637ZM145.282 46.743C145.701 46.743 146.014 46.8825 146.259 47.1614C146.503 47.4404 146.642 47.789 146.642 48.2423C146.642 48.6607 146.503 48.9745 146.189 49.2535C145.875 49.5324 145.491 49.6719 145.038 49.6719H144.236C142.876 49.6719 141.691 49.3581 140.61 48.6956C139.529 48.068 138.727 47.1614 138.135 46.0806C137.542 44.9648 137.228 43.7445 137.228 42.3498V32.1686H134.752C134.334 32.1686 134.02 32.064 133.776 31.8199C133.532 31.5759 133.427 31.2969 133.427 30.9134C133.427 30.5299 133.532 30.216 133.776 29.972C134.02 29.7279 134.334 29.6233 134.752 29.6233H137.228V23.7308C137.228 23.3124 137.367 22.9288 137.612 22.6848C137.89 22.4058 138.239 22.2664 138.658 22.2664C139.076 22.2664 139.425 22.4058 139.738 22.6848C140.017 22.9637 140.157 23.3124 140.157 23.7308V29.6233H144.48C144.899 29.6233 145.213 29.7279 145.457 29.972C145.701 30.216 145.805 30.5299 145.805 30.9134C145.805 31.2621 145.701 31.5759 145.457 31.8199C145.213 32.064 144.899 32.1686 144.48 32.1686H140.192V42.3149C140.192 43.605 140.575 44.651 141.342 45.4878C142.109 46.3246 143.086 46.7082 144.271 46.7082H145.282V46.743ZM161.6 28.6819C163.518 28.6819 165.261 29.1352 166.83 30.0766C168.399 31.018 169.619 32.2732 170.526 33.8771C171.433 35.481 171.886 37.2941 171.886 39.2466C171.886 41.234 171.433 43.0123 170.491 44.651C169.55 46.2898 168.295 47.545 166.691 48.4864C165.087 49.4278 163.274 49.8811 161.321 49.8811C159.334 49.8811 157.555 49.4278 155.952 48.4864C154.348 47.545 153.092 46.2898 152.151 44.651C151.21 43.0471 150.756 41.234 150.756 39.2466V30.3206C150.756 30.1812 150.756 30.0417 150.791 29.972V21.4644C150.791 21.046 150.931 20.6625 151.175 20.4184C151.454 20.1395 151.802 20 152.221 20C152.639 20 153.023 20.1395 153.302 20.4184C153.581 20.6973 153.72 21.046 153.72 21.4644V32.587C154.592 31.3667 155.742 30.4252 157.102 29.7279C158.462 29.0306 159.961 28.6819 161.6 28.6819ZM161.321 47.1963C162.751 47.1963 164.076 46.8476 165.261 46.1503C166.447 45.4529 167.353 44.5115 168.05 43.2912C168.713 42.1057 169.062 40.7459 169.062 39.2466C169.062 37.7473 168.713 36.3875 168.05 35.202C167.388 33.9817 166.447 33.0403 165.261 32.3778C164.076 31.6805 162.786 31.3667 161.321 31.3667C159.334 31.3667 157.625 31.9943 156.196 33.2495C154.801 34.5047 153.964 36.1434 153.72 38.1309C153.72 38.2006 153.72 38.2703 153.685 38.3052C153.65 38.5144 153.65 38.8282 153.65 39.2466C153.65 40.7459 153.999 42.1057 154.662 43.2912C155.324 44.5115 156.265 45.4529 157.416 46.1503C158.567 46.8476 159.857 47.1963 161.321 47.1963ZM185.623 49.8462C183.636 49.8462 181.823 49.3929 180.219 48.4864C178.615 47.5798 177.36 46.3246 176.453 44.7207C175.547 43.1169 175.094 41.3038 175.094 39.3163C175.094 37.3289 175.547 35.5158 176.453 33.8771C177.36 32.2383 178.615 30.9831 180.219 30.0766C181.823 29.17 183.636 28.7168 185.623 28.7168C187.611 28.7168 189.424 29.17 191.028 30.0766C192.632 30.9831 193.887 32.2383 194.793 33.8771C195.735 35.5158 196.188 37.2941 196.188 39.3163C196.188 41.3038 195.735 43.1169 194.828 44.7207C193.922 46.3246 192.667 47.5798 191.063 48.4864C189.424 49.3929 187.611 49.8462 185.623 49.8462ZM185.623 47.1963C187.088 47.1963 188.413 46.8476 189.563 46.1852C190.714 45.4878 191.655 44.5464 192.283 43.3609C192.946 42.1406 193.259 40.8156 193.259 39.3163C193.259 37.7822 192.946 36.4224 192.283 35.2369C191.621 34.0166 190.714 33.0751 189.563 32.4127C188.413 31.7153 187.088 31.4015 185.623 31.4015C184.194 31.4015 182.869 31.7502 181.683 32.4127C180.498 33.11 179.591 34.0514 178.894 35.2369C178.232 36.4224 177.883 37.8171 177.883 39.3163C177.883 40.8156 178.232 42.1754 178.894 43.3609C179.557 44.5813 180.498 45.5227 181.683 46.1852C182.869 46.8476 184.159 47.1963 185.623 47.1963ZM215.365 47.3706C215.644 47.7193 215.783 48.068 215.783 48.3818C215.783 48.7304 215.644 49.0443 215.4 49.2883C215.121 49.5324 214.842 49.637 214.493 49.637C214.18 49.637 213.936 49.6021 213.726 49.4975C213.517 49.3929 213.343 49.2186 213.168 48.9745L206.927 41.0248L200.477 49.1837C200.233 49.4975 199.919 49.637 199.466 49.637C199.047 49.637 198.733 49.4975 198.489 49.2535C198.245 49.0094 198.141 48.6956 198.141 48.3469C198.141 47.9285 198.28 47.6147 198.524 47.3358L205.114 39.142L198.838 31.2272C198.594 30.9483 198.455 30.5996 198.455 30.216C198.455 29.8325 198.559 29.5187 198.803 29.2746C199.047 29.0306 199.361 28.8911 199.779 28.8911C200.198 28.8911 200.581 29.0306 200.895 29.3444L206.997 37.2243L213.029 29.5884C213.378 29.1352 213.796 28.8911 214.284 28.8911C214.703 28.8911 215.016 29.0306 215.26 29.2746C215.505 29.5187 215.609 29.8325 215.609 30.1812C215.609 30.5647 215.47 30.9134 215.191 31.2969L208.88 39.142L215.365 47.3706Z" fill="#201A9E"/>
<path d="M218.781 28.9609V29.2747H218.154V30.8786H217.77V29.2747H217.143V28.9609H218.781ZM220.838 30.8786L220.769 29.7629C220.769 29.6234 220.769 29.4142 220.769 29.2399H220.734C220.699 29.4142 220.629 29.6234 220.56 29.7977L220.211 30.8786H219.827L219.479 29.7977C219.444 29.6583 219.374 29.4142 219.339 29.2399H219.304C219.304 29.4142 219.304 29.5885 219.304 29.7629L219.235 30.8786H218.851L218.991 28.9609H219.548L219.897 29.9023C219.932 30.0418 219.967 30.1813 220.037 30.3905C220.071 30.2162 220.141 30.0418 220.176 29.9023L220.525 28.9609H221.083L221.222 30.8786H220.838Z" fill="white"/>
<circle cx="36" cy="36" r="36" fill="#002590"/>
<path d="M27.3735 48.6944L24.2271 43.2631L20.3656 36.6169L17.4336 31.5073C17.2191 31.1857 16.8616 30.9355 16.4682 30.9355C16.0392 30.9355 15.6816 31.1499 15.5029 31.5073L13.3576 35.1877C13.143 35.5807 13 36.0452 13 36.5455C13 37.0457 13.143 37.5102 13.3576 37.9033L16.4325 43.2274L20.3298 49.945L20.3656 50.0164L23.4762 55.3762C23.7265 55.805 24.0841 56.1623 24.4774 56.4125L28.3747 49.6948C27.9456 49.4447 27.6238 49.0874 27.3735 48.6944Z" fill="white"/>
<path d="M35.9554 36.5457L32.0581 29.8281L28.1608 23.0747L24.478 16.6787C24.0489 16.9288 23.7271 17.2504 23.4768 17.6435L20.6879 22.4673C20.5807 22.646 20.5449 22.8246 20.5449 23.039C20.5449 23.2177 20.5807 23.4321 20.6879 23.575L24.2635 29.7924L28.1608 36.5457L31.2715 41.9055C31.5217 42.3343 31.8435 42.6559 32.2726 42.906L34.7039 38.7254L34.99 38.2609L35.9554 36.5457Z" fill="white"/>
<path d="M59.2661 36.26C59.2661 35.7955 59.1231 35.331 58.9086 34.938V34.9022L56.1197 30.0784C55.9409 29.7568 55.5476 29.5067 55.1543 29.5067H48.0033H40.8523C40.4947 29.5067 40.1729 29.328 39.9584 29.0779L39.8511 28.935L37.3125 24.5757C37.2052 24.397 37.1337 24.1826 37.1337 23.9682C37.1337 23.2893 37.7416 22.7533 38.4209 22.7533H44.0702H49.7553C50.4346 22.7533 50.971 22.2174 50.971 21.5385C50.971 21.3241 50.8994 21.1097 50.7922 20.931L48.7184 17.3221C48.2536 16.536 47.3954 16 46.3943 16H40.1729H32.3783H26.1927C25.6921 16 25.2273 16.1429 24.834 16.3573L27.5514 21.0739L28.5168 22.7533L32.4141 29.5067L36.3114 36.26H44.9999H51.9006H53.8314H59.2661Z" fill="white"/>
<path d="M59.1952 36.7607H36.2405L32.5577 43.1568C32.951 43.3712 33.4158 43.5141 33.8806 43.5141H33.9164H40.1378H45.9659C46.6094 43.5141 47.11 44.0143 47.11 44.6575C47.11 44.8362 47.0743 45.0506 46.967 45.1935L44.3569 49.6957C44.1423 50.0173 43.7848 50.2674 43.3915 50.2674H36.2405H30.0191C29.5185 50.2674 29.0537 50.1245 28.6604 49.9101L24.7988 56.6277C25.1921 56.8421 25.657 56.9851 26.1575 56.9851H32.1644H32.4147H40.1735H46.3949C47.4318 56.9851 48.2899 56.4133 48.7548 55.5915L51.8297 50.2317L55.727 43.4784L58.8377 38.0114C59.088 37.6898 59.1952 37.2253 59.1952 36.7607Z" fill="white"/>
<path d="M51.3446 55.1699V55.3843H50.8798V56.5635H50.5937V55.3843H50.1289V55.1699H51.3446ZM52.8463 56.5635L52.8105 55.7416C52.8105 55.6344 52.8105 55.4915 52.8105 55.3486C52.7748 55.4558 52.739 55.6344 52.7033 55.7774L52.453 56.5635H52.1669L51.8452 55.7416C51.8094 55.6344 51.7736 55.4558 51.7379 55.3486C51.7379 55.4915 51.7379 55.5987 51.7379 55.7416L51.7021 56.5635H51.4161L51.5234 55.1699H51.9524L52.2027 55.8488C52.2385 55.956 52.2742 56.0632 52.31 56.2062C52.3457 56.0632 52.3815 55.956 52.4172 55.8488L52.6675 55.1699H53.0608L53.1681 56.5635H52.8463Z" fill="white"/>
</svg>
