<svg width="100" height="100" viewBox="0 0 100 100" fill="none" xmlns="http://www.w3.org/2000/svg">
<circle cx="50" cy="50" r="50" fill="url(#paint0_linear)"/>
<path fill-rule="evenodd" clip-rule="evenodd" d="M73 50C73 62.7025 62.7025 73 50 73C37.2975 73 27 62.7025 27 50C27 37.2975 37.2975 27 50 27C62.7025 27 73 37.2975 73 50ZM78 50C78 65.464 65.464 78 50 78C34.536 78 22 65.464 22 50C22 34.536 34.536 22 50 22C65.464 22 78 34.536 78 50ZM51.3999 38.1201C51.3999 37.0155 50.5045 36.1201 49.3999 36.1201C48.2953 36.1201 47.3999 37.0155 47.3999 38.1201V52.1201C47.3999 53.0379 48.0245 53.8378 48.9148 54.0604L60.1148 56.8604C61.1864 57.1283 62.2723 56.4768 62.5402 55.4052C62.8081 54.3336 62.1566 53.2477 61.085 52.9798L51.3999 50.5586V38.1201Z" fill="white"/>
<defs>
<linearGradient id="paint0_linear" x1="99.8974" y1="100" x2="-0.102627" y2="0" gradientUnits="userSpaceOnUse">
<stop stop-color="#4825D4"/>
<stop offset="1" stop-color="#81DEFD"/>
</linearGradient>
</defs>
</svg>
