<svg width="1920" height="224" viewBox="0 0 1920 224" fill="none" xmlns="http://www.w3.org/2000/svg">
<g clip-path="url(#clip0_621_46)">
<rect width="1920" height="224" fill="#20124D"/>
<g opacity="0.5">
<g filter="url(#filter0_f_621_46)">
<rect width="49.3579" height="49.4889" transform="matrix(0.866025 0.5 -0.866025 0.5 108.88 63.5723)" fill="black" fill-opacity="0.3"/>
</g>
<path fill-rule="evenodd" clip-rule="evenodd" d="M109.001 59.8467L71.0002 37.9072L71.0002 55.7207L109 77.6596L109 88.6293L71.0002 66.6904L71.0002 81.7863L109.001 103.726L109.001 59.8467Z" fill="#20124D"/>
<path fill-rule="evenodd" clip-rule="evenodd" d="M147 37.908L108.999 59.8476L108.999 77.6611L135.371 62.4356L135.371 73.4054L108.999 88.6309L108.999 103.727L147 81.7872L147 37.908Z" fill="#160B3D"/>
<path fill-rule="evenodd" clip-rule="evenodd" d="M147.004 37.9094L109.003 15.9699L71.0029 37.9094L109.003 59.849L147.004 37.9094ZM123.24 24.1904L95.6709 40.1076L105.171 45.5924L132.74 29.6753L123.24 24.1904Z" fill="#2A1963"/>
</g>
<g opacity="0.5">
<g filter="url(#filter1_f_621_46)">
<rect width="49.3579" height="49.4889" transform="matrix(0.5 0.866025 -1 2.18168e-08 -2.17871 163.164)" fill="black" fill-opacity="0.3"/>
</g>
<path fill-rule="evenodd" clip-rule="evenodd" d="M43.6663 159.999H-0.212774L-9.11942 175.426H-9.11951L-14.6044 184.926H-14.6043L-22.1523 197.999H21.7268L43.6663 159.999ZM-14.6043 184.926H15.8466L21.3315 175.426H-9.11942L-14.6043 184.926Z" fill="#160B3D"/>
<path fill-rule="evenodd" clip-rule="evenodd" d="M43.6673 160.001L21.7278 122.001H-22.1514L-0.211807 160.001H43.6673ZM29.9473 136.238L-1.88698 136.238L3.59791 145.738H35.4322L29.9473 136.238Z" fill="#2A1963"/>
</g>
<g opacity="0.5">
<g filter="url(#filter2_f_621_46)">
<rect width="45.835" height="45.9566" transform="matrix(0.5 0.866025 -1 2.18168e-08 1647.48 189.514)" fill="black" fill-opacity="0.3"/>
</g>
<path fill-rule="evenodd" clip-rule="evenodd" d="M1649.31 186.574L1628.93 151.286L1620.66 165.612L1620.66 165.611L1615.57 174.433L1615.57 174.434L1608.56 186.574L1628.93 221.862L1649.31 186.574ZM1620.66 165.612L1615.57 174.434L1635.94 209.72L1641.04 200.898L1620.66 165.612Z" fill="#20124D"/>
<path fill-rule="evenodd" clip-rule="evenodd" d="M1690.05 186.574H1649.31L1641.04 200.899H1641.04L1635.94 209.721H1635.94L1628.93 221.862H1669.68L1690.05 186.574ZM1635.94 209.721H1664.22L1669.31 200.899H1641.04L1635.94 209.721Z" fill="#160B3D"/>
<path fill-rule="evenodd" clip-rule="evenodd" d="M1677.31 164.51L1669.68 151.289H1628.93L1649.31 186.577H1690.06L1682.41 173.332L1652.85 173.332L1647.75 164.51L1677.31 164.51Z" fill="#2A1963"/>
</g>
<g opacity="0.5">
<g filter="url(#filter3_f_621_46)">
<rect width="58.4501" height="58.6052" transform="matrix(0.707107 0.707107 -0.965926 0.258819 232.221 186.968)" fill="black" fill-opacity="0.3"/>
</g>
<path fill-rule="evenodd" clip-rule="evenodd" d="M233.501 182.744L196.758 146.001L191.298 166.377L191.298 166.377L187.936 178.925L187.936 178.925L183.309 196.192L220.052 232.935L233.501 182.744ZM191.298 166.377L187.936 178.925L224.677 215.666L228.04 203.119L191.298 166.377Z" fill="#20124D"/>
<path fill-rule="evenodd" clip-rule="evenodd" d="M283.69 169.296L233.498 182.744L220.049 232.936L270.241 219.487L283.69 169.296ZM262.87 193.787L228.039 203.12L224.676 215.668L259.508 206.335L262.87 193.787Z" fill="#160B3D"/>
<path fill-rule="evenodd" clip-rule="evenodd" d="M283.693 169.297L246.95 132.555L196.759 146.003L233.502 182.746L283.693 169.297ZM260.716 146.322L224.302 156.079L233.488 165.265L269.901 155.508L260.716 146.322Z" fill="#2A1963"/>
</g>
<g opacity="0.5">
<g filter="url(#filter4_f_621_46)">
<rect width="58.4501" height="58.6052" transform="matrix(0.965926 -0.258819 -0.258819 0.965926 596.675 73.876)" fill="black" fill-opacity="0.3"/>
</g>
<path fill-rule="evenodd" clip-rule="evenodd" d="M593.657 70.6557L543.466 84.1045L558.382 99.0205L608.572 85.5721L617.757 94.7578L567.567 108.206L580.208 120.847L630.4 107.398L593.657 70.6557Z" fill="#20124D"/>
<path fill-rule="evenodd" clip-rule="evenodd" d="M607.106 20.4667L593.657 70.6581L608.573 85.5742L617.906 50.7425L627.092 59.9282L617.759 94.7598L630.4 107.401L643.849 57.2094L607.106 20.4667Z" fill="#160B3D"/>
<path fill-rule="evenodd" clip-rule="evenodd" d="M607.109 20.4642L556.918 33.913L543.469 84.1045L593.66 70.6557L607.109 20.4642ZM575.722 28.8751L565.965 65.289L578.513 61.9268L588.27 25.5129L575.722 28.8751Z" fill="#2A1963"/>
</g>
<g opacity="0.5">
<g filter="url(#filter5_f_621_46)">
<rect width="33.2703" height="33.3585" transform="matrix(0.866025 0.5 -0.866025 0.5 937.341 75.4805)" fill="black" fill-opacity="0.3"/>
</g>
<path fill-rule="evenodd" clip-rule="evenodd" d="M937.422 72.9693L911.807 58.1806L911.807 70.1885L937.421 84.9766L937.421 92.3709L911.807 77.5828L911.807 87.7579L937.422 102.546L937.422 72.9693Z" fill="#20124D"/>
<path fill-rule="evenodd" clip-rule="evenodd" d="M963.035 58.1821L937.421 72.9707L937.421 84.9785L955.196 74.7156L955.196 82.1099L937.421 92.3728L937.421 102.548L963.035 87.7593L963.035 58.1821Z" fill="#160B3D"/>
<path fill-rule="evenodd" clip-rule="evenodd" d="M963.04 58.1792L937.425 43.3906L911.811 58.1792L937.425 72.9678L963.04 58.1792ZM947.021 48.9329L928.438 59.6621L934.842 63.3592L953.425 52.6301L947.021 48.9329Z" fill="#2A1963"/>
</g>
<g opacity="0.5">
<g filter="url(#filter6_f_621_46)">
<rect width="72.6701" height="72.863" transform="matrix(0.707107 0.707107 -0.965926 0.258819 777.372 168.973)" fill="black" fill-opacity="0.3"/>
</g>
<path fill-rule="evenodd" clip-rule="evenodd" d="M778.964 163.721L733.282 118.039L726.494 143.372L726.494 143.372L722.314 158.973L722.314 158.973L716.562 180.441L762.243 226.123L778.964 163.721ZM726.494 143.372L722.314 158.973L767.994 204.653L772.174 189.052L726.494 143.372Z" fill="#20124D"/>
<path fill-rule="evenodd" clip-rule="evenodd" d="M841.363 147.003L778.961 163.724L772.173 189.057L772.173 189.057L767.993 204.657L767.993 204.657L762.24 226.126L824.643 209.405L841.363 147.003ZM767.993 204.657L811.298 193.054L815.478 177.453L772.173 189.057L767.993 204.657Z" fill="#160B3D"/>
<path fill-rule="evenodd" clip-rule="evenodd" d="M841.368 147.004L795.687 101.322L733.284 118.043L778.966 163.725L841.368 147.004ZM812.8 118.439L767.527 130.57L778.948 141.991L824.221 129.86L812.8 118.439Z" fill="#2A1963"/>
</g>
<g opacity="0.5">
<g filter="url(#filter7_f_621_46)">
<rect width="92.2428" height="92.4875" transform="matrix(0.707107 0.707107 -0.965926 0.258819 1856.41 99.2451)" fill="black" fill-opacity="0.3"/>
</g>
<path fill-rule="evenodd" clip-rule="evenodd" d="M1858.42 92.5762L1800.44 34.5908L1791.82 66.7471L1849.81 124.731L1844.5 144.533L1786.52 86.5494L1779.21 113.8L1837.2 171.786L1858.42 92.5762Z" fill="#20124D"/>
<path fill-rule="evenodd" clip-rule="evenodd" d="M1937.63 71.356L1858.42 92.5801L1849.81 124.736L1849.81 124.736L1844.5 144.539L1844.5 144.539L1837.2 171.79L1916.41 150.565L1937.63 71.356ZM1844.5 144.539L1899.47 129.81L1904.77 110.007L1849.81 124.736L1844.5 144.539Z" fill="#160B3D"/>
<path fill-rule="evenodd" clip-rule="evenodd" d="M1937.64 71.3604L1879.65 13.375L1800.44 34.5991L1858.43 92.5845L1937.64 71.3604ZM1901.38 35.1009L1843.91 50.499L1858.41 64.9954L1915.87 49.5973L1901.38 35.1009Z" fill="#2A1963"/>
</g>
</g>
<defs>
<filter id="filter0_f_621_46" x="31.0215" y="28.5723" width="155.604" height="119.423" filterUnits="userSpaceOnUse" color-interpolation-filters="sRGB">
<feFlood flood-opacity="0" result="BackgroundImageFix"/>
<feBlend mode="normal" in="SourceGraphic" in2="BackgroundImageFix" result="shape"/>
<feGaussianBlur stdDeviation="17.5" result="effect1_foregroundBlur_621_46"/>
</filter>
<filter id="filter1_f_621_46" x="-86.668" y="128.164" width="144.168" height="112.745" filterUnits="userSpaceOnUse" color-interpolation-filters="sRGB">
<feFlood flood-opacity="0" result="BackgroundImageFix"/>
<feBlend mode="normal" in="SourceGraphic" in2="BackgroundImageFix" result="shape"/>
<feGaussianBlur stdDeviation="17.5" result="effect1_foregroundBlur_621_46"/>
</filter>
<filter id="filter2_f_621_46" x="1566.52" y="154.514" width="138.875" height="109.694" filterUnits="userSpaceOnUse" color-interpolation-filters="sRGB">
<feFlood flood-opacity="0" result="BackgroundImageFix"/>
<feBlend mode="normal" in="SourceGraphic" in2="BackgroundImageFix" result="shape"/>
<feGaussianBlur stdDeviation="17.5" result="effect1_foregroundBlur_621_46"/>
</filter>
<filter id="filter3_f_621_46" x="140.612" y="151.968" width="167.938" height="126.499" filterUnits="userSpaceOnUse" color-interpolation-filters="sRGB">
<feFlood flood-opacity="0" result="BackgroundImageFix"/>
<feBlend mode="normal" in="SourceGraphic" in2="BackgroundImageFix" result="shape"/>
<feGaussianBlur stdDeviation="17.5" result="effect1_foregroundBlur_621_46"/>
</filter>
<filter id="filter4_f_621_46" x="546.507" y="23.748" width="141.626" height="141.736" filterUnits="userSpaceOnUse" color-interpolation-filters="sRGB">
<feFlood flood-opacity="0" result="BackgroundImageFix"/>
<feBlend mode="normal" in="SourceGraphic" in2="BackgroundImageFix" result="shape"/>
<feGaussianBlur stdDeviation="17.5" result="effect1_foregroundBlur_621_46"/>
</filter>
<filter id="filter5_f_621_46" x="873.451" y="40.4805" width="127.702" height="103.314" filterUnits="userSpaceOnUse" color-interpolation-filters="sRGB">
<feFlood flood-opacity="0" result="BackgroundImageFix"/>
<feBlend mode="normal" in="SourceGraphic" in2="BackgroundImageFix" result="shape"/>
<feGaussianBlur stdDeviation="17.5" result="effect1_foregroundBlur_621_46"/>
</filter>
<filter id="filter6_f_621_46" x="671.992" y="133.973" width="191.766" height="140.244" filterUnits="userSpaceOnUse" color-interpolation-filters="sRGB">
<feFlood flood-opacity="0" result="BackgroundImageFix"/>
<feBlend mode="normal" in="SourceGraphic" in2="BackgroundImageFix" result="shape"/>
<feGaussianBlur stdDeviation="17.5" result="effect1_foregroundBlur_621_46"/>
</filter>
<filter id="filter7_f_621_46" x="1732.07" y="64.2451" width="224.562" height="159.163" filterUnits="userSpaceOnUse" color-interpolation-filters="sRGB">
<feFlood flood-opacity="0" result="BackgroundImageFix"/>
<feBlend mode="normal" in="SourceGraphic" in2="BackgroundImageFix" result="shape"/>
<feGaussianBlur stdDeviation="17.5" result="effect1_foregroundBlur_621_46"/>
</filter>
<clipPath id="clip0_621_46">
<rect width="1920" height="224" fill="white"/>
</clipPath>
</defs>
</svg>
