<svg width="1024" height="1065" viewBox="0 0 1024 1065" fill="none" xmlns="http://www.w3.org/2000/svg">
<path fill-rule="evenodd" clip-rule="evenodd" d="M1024 1056.06C950.626 1063.58 882.965 1066.52 841.881 1063.01C769.858 1056.87 743.109 1045.76 700.516 1028.08C691.555 1024.36 681.892 1020.35 670.959 1016.03C605.75 990.276 540.762 946.333 482.263 906.778C439.081 877.579 399.434 850.771 365.846 835.437C314.97 812.209 268.342 797.179 226.168 783.585C135.888 754.485 66.0233 731.965 18.6171 649.7C-27.4064 569.835 21.2261 507.809 73.8276 440.72C98.9502 408.679 124.978 375.483 142.032 338.637C156.748 306.84 164.951 261.897 173.569 214.679C189.225 128.892 206.252 35.5974 266.204 0H1024V1056.06Z" fill="url(#paint0_linear_571_2224)"/>
<defs>
<linearGradient id="paint0_linear_571_2224" x1="1257.69" y1="-188.779" x2="1071.24" y2="888.894" gradientUnits="userSpaceOnUse">
<stop stop-color="#002590"/>
<stop offset="1" stop-color="#6D00C4"/>
</linearGradient>
</defs>
</svg>
