<svg width="1024" height="1065" viewBox="0 0 1024 1065" fill="none" xmlns="http://www.w3.org/2000/svg" xmlns:xlink="http://www.w3.org/1999/xlink">
<path fill-rule="evenodd" clip-rule="evenodd" d="M1024 1056.06C950.626 1063.58 882.965 1066.52 841.881 1063.01C769.858 1056.87 743.109 1045.76 700.516 1028.08C691.555 1024.36 681.892 1020.35 670.959 1016.03C605.75 990.276 540.762 946.333 482.263 906.778C439.081 877.579 399.434 850.771 365.846 835.437C314.97 812.209 268.342 797.179 226.168 783.585C135.888 754.485 66.0233 731.965 18.6171 649.7C-27.4064 569.835 21.2261 507.809 73.8276 440.72C98.9502 408.679 124.978 375.483 142.032 338.637C156.748 306.84 164.951 261.897 173.569 214.679C189.225 128.892 206.252 35.5974 266.204 0H1024V1056.06Z" fill="url(#paint0_linear_621_4)"/>
<mask id="mask0_621_4" style="mask-type:alpha" maskUnits="userSpaceOnUse" x="0" y="0" width="1024" height="1065">
<path fill-rule="evenodd" clip-rule="evenodd" d="M1023.77 1056.06C950.396 1063.58 882.735 1066.52 841.651 1063.01C769.629 1056.87 742.88 1045.76 700.286 1028.08C691.325 1024.36 681.662 1020.35 670.729 1016.03C605.521 990.276 540.532 946.333 482.034 906.778C438.851 877.579 399.205 850.771 365.617 835.437C314.741 812.209 268.112 797.179 225.939 783.585C135.658 754.485 65.7938 731.965 18.3876 649.7C-27.6359 569.835 20.9966 507.809 73.5981 440.72C98.7207 408.679 124.749 375.483 141.802 338.637C156.519 306.84 164.721 261.897 173.339 214.679C188.996 128.892 206.023 35.5974 265.975 0H1023.77V1056.06Z" fill="url(#paint1_linear_621_4)"/>
</mask>
<g mask="url(#mask0_621_4)">
<rect x="-347.229" y="-199" width="1921" height="1463" fill="url(#pattern0)" fill-opacity="0.07"/>
</g>
<defs>
<pattern id="pattern0" patternContentUnits="objectBoundingBox" width="0.999479" height="0.390977">
<use xlink:href="#image0_621_4" transform="scale(0.000520562 0.000683527)"/>
</pattern>
<linearGradient id="paint0_linear_621_4" x1="1257.69" y1="-188.779" x2="1071.24" y2="888.894" gradientUnits="userSpaceOnUse">
<stop stop-color="#002590"/>
<stop offset="1" stop-color="#6D00C4"/>
</linearGradient>
<linearGradient id="paint1_linear_621_4" x1="1257.46" y1="-188.779" x2="1071.01" y2="888.894" gradientUnits="userSpaceOnUse">
<stop stop-color="#002590"/>
<stop offset="1" stop-color="#6D00C4"/>
</linearGradient>
</defs>
</svg>
