<svg width="590" height="341" viewBox="0 0 590 341" fill="none" xmlns="http://www.w3.org/2000/svg">
<rect width="590" height="341" rx="18.6617" fill="white"/>
<rect x="111" y="173" width="128" height="5" fill="#D9D9D9"/>
<rect x="111" y="183" width="122" height="5" fill="#D9D9D9"/>
<rect x="111" y="203" width="106" height="5" fill="#D9D9D9"/>
<rect x="111" y="193" width="124" height="5" fill="#D9D9D9"/>
<rect x="111" y="150" width="144" height="12" fill="#D9D9D9"/>
<path d="M0 19C0 8.50659 8.50659 0 19 0H571C581.493 0 590 8.50659 590 19V45H0V19Z" fill="#6D00C3"/>
<rect x="81" y="21" width="69" height="5" fill="white"/>
<rect x="469" y="16" width="40" height="14" rx="2" fill="#BC68FF"/>
<rect x="111" y="219" width="40" height="14" rx="2" fill="#BC68FF"/>
<g filter="url(#filter0_f_621_227)">
<rect width="78" height="78" transform="matrix(0.865742 0.500491 -0.865742 0.500491 413 198.001)" fill="black" fill-opacity="0.3"/>
</g>
<path fill-rule="evenodd" clip-rule="evenodd" d="M413.097 187.981L349 151L348.936 225L413.033 261.98L413.055 236.965L413.081 236.981L413.097 218.981L413.07 218.965L413.097 187.981Z" fill="#F3F3F3"/>
<path fill-rule="evenodd" clip-rule="evenodd" d="M477.065 150.963L413 188L412.936 262L477.001 224.963L477.065 150.963Z" fill="#BCBCBC"/>
<path fill-rule="evenodd" clip-rule="evenodd" d="M437.485 128.127L413 114L348.935 151.036L413.032 188.017L477.097 150.981L453.076 137.122L453.341 136.969L437.75 127.974L437.485 128.127Z" fill="#DFDFDF"/>
<defs>
<filter id="filter0_f_621_227" x="310.472" y="163.001" width="205.056" height="148.077" filterUnits="userSpaceOnUse" color-interpolation-filters="sRGB">
<feFlood flood-opacity="0" result="BackgroundImageFix"/>
<feBlend mode="normal" in="SourceGraphic" in2="BackgroundImageFix" result="shape"/>
<feGaussianBlur stdDeviation="17.5" result="effect1_foregroundBlur_621_227"/>
</filter>
</defs>
</svg>
