<svg width="824" height="574" viewBox="0 0 824 574" fill="none" xmlns="http://www.w3.org/2000/svg">
<g filter="url(#filter0_dddddd_621_227)">
<rect x="117" y="90" width="590" height="341" rx="18.6617" fill="white"/>
</g>
<rect x="228" y="263" width="128" height="5" fill="#D9D9D9"/>
<rect x="228" y="273" width="122" height="5" fill="#D9D9D9"/>
<rect x="228" y="293" width="106" height="5" fill="#D9D9D9"/>
<rect x="228" y="283" width="124" height="5" fill="#D9D9D9"/>
<rect x="228" y="240" width="144" height="12" fill="#D9D9D9"/>
<path d="M117 109C117 98.5066 125.507 90 136 90H688C698.493 90 707 98.5066 707 109V135H117V109Z" fill="#6D00C3"/>
<rect x="198" y="111" width="69" height="5" fill="white"/>
<rect x="586" y="106" width="40" height="14" rx="2" fill="#BC68FF"/>
<rect x="228" y="309" width="40" height="14" rx="2" fill="#BC68FF"/>
<g filter="url(#filter1_f_621_227)">
<rect width="78" height="78" transform="matrix(0.865742 0.500491 -0.865742 0.500491 530 288.001)" fill="black" fill-opacity="0.3"/>
</g>
<path fill-rule="evenodd" clip-rule="evenodd" d="M530.097 277.981L466 241L465.936 315L530.033 351.98L530.055 326.965L530.081 326.981L530.097 308.981L530.07 308.965L530.097 277.981Z" fill="#F3F3F3"/>
<path fill-rule="evenodd" clip-rule="evenodd" d="M594.065 240.963L530 278L529.936 352L594.001 314.963L594.065 240.963Z" fill="#BCBCBC"/>
<path fill-rule="evenodd" clip-rule="evenodd" d="M554.485 218.127L530 204L465.935 241.036L530.032 278.017L594.097 240.981L570.076 227.122L570.341 226.969L554.75 217.974L554.485 218.127Z" fill="#DFDFDF"/>
<defs>
<filter id="filter0_dddddd_621_227" x="0.788551" y="0.0845718" width="822.423" height="573.423" filterUnits="userSpaceOnUse" color-interpolation-filters="sRGB">
<feFlood flood-opacity="0" result="BackgroundImageFix"/>
<feColorMatrix in="SourceAlpha" type="matrix" values="0 0 0 0 0 0 0 0 0 0 0 0 0 0 0 0 0 0 127 0" result="hardAlpha"/>
<feOffset dy="0.727678"/>
<feGaussianBlur stdDeviation="1.60793"/>
<feColorMatrix type="matrix" values="0 0 0 0 0 0 0 0 0 0 0 0 0 0 0 0 0 0 0.0449833 0"/>
<feBlend mode="normal" in2="BackgroundImageFix" result="effect1_dropShadow_621_227"/>
<feColorMatrix in="SourceAlpha" type="matrix" values="0 0 0 0 0 0 0 0 0 0 0 0 0 0 0 0 0 0 127 0" result="hardAlpha"/>
<feOffset dy="1.74871"/>
<feGaussianBlur stdDeviation="3.86409"/>
<feColorMatrix type="matrix" values="0 0 0 0 0 0 0 0 0 0 0 0 0 0 0 0 0 0 0.0646228 0"/>
<feBlend mode="normal" in2="effect1_dropShadow_621_227" result="effect2_dropShadow_621_227"/>
<feColorMatrix in="SourceAlpha" type="matrix" values="0 0 0 0 0 0 0 0 0 0 0 0 0 0 0 0 0 0 127 0" result="hardAlpha"/>
<feOffset dy="3.29267"/>
<feGaussianBlur stdDeviation="7.27574"/>
<feColorMatrix type="matrix" values="0 0 0 0 0 0 0 0 0 0 0 0 0 0 0 0 0 0 0.08 0"/>
<feBlend mode="normal" in2="effect2_dropShadow_621_227" result="effect3_dropShadow_621_227"/>
<feColorMatrix in="SourceAlpha" type="matrix" values="0 0 0 0 0 0 0 0 0 0 0 0 0 0 0 0 0 0 127 0" result="hardAlpha"/>
<feOffset dy="5.87356"/>
<feGaussianBlur stdDeviation="12.9787"/>
<feColorMatrix type="matrix" values="0 0 0 0 0 0 0 0 0 0 0 0 0 0 0 0 0 0 0.0953772 0"/>
<feBlend mode="normal" in2="effect3_dropShadow_621_227" result="effect4_dropShadow_621_227"/>
<feColorMatrix in="SourceAlpha" type="matrix" values="0 0 0 0 0 0 0 0 0 0 0 0 0 0 0 0 0 0 127 0" result="hardAlpha"/>
<feOffset dy="10.9858"/>
<feGaussianBlur stdDeviation="24.2752"/>
<feColorMatrix type="matrix" values="0 0 0 0 0 0 0 0 0 0 0 0 0 0 0 0 0 0 0.115017 0"/>
<feBlend mode="normal" in2="effect4_dropShadow_621_227" result="effect5_dropShadow_621_227"/>
<feColorMatrix in="SourceAlpha" type="matrix" values="0 0 0 0 0 0 0 0 0 0 0 0 0 0 0 0 0 0 127 0" result="hardAlpha"/>
<feOffset dy="26.296"/>
<feGaussianBlur stdDeviation="58.1057"/>
<feColorMatrix type="matrix" values="0 0 0 0 0 0 0 0 0 0 0 0 0 0 0 0 0 0 0.16 0"/>
<feBlend mode="normal" in2="effect5_dropShadow_621_227" result="effect6_dropShadow_621_227"/>
<feBlend mode="normal" in="SourceGraphic" in2="effect6_dropShadow_621_227" result="shape"/>
</filter>
<filter id="filter1_f_621_227" x="427.472" y="253.001" width="205.056" height="148.077" filterUnits="userSpaceOnUse" color-interpolation-filters="sRGB">
<feFlood flood-opacity="0" result="BackgroundImageFix"/>
<feBlend mode="normal" in="SourceGraphic" in2="BackgroundImageFix" result="shape"/>
<feGaussianBlur stdDeviation="17.5" result="effect1_foregroundBlur_621_227"/>
</filter>
</defs>
</svg>
