<svg width="100" height="100" viewBox="0 0 100 100" fill="none" xmlns="http://www.w3.org/2000/svg">
<circle cx="50" cy="50" r="50" fill="url(#paint0_linear)"/>
<path fill-rule="evenodd" clip-rule="evenodd" d="M56.9412 33.8823V40.9412H43.0588V33.8823C43.0588 30.0488 46.1665 26.9412 50 26.9412C53.8335 26.9412 56.9412 30.0488 56.9412 33.8823ZM35 40.9412H37.0588V33.8823C37.0588 26.7351 42.8528 20.9412 50 20.9412C57.1472 20.9412 62.9412 26.7351 62.9412 33.8823V40.9412H65C67.7614 40.9412 70 43.1798 70 45.9412V70.0588C70 72.8203 67.7614 75.0588 65 75.0588H35C32.2386 75.0588 30 72.8202 30 70.0588V45.9412C30 43.1798 32.2386 40.9412 35 40.9412ZM52.5359 59.0237C53.841 58.1872 54.7059 56.724 54.7059 55.0588C54.7059 52.4598 52.599 50.3529 50 50.3529C47.401 50.3529 45.2941 52.4598 45.2941 55.0588C45.2941 56.724 46.159 58.1872 47.4641 59.0237L46.6428 64.4987C46.5521 65.1033 47.0204 65.6471 47.6318 65.6471H52.3682C52.9796 65.6471 53.4479 65.1033 53.3572 64.4987L52.5359 59.0237Z" fill="white"/>
<defs>
<linearGradient id="paint0_linear" x1="99.8974" y1="100" x2="-0.102627" y2="0" gradientUnits="userSpaceOnUse">
<stop stop-color="#4825D4"/>
<stop offset="1" stop-color="#81DEFD"/>
</linearGradient>
</defs>
</svg>
