<svg width="284" height="229" viewBox="0 0 284 229" fill="none" xmlns="http://www.w3.org/2000/svg">
<rect y="32" width="284" height="197" rx="14.4517" fill="#6B00BF"/>
<g filter="url(#filter0_d_621_231)">
<rect x="48" y="77" width="188" height="109" rx="6.07031" fill="white"/>
</g>
<g filter="url(#filter1_d_621_231)">
<path d="M28 6C28 3.23858 30.2386 1 33 1H73C75.7614 1 78 3.23858 78 6V51H28V6Z" fill="#BC68FF"/>
</g>
<path d="M43.4376 21.136C43.5336 18.568 44.3736 16.588 45.9576 15.196C47.5416 13.804 49.6896 13.108 52.4016 13.108C54.2016 13.108 55.7376 13.42 57.0096 14.044C58.3056 14.668 59.2776 15.52 59.9256 16.6C60.5976 17.68 60.9336 18.892 60.9336 20.236C60.9336 21.82 60.5376 23.116 59.7456 24.124C58.9536 25.108 58.0296 25.78 56.9736 26.14V26.284C58.3416 26.74 59.4216 27.496 60.2136 28.552C61.0056 29.608 61.4016 30.964 61.4016 32.62C61.4016 34.108 61.0536 35.428 60.3576 36.58C59.6856 37.708 58.6896 38.596 57.3696 39.244C56.0736 39.892 54.5256 40.216 52.7256 40.216C49.8456 40.216 47.5416 39.508 45.8136 38.092C44.1096 36.676 43.2096 34.54 43.1136 31.684H49.0896C49.1136 32.74 49.4136 33.58 49.9896 34.204C50.5656 34.804 51.4056 35.104 52.5096 35.104C53.4456 35.104 54.1656 34.84 54.6696 34.312C55.1976 33.76 55.4616 33.04 55.4616 32.152C55.4616 31 55.0896 30.172 54.3456 29.668C53.6256 29.14 52.4616 28.876 50.8536 28.876H49.7016V23.872H50.8536C52.0776 23.872 53.0616 23.668 53.8056 23.26C54.5736 22.828 54.9576 22.072 54.9576 20.992C54.9576 20.128 54.7176 19.456 54.2376 18.976C53.7576 18.496 53.0976 18.256 52.2576 18.256C51.3456 18.256 50.6616 18.532 50.2056 19.084C49.7736 19.636 49.5216 20.32 49.4496 21.136H43.4376Z" fill="white"/>
<path d="M70.2955 115C69.58 115 69 115.58 69 116.295V170.705C69 171.42 69.58 172 70.2955 172H124.705C125.42 172 126 171.42 126 170.705C126 169.989 125.42 169.409 124.705 169.409H71.5909V116.295C71.5909 115.58 71.0109 115 70.2955 115ZM116.932 127.307C114.801 127.307 113.045 129.062 113.045 131.193C113.045 132.067 113.34 132.869 113.835 133.521L106.083 145.726C105.63 145.54 105.142 145.443 104.625 145.443C103.545 145.443 102.58 145.894 101.872 146.617L95.4356 142.467C95.5094 142.171 95.5571 141.875 95.5571 141.557C95.5571 139.426 93.8017 137.67 91.6707 137.67C89.5397 137.67 87.7844 139.426 87.7844 141.557C87.7844 142.441 88.088 143.248 88.594 143.905L81.2056 155.847C81.0272 155.822 80.8438 155.807 80.6591 155.807C78.5281 155.807 76.7727 157.562 76.7727 159.693C76.7727 161.824 78.5281 163.58 80.6591 163.58C82.7901 163.58 84.5455 161.824 84.5455 159.693C84.5455 158.677 84.1417 157.738 83.4929 157.042L90.7593 145.322C91.0539 145.395 91.3545 145.444 91.6702 145.444C92.5509 145.444 93.3633 145.136 94.0182 144.634L100.759 148.966C100.748 149.083 100.739 149.21 100.739 149.33C100.739 151.461 102.494 153.216 104.625 153.216C106.756 153.216 108.512 151.461 108.512 149.33C108.512 148.664 108.347 148.018 108.046 147.468L116.001 134.959C116.301 135.034 116.61 135.08 116.932 135.08C119.063 135.08 120.819 133.325 120.819 131.194C120.792 128.605 118.616 127.284 116.932 127.307L116.932 127.307ZM116.932 129.898C117.663 129.898 118.227 130.462 118.227 131.193C118.227 131.924 117.663 132.489 116.932 132.489C116.201 132.489 115.636 131.924 115.636 131.193C115.636 130.462 116.201 129.898 116.932 129.898ZM91.6705 140.261C92.4013 140.261 92.9659 140.826 92.9659 141.557C92.9659 142.288 92.4013 142.852 91.6705 142.852C90.9397 142.852 90.375 142.288 90.375 141.557C90.375 140.826 90.9397 140.261 91.6705 140.261ZM104.625 148.034C105.356 148.034 105.92 148.599 105.92 149.33C105.92 150.06 105.356 150.625 104.625 150.625C103.894 150.625 103.33 150.06 103.33 149.33C103.33 148.599 103.894 148.034 104.625 148.034ZM80.6591 158.398C81.3899 158.398 81.9545 158.962 81.9545 159.693C81.9545 160.424 81.3899 160.989 80.6591 160.989C79.9283 160.989 79.3636 160.424 79.3636 159.693C79.3636 158.962 79.9283 158.398 80.6591 158.398Z" fill="#6B00BF"/>
<rect width="4" height="4" transform="matrix(1 0 0 -1 69 92)" fill="#6B00BF"/>
<rect width="4" height="4" transform="matrix(1 0 0 -1 210 92)" fill="#6B00BF"/>
<rect width="4" height="4" transform="matrix(1 0 0 -1 205 92)" fill="#6B00BF"/>
<rect width="15.1313" height="4" transform="matrix(1 0 0 -1 77 92)" fill="#6B00BF"/>
<rect width="58.0034" height="4" rx="2" transform="matrix(1 0 0 -1 112.504 92)" fill="#6B00BF"/>
<g clip-path="url(#clip0_621_231)">
<path d="M181.523 143.472V115.144C181.523 115.144 181.464 115.136 181.409 115.136C165.69 115.136 152.973 127.878 152.973 143.596C152.973 159.319 165.729 171.959 181.447 171.959C197.142 171.959 209.88 159.771 209.92 143.472L181.523 143.472Z" fill="#6B00BF"/>
<path d="M213.995 139.397C213.995 139.397 213.946 139.448 213.946 139.422C213.946 123.758 201.897 111.159 185.598 111.069V139.395H213.995L213.995 139.397Z" fill="#6B00BF"/>
</g>
<defs>
<filter id="filter0_d_621_231" x="44.9575" y="77" width="194.085" height="115.085" filterUnits="userSpaceOnUse" color-interpolation-filters="sRGB">
<feFlood flood-opacity="0" result="BackgroundImageFix"/>
<feColorMatrix in="SourceAlpha" type="matrix" values="0 0 0 0 0 0 0 0 0 0 0 0 0 0 0 0 0 0 127 0" result="hardAlpha"/>
<feOffset dy="3.04247"/>
<feGaussianBlur stdDeviation="1.52124"/>
<feComposite in2="hardAlpha" operator="out"/>
<feColorMatrix type="matrix" values="0 0 0 0 0 0 0 0 0 0 0 0 0 0 0 0 0 0 0.25 0"/>
<feBlend mode="normal" in2="BackgroundImageFix" result="effect1_dropShadow_621_231"/>
<feBlend mode="normal" in="SourceGraphic" in2="effect1_dropShadow_621_231" result="shape"/>
</filter>
<filter id="filter1_d_621_231" x="24" y="1" width="58" height="58" filterUnits="userSpaceOnUse" color-interpolation-filters="sRGB">
<feFlood flood-opacity="0" result="BackgroundImageFix"/>
<feColorMatrix in="SourceAlpha" type="matrix" values="0 0 0 0 0 0 0 0 0 0 0 0 0 0 0 0 0 0 127 0" result="hardAlpha"/>
<feOffset dy="4"/>
<feGaussianBlur stdDeviation="2"/>
<feComposite in2="hardAlpha" operator="out"/>
<feColorMatrix type="matrix" values="0 0 0 0 0 0 0 0 0 0 0 0 0 0 0 0 0 0 0.25 0"/>
<feBlend mode="normal" in2="BackgroundImageFix" result="effect1_dropShadow_621_231"/>
<feBlend mode="normal" in="SourceGraphic" in2="effect1_dropShadow_621_231" result="shape"/>
</filter>
<clipPath id="clip0_621_231">
<rect width="61" height="61" fill="white" transform="translate(153 111)"/>
</clipPath>
</defs>
</svg>
