<svg width="284" height="229" viewBox="0 0 284 229" fill="none" xmlns="http://www.w3.org/2000/svg">
<rect y="32" width="284" height="197" rx="14.4517" fill="#6B00BF"/>
<g filter="url(#filter0_d_621_229)">
<rect x="30.4258" y="98.9336" width="213.675" height="63.1313" rx="6.07031" fill="white"/>
<path d="M50.8779 126.758V130.582H56.0133V133.008H50.8779V137.051H56.6689V139.542H47.8184V124.267H56.6689V126.758H50.8779ZM75.3583 127.261C76.8443 127.261 78.039 127.719 78.9422 128.637C79.8601 129.541 80.319 130.808 80.319 132.44V139.542H77.2595V132.855C77.2595 131.908 77.0192 131.187 76.5384 130.691C76.0576 130.182 75.402 129.927 74.5716 129.927C73.7412 129.927 73.0783 130.182 72.583 130.691C72.1022 131.187 71.8618 131.908 71.8618 132.855V139.542H68.8024V132.855C68.8024 131.908 68.562 131.187 68.0812 130.691C67.6005 130.182 66.9449 129.927 66.1144 129.927C65.2695 129.927 64.5993 130.182 64.1039 130.691C63.6232 131.187 63.3828 131.908 63.3828 132.855V139.542H60.3234V127.435H63.3828V128.9C63.7762 128.39 64.2788 127.989 64.8907 127.698C65.5171 127.406 66.2019 127.261 66.9449 127.261C67.8918 127.261 68.7368 127.464 69.4798 127.872C70.2228 128.266 70.7983 128.834 71.2062 129.577C71.5996 128.878 72.1678 128.317 72.9108 127.894C73.6683 127.472 74.4842 127.261 75.3583 127.261ZM83.3096 133.445C83.3096 132.221 83.55 131.136 84.0308 130.189C84.5261 129.242 85.189 128.513 86.0194 128.004C86.8644 127.494 87.8041 127.239 88.8385 127.239C89.7417 127.239 90.5284 127.421 91.1986 127.785C91.8833 128.149 92.4297 128.608 92.8376 129.162V127.435H95.9189V139.542H92.8376V137.772C92.4442 138.34 91.8979 138.814 91.1986 139.192C90.5139 139.557 89.7199 139.739 88.8166 139.739C87.7968 139.739 86.8644 139.476 86.0194 138.952C85.189 138.427 84.5261 137.692 84.0308 136.745C83.55 135.783 83.3096 134.683 83.3096 133.445ZM92.8376 133.489C92.8376 132.746 92.6919 132.112 92.4005 131.587C92.1091 131.048 91.7158 130.64 91.2204 130.364C90.7251 130.072 90.1933 129.927 89.6252 129.927C89.057 129.927 88.5325 130.065 88.0517 130.342C87.571 130.619 87.1776 131.027 86.8717 131.566C86.5803 132.09 86.4346 132.717 86.4346 133.445C86.4346 134.173 86.5803 134.814 86.8717 135.368C87.1776 135.907 87.571 136.322 88.0517 136.614C88.5471 136.905 89.0716 137.051 89.6252 137.051C90.1933 137.051 90.7251 136.912 91.2204 136.636C91.7158 136.344 92.1091 135.936 92.4005 135.412C92.6919 134.873 92.8376 134.232 92.8376 133.489ZM101.333 125.993C100.794 125.993 100.342 125.826 99.9777 125.49C99.6281 125.141 99.4533 124.711 99.4533 124.201C99.4533 123.691 99.6281 123.269 99.9777 122.934C100.342 122.584 100.794 122.409 101.333 122.409C101.872 122.409 102.316 122.584 102.666 122.934C103.03 123.269 103.212 123.691 103.212 124.201C103.212 124.711 103.03 125.141 102.666 125.49C102.316 125.826 101.872 125.993 101.333 125.993ZM102.841 127.435V139.542H99.7811V127.435H102.841ZM109.797 123.371V139.542H106.737V123.371H109.797Z" fill="#6B00BF"/>
</g>
<path d="M220.023 109.583C219.04 109.583 218.243 110.38 218.243 111.363V127.381C218.243 128.364 219.04 129.161 220.023 129.161C221.006 129.161 221.803 128.364 221.803 127.381V111.363C221.803 110.38 221.006 109.583 220.023 109.583ZM201.78 117.147C201.324 117.147 200.848 117.328 200.5 117.676C199.805 118.371 199.805 119.484 200.5 120.179L210.568 130.246C211.263 130.941 212.403 130.941 213.098 130.246C213.793 129.551 213.793 128.438 213.098 127.743L203.031 117.676C202.684 117.328 202.235 117.147 201.78 117.147ZM238.267 117.147C237.811 117.147 237.363 117.328 237.015 117.676L226.948 127.743C226.253 128.438 226.253 129.551 226.948 130.246C227.643 130.941 228.756 130.941 229.451 130.246L239.518 120.179C240.213 119.484 240.213 118.371 239.518 117.676C239.171 117.328 238.722 117.147 238.267 117.147ZM217.159 134.307L232.288 175.855L238.573 164.536L253.034 178.998L261.85 170.182L247.389 155.72L258.707 149.435L217.159 134.307ZM194.215 135.391C193.232 135.391 192.436 136.188 192.436 137.171C192.436 138.154 193.232 138.951 194.215 138.951H210.234C211.217 138.951 212.014 138.154 212.014 137.171C212.014 136.188 211.217 135.391 210.234 135.391H194.215ZM211.847 143.567C211.392 143.567 210.915 143.748 210.568 144.096L200.5 154.163C199.805 154.858 199.805 155.971 200.5 156.666C201.195 157.361 202.336 157.361 203.031 156.666L213.098 146.599C213.793 145.904 213.793 144.791 213.098 144.096C212.751 143.748 212.302 143.567 211.847 143.567Z" fill="#BC68FF"/>
<g filter="url(#filter1_d_621_229)">
<path d="M28 6C28 3.23858 30.2386 1 33 1H73C75.7614 1 78 3.23858 78 6V51H28V6Z" fill="#BC68FF"/>
</g>
<path d="M46.7044 19.444V13.72H56.6764V40H50.2684V19.444H46.7044Z" fill="white"/>
<defs>
<filter id="filter0_d_621_229" x="27.3833" y="98.9336" width="219.76" height="69.2163" filterUnits="userSpaceOnUse" color-interpolation-filters="sRGB">
<feFlood flood-opacity="0" result="BackgroundImageFix"/>
<feColorMatrix in="SourceAlpha" type="matrix" values="0 0 0 0 0 0 0 0 0 0 0 0 0 0 0 0 0 0 127 0" result="hardAlpha"/>
<feOffset dy="3.04247"/>
<feGaussianBlur stdDeviation="1.52124"/>
<feComposite in2="hardAlpha" operator="out"/>
<feColorMatrix type="matrix" values="0 0 0 0 0 0 0 0 0 0 0 0 0 0 0 0 0 0 0.25 0"/>
<feBlend mode="normal" in2="BackgroundImageFix" result="effect1_dropShadow_621_229"/>
<feBlend mode="normal" in="SourceGraphic" in2="effect1_dropShadow_621_229" result="shape"/>
</filter>
<filter id="filter1_d_621_229" x="24" y="1" width="58" height="58" filterUnits="userSpaceOnUse" color-interpolation-filters="sRGB">
<feFlood flood-opacity="0" result="BackgroundImageFix"/>
<feColorMatrix in="SourceAlpha" type="matrix" values="0 0 0 0 0 0 0 0 0 0 0 0 0 0 0 0 0 0 127 0" result="hardAlpha"/>
<feOffset dy="4"/>
<feGaussianBlur stdDeviation="2"/>
<feComposite in2="hardAlpha" operator="out"/>
<feColorMatrix type="matrix" values="0 0 0 0 0 0 0 0 0 0 0 0 0 0 0 0 0 0 0.25 0"/>
<feBlend mode="normal" in2="BackgroundImageFix" result="effect1_dropShadow_621_229"/>
<feBlend mode="normal" in="SourceGraphic" in2="effect1_dropShadow_621_229" result="shape"/>
</filter>
</defs>
</svg>
