<svg width="284" height="229" viewBox="0 0 284 229" fill="none" xmlns="http://www.w3.org/2000/svg">
<rect y="32" width="284" height="197" rx="14.4517" fill="#6B00BF"/>
<g filter="url(#filter0_d_621_230)">
<path d="M28 6C28 3.23858 30.2386 1 33 1H73C75.7614 1 78 3.23858 78 6V51H28V6Z" fill="#BC68FF"/>
</g>
<path d="M43.6208 35.068C44.4368 34.42 44.8088 34.12 44.7368 34.168C47.0888 32.224 48.9368 30.628 50.2808 29.38C51.6488 28.132 52.8008 26.824 53.7368 25.456C54.6728 24.088 55.1408 22.756 55.1408 21.46C55.1408 20.476 54.9128 19.708 54.4568 19.156C54.0008 18.604 53.3168 18.328 52.4048 18.328C51.4928 18.328 50.7728 18.676 50.2448 19.372C49.7408 20.044 49.4888 21.004 49.4888 22.252H43.5488C43.5968 20.212 44.0288 18.508 44.8448 17.14C45.6848 15.772 46.7768 14.764 48.1208 14.116C49.4888 13.468 51.0008 13.144 52.6568 13.144C55.5128 13.144 57.6608 13.876 59.1008 15.34C60.5648 16.804 61.2968 18.712 61.2968 21.064C61.2968 23.632 60.4208 26.02 58.6688 28.228C56.9168 30.412 54.6848 32.548 51.9728 34.636H61.6928V39.64H43.6208V35.068Z" fill="white"/>
<g filter="url(#filter1_d_621_230)">
<path d="M196.833 145.974V84.8238C196.833 80.5116 193.34 77 189.028 77H94.5277C90.2155 77 86.7224 80.5115 86.7224 84.8599V145.992L69.2925 180.288C68.8737 181.089 68.9105 182.035 69.3653 182.799C69.8563 183.545 70.6754 184 71.5668 184H211.971C212.862 184 213.699 183.545 214.172 182.799C214.627 182.035 214.663 181.071 214.245 180.288L196.833 145.974ZM139.14 82.1129C139.194 80.6754 140.34 79.5472 141.778 79.5472C143.215 79.5472 144.361 80.6754 144.415 82.1129V82.2585C144.361 83.696 143.214 84.8242 141.778 84.8242C140.34 84.8242 139.194 83.696 139.14 82.2585V82.1129ZM154.077 178.505H129.479C127.932 178.505 126.804 176.995 127.296 175.503L129.224 169.681C129.533 168.735 130.407 168.117 131.407 168.117H152.148C153.149 168.117 154.022 168.735 154.331 169.681L156.26 175.503C156.734 176.995 155.605 178.505 154.077 178.505H154.077ZM191.702 144.009H91.8532V87.4073H191.702V144.009Z" fill="white"/>
</g>
<path d="M141.777 96.7979C131.495 96.7979 123.137 105.156 123.137 115.438C123.137 125.719 131.495 134.078 141.777 134.078C152.058 134.078 160.417 125.719 160.417 115.438C160.417 105.156 152.058 96.7979 141.777 96.7979ZM141.777 131.174C133.104 131.174 126.041 124.11 126.041 115.438C126.041 106.765 133.104 99.7018 141.777 99.7018C150.449 99.7018 157.513 106.765 157.513 115.438C157.513 124.11 150.449 131.174 141.777 131.174Z" fill="white"/>
<path d="M146.839 119.99C146.133 119.048 144.838 118.891 143.896 119.597L142.876 120.382C142.64 120.539 142.326 120.539 142.13 120.304C140.286 118.185 138.952 115.673 138.284 112.926C138.206 112.651 138.402 112.337 138.677 112.259L139.893 111.867C140.992 111.513 141.62 110.336 141.267 109.237L140.286 106.177C139.972 105.235 138.912 104.803 138.049 105.274C134.713 107.001 132.634 110.807 136.676 118.499C140.678 126.19 144.995 126.661 148.252 124.934C149.115 124.463 149.39 123.365 148.762 122.58L146.839 119.99Z" fill="white"/>
<defs>
<filter id="filter0_d_621_230" x="24" y="1" width="58" height="58" filterUnits="userSpaceOnUse" color-interpolation-filters="sRGB">
<feFlood flood-opacity="0" result="BackgroundImageFix"/>
<feColorMatrix in="SourceAlpha" type="matrix" values="0 0 0 0 0 0 0 0 0 0 0 0 0 0 0 0 0 0 127 0" result="hardAlpha"/>
<feOffset dy="4"/>
<feGaussianBlur stdDeviation="2"/>
<feComposite in2="hardAlpha" operator="out"/>
<feColorMatrix type="matrix" values="0 0 0 0 0 0 0 0 0 0 0 0 0 0 0 0 0 0 0.25 0"/>
<feBlend mode="normal" in2="BackgroundImageFix" result="effect1_dropShadow_621_230"/>
<feBlend mode="normal" in="SourceGraphic" in2="effect1_dropShadow_621_230" result="shape"/>
</filter>
<filter id="filter1_d_621_230" x="65" y="77" width="153.537" height="115" filterUnits="userSpaceOnUse" color-interpolation-filters="sRGB">
<feFlood flood-opacity="0" result="BackgroundImageFix"/>
<feColorMatrix in="SourceAlpha" type="matrix" values="0 0 0 0 0 0 0 0 0 0 0 0 0 0 0 0 0 0 127 0" result="hardAlpha"/>
<feOffset dy="4"/>
<feGaussianBlur stdDeviation="2"/>
<feComposite in2="hardAlpha" operator="out"/>
<feColorMatrix type="matrix" values="0 0 0 0 0 0 0 0 0 0 0 0 0 0 0 0 0 0 0.25 0"/>
<feBlend mode="normal" in2="BackgroundImageFix" result="effect1_dropShadow_621_230"/>
<feBlend mode="normal" in="SourceGraphic" in2="effect1_dropShadow_621_230" result="shape"/>
</filter>
</defs>
</svg>
