<svg width="823" height="574" viewBox="0 0 823 574" fill="none" xmlns="http://www.w3.org/2000/svg">
<g filter="url(#filter0_dddddd_621_240)">
<rect x="117" y="90" width="589" height="341" rx="18.6617" fill="white"/>
<path d="M117 109C117 98.5066 125.507 90 136 90H687C697.493 90 706 98.5066 706 109V135H117V109Z" fill="#2617A2"/>
<rect x="136" y="111" width="69" height="5" fill="white"/>
<rect x="262" y="111" width="24" height="5" fill="white"/>
<rect x="308" y="111" width="24" height="5" fill="white"/>
<rect x="354" y="111" width="24" height="5" fill="white"/>
<rect x="400" y="111" width="24" height="5" fill="white"/>
<rect x="618" y="154" width="40" height="14" rx="2" fill="#3B83E4"/>
<rect x="648" y="108" width="10" height="10" fill="white"/>
<rect x="627" y="108" width="10" height="10" fill="white"/>
</g>
<path d="M225 135L225 431L136 431C125.507 431 117 422.493 117 412L117 135L225 135Z" fill="#E6E6E6"/>
<rect x="136" y="177" width="63" height="5" fill="#B4B4B4"/>
<rect x="262" y="188" width="39" height="8" fill="#E5E5E5"/>
<rect x="262" y="152" width="138" height="17" fill="#E5E5E5"/>
<rect x="262" y="202" width="24" height="8" fill="#E5E5E5"/>
<rect x="277" y="247" width="46" height="8" fill="#3B83E4"/>
<rect x="277" y="260" width="32" height="4" fill="#E5E5E5"/>
<rect x="481" y="260" width="32" height="4" fill="#E5E5E5"/>
<rect x="277" y="297" width="162" height="1" fill="#E5E5E5"/>
<rect x="277" y="314" width="162" height="1" fill="#E5E5E5"/>
<rect x="277" y="331" width="162" height="1" fill="#E5E5E5"/>
<rect x="277" y="355" width="162" height="6" fill="#E5E5E5"/>
<rect x="277" y="372" width="162" height="6" fill="#E5E5E5"/>
<rect x="277" y="372" width="162" height="1" fill="#E5E5E5"/>
<rect x="481" y="297" width="162" height="1" fill="#E5E5E5"/>
<rect x="481" y="314" width="162" height="1" fill="#E5E5E5"/>
<rect x="481" y="331" width="162" height="1" fill="#E5E5E5"/>
<rect x="481" y="355" width="162" height="6" fill="#E5E5E5"/>
<rect x="481" y="372" width="162" height="6" fill="#E5E5E5"/>
<rect x="277" y="389" width="162" height="6" fill="#E5E5E5"/>
<rect x="481" y="389" width="162" height="6" fill="#E5E5E5"/>
<rect x="481" y="372" width="162" height="1" fill="#E5E5E5"/>
<rect x="481" y="247" width="46" height="8" fill="#3B83E4"/>
<rect x="319" y="188" width="39" height="8" fill="#E5E5E5"/>
<rect x="319" y="202" width="24" height="8" fill="#E5E5E5"/>
<rect x="376" y="188" width="39" height="8" fill="#E5E5E5"/>
<rect x="376" y="202" width="24" height="8" fill="#E5E5E5"/>
<rect x="433" y="188" width="39" height="8" fill="#E5E5E5"/>
<rect x="433" y="202" width="24" height="8" fill="#E5E5E5"/>
<rect x="490" y="188" width="39" height="8" fill="#E5E5E5"/>
<rect x="490" y="202" width="24" height="8" fill="#E5E5E5"/>
<rect x="136" y="199" width="63" height="5" fill="#B4B4B4"/>
<rect x="136" y="221" width="53" height="5" fill="#B4B4B4"/>
<rect x="136" y="242" width="44" height="5" fill="#B4B4B4"/>
<rect x="136" y="263" width="44" height="5" fill="#B4B4B4"/>
<rect x="136" y="285" width="44" height="5" fill="#B4B4B4"/>
<rect x="136" y="306" width="51" height="5" fill="#B4B4B4"/>
<rect x="136" y="327" width="51" height="5" fill="#B4B4B4"/>
<rect x="136" y="349" width="51" height="5" fill="#B4B4B4"/>
<mask id="path-50-inside-1_621_240" fill="white">
<rect x="262" y="236" width="192" height="169" rx="2"/>
</mask>
<rect x="262" y="236" width="192" height="169" rx="2" stroke="#E5E5E5" stroke-width="8" mask="url(#path-50-inside-1_621_240)"/>
<mask id="path-51-inside-2_621_240" fill="white">
<rect x="466" y="236" width="192" height="169" rx="2"/>
</mask>
<rect x="466" y="236" width="192" height="169" rx="2" stroke="#E5E5E5" stroke-width="8" mask="url(#path-51-inside-2_621_240)"/>
<rect x="306" y="294" width="5" height="20" fill="#3B83E4"/>
<rect x="326" y="300" width="5" height="14" fill="#3B83E4"/>
<rect x="346" y="291" width="5" height="23" fill="#3B83E4"/>
<rect x="366" y="294" width="5" height="20" fill="#3B83E4"/>
<rect x="386" y="300" width="5" height="14" fill="#3B83E4"/>
<rect x="406" y="291" width="5" height="23" fill="#3B83E4"/>
<rect x="411" y="320" width="5" height="5" transform="rotate(-180 411 320)" fill="#2617A2"/>
<rect x="391" y="319" width="5" height="4" transform="rotate(-180 391 319)" fill="#2617A2"/>
<rect x="371" y="321" width="5" height="6" transform="rotate(-180 371 321)" fill="#2617A2"/>
<rect x="351" y="320" width="5" height="5" transform="rotate(-180 351 320)" fill="#2617A2"/>
<rect x="331" y="319" width="5" height="4" transform="rotate(-180 331 319)" fill="#2617A2"/>
<rect x="311" y="321" width="5" height="6" transform="rotate(-180 311 321)" fill="#2617A2"/>
<rect x="517" y="305" width="9" height="2" transform="rotate(90 517 305)" fill="#3B83E4"/>
<rect x="520" y="304" width="10" height="2" transform="rotate(90 520 304)" fill="#3B83E4"/>
<rect x="523" y="302" width="12" height="2" transform="rotate(90 523 302)" fill="#3B83E4"/>
<rect x="526" y="305" width="9" height="2" transform="rotate(90 526 305)" fill="#3B83E4"/>
<rect x="529" y="304" width="10" height="2" transform="rotate(90 529 304)" fill="#3B83E4"/>
<rect x="532" y="302" width="12" height="2" transform="rotate(90 532 302)" fill="#3B83E4"/>
<rect width="12" height="2" transform="matrix(4.37114e-08 1 1 -4.37114e-08 533 302)" fill="#3B83E4"/>
<rect x="538" y="305" width="9" height="2" transform="rotate(90 538 305)" fill="#3B83E4"/>
<rect x="541" y="304" width="10" height="2" transform="rotate(90 541 304)" fill="#3B83E4"/>
<rect x="544" y="302" width="12" height="2" transform="rotate(90 544 302)" fill="#3B83E4"/>
<rect x="547" y="305" width="9" height="2" transform="rotate(90 547 305)" fill="#3B83E4"/>
<rect x="550" y="304" width="10" height="2" transform="rotate(90 550 304)" fill="#3B83E4"/>
<rect x="553" y="302" width="12" height="2" transform="rotate(90 553 302)" fill="#3B83E4"/>
<rect width="12" height="2" transform="matrix(4.37114e-08 1 1 -4.37114e-08 554 302)" fill="#3B83E4"/>
<rect x="559" y="305" width="9" height="2" transform="rotate(90 559 305)" fill="#3B83E4"/>
<rect x="562" y="304" width="10" height="2" transform="rotate(90 562 304)" fill="#3B83E4"/>
<rect x="565" y="302" width="12" height="2" transform="rotate(90 565 302)" fill="#3B83E4"/>
<rect x="568" y="305" width="9" height="2" transform="rotate(90 568 305)" fill="#3B83E4"/>
<rect x="571" y="304" width="10" height="2" transform="rotate(90 571 304)" fill="#3B83E4"/>
<rect x="574" y="302" width="12" height="2" transform="rotate(90 574 302)" fill="#3B83E4"/>
<rect width="12" height="2" transform="matrix(4.37114e-08 1 1 -4.37114e-08 575 302)" fill="#3B83E4"/>
<rect x="580" y="305" width="9" height="2" transform="rotate(90 580 305)" fill="#3B83E4"/>
<rect x="583" y="304" width="10" height="2" transform="rotate(90 583 304)" fill="#3B83E4"/>
<rect x="586" y="302" width="12" height="2" transform="rotate(90 586 302)" fill="#3B83E4"/>
<rect x="589" y="305" width="9" height="2" transform="rotate(90 589 305)" fill="#3B83E4"/>
<rect x="592" y="304" width="10" height="2" transform="rotate(90 592 304)" fill="#3B83E4"/>
<rect x="595" y="302" width="12" height="2" transform="rotate(90 595 302)" fill="#3B83E4"/>
<rect x="601" y="304" width="10" height="2" transform="rotate(90 601 304)" fill="#3B83E4"/>
<rect x="604" y="302" width="12" height="2" transform="rotate(90 604 302)" fill="#3B83E4"/>
<rect width="12" height="2" transform="matrix(4.37114e-08 1 1 -4.37114e-08 596 302)" fill="#3B83E4"/>
<rect x="602" y="321" width="6" height="2" transform="rotate(-90 602 321)" fill="#2617A2"/>
<rect x="599" y="322" width="7" height="2" transform="rotate(-90 599 322)" fill="#2617A2"/>
<rect x="596" y="323" width="7.9993" height="2" transform="rotate(-90 596 323)" fill="#2617A2"/>
<rect x="593" y="321" width="6" height="2" transform="rotate(-90 593 321)" fill="#2617A2"/>
<rect x="590" y="322" width="7" height="2" transform="rotate(-90 590 322)" fill="#2617A2"/>
<rect x="587" y="323" width="7.9993" height="2" transform="rotate(-90 587 323)" fill="#2617A2"/>
<rect width="6" height="2" transform="matrix(-3.27864e-08 -1 -1 -7.15215e-08 580 321)" fill="#2617A2"/>
<rect width="7" height="2" transform="matrix(-3.27864e-08 -1 -1 -7.15215e-08 583 322)" fill="#2617A2"/>
<rect width="7.9993" height="2" transform="matrix(4.37152e-08 -1 -1 -4.37076e-08 586 323)" fill="#2617A2"/>
<rect width="3" height="2" transform="matrix(-1.16013e-07 -1 -1 -7.80234e-08 571 318)" fill="#2617A2"/>
<rect width="4.00018" height="2" transform="matrix(-1.16013e-07 -1 -1 -7.80234e-08 574 319)" fill="#2617A2"/>
<rect width="5" height="2" transform="matrix(-1.16013e-07 -1 -1 -7.80234e-08 577 320)" fill="#2617A2"/>
<rect x="566" y="319" width="4" height="2" transform="rotate(-90 566 319)" fill="#2617A2"/>
<rect x="563" y="319" width="4" height="2" transform="rotate(-90 563 319)" fill="#2617A2"/>
<rect x="560" y="320" width="5" height="2" transform="rotate(-90 560 320)" fill="#2617A2"/>
<rect x="557" y="321" width="6" height="2" transform="rotate(-90 557 321)" fill="#2617A2"/>
<rect x="554" y="322" width="7" height="2" transform="rotate(-90 554 322)" fill="#2617A2"/>
<rect x="551" y="323" width="7.9993" height="2" transform="rotate(-90 551 323)" fill="#2617A2"/>
<rect x="548" y="321" width="6" height="2" transform="rotate(-90 548 321)" fill="#2617A2"/>
<rect x="545" y="322" width="7" height="2" transform="rotate(-90 545 322)" fill="#2617A2"/>
<rect x="542" y="323" width="7.9993" height="2" transform="rotate(-90 542 323)" fill="#2617A2"/>
<rect width="6" height="2" transform="matrix(-3.27864e-08 -1 -1 -7.15215e-08 535 321)" fill="#2617A2"/>
<rect width="7" height="2" transform="matrix(-3.27864e-08 -1 -1 -7.15215e-08 538 322)" fill="#2617A2"/>
<rect width="7.9993" height="2" transform="matrix(4.37152e-08 -1 -1 -4.37076e-08 541 323)" fill="#2617A2"/>
<rect width="3" height="2" transform="matrix(-1.16013e-07 -1 -1 -7.80234e-08 526 318)" fill="#2617A2"/>
<rect width="4.00018" height="2" transform="matrix(-1.16013e-07 -1 -1 -7.80234e-08 529 319)" fill="#2617A2"/>
<rect width="5" height="2" transform="matrix(-1.16013e-07 -1 -1 -7.80234e-08 532 320)" fill="#2617A2"/>
<rect x="521" y="319" width="4" height="2" transform="rotate(-90 521 319)" fill="#2617A2"/>
<rect x="518" y="319" width="4" height="2" transform="rotate(-90 518 319)" fill="#2617A2"/>
<rect x="515" y="320" width="5" height="2" transform="rotate(-90 515 320)" fill="#2617A2"/>
<defs>
<filter id="filter0_dddddd_621_240" x="0.788551" y="0.0845718" width="821.423" height="573.423" filterUnits="userSpaceOnUse" color-interpolation-filters="sRGB">
<feFlood flood-opacity="0" result="BackgroundImageFix"/>
<feColorMatrix in="SourceAlpha" type="matrix" values="0 0 0 0 0 0 0 0 0 0 0 0 0 0 0 0 0 0 127 0" result="hardAlpha"/>
<feOffset dy="0.727678"/>
<feGaussianBlur stdDeviation="1.60793"/>
<feColorMatrix type="matrix" values="0 0 0 0 0 0 0 0 0 0 0 0 0 0 0 0 0 0 0.0449833 0"/>
<feBlend mode="normal" in2="BackgroundImageFix" result="effect1_dropShadow_621_240"/>
<feColorMatrix in="SourceAlpha" type="matrix" values="0 0 0 0 0 0 0 0 0 0 0 0 0 0 0 0 0 0 127 0" result="hardAlpha"/>
<feOffset dy="1.74871"/>
<feGaussianBlur stdDeviation="3.86409"/>
<feColorMatrix type="matrix" values="0 0 0 0 0 0 0 0 0 0 0 0 0 0 0 0 0 0 0.0646228 0"/>
<feBlend mode="normal" in2="effect1_dropShadow_621_240" result="effect2_dropShadow_621_240"/>
<feColorMatrix in="SourceAlpha" type="matrix" values="0 0 0 0 0 0 0 0 0 0 0 0 0 0 0 0 0 0 127 0" result="hardAlpha"/>
<feOffset dy="3.29267"/>
<feGaussianBlur stdDeviation="7.27574"/>
<feColorMatrix type="matrix" values="0 0 0 0 0 0 0 0 0 0 0 0 0 0 0 0 0 0 0.08 0"/>
<feBlend mode="normal" in2="effect2_dropShadow_621_240" result="effect3_dropShadow_621_240"/>
<feColorMatrix in="SourceAlpha" type="matrix" values="0 0 0 0 0 0 0 0 0 0 0 0 0 0 0 0 0 0 127 0" result="hardAlpha"/>
<feOffset dy="5.87356"/>
<feGaussianBlur stdDeviation="12.9787"/>
<feColorMatrix type="matrix" values="0 0 0 0 0 0 0 0 0 0 0 0 0 0 0 0 0 0 0.0953772 0"/>
<feBlend mode="normal" in2="effect3_dropShadow_621_240" result="effect4_dropShadow_621_240"/>
<feColorMatrix in="SourceAlpha" type="matrix" values="0 0 0 0 0 0 0 0 0 0 0 0 0 0 0 0 0 0 127 0" result="hardAlpha"/>
<feOffset dy="10.9858"/>
<feGaussianBlur stdDeviation="24.2752"/>
<feColorMatrix type="matrix" values="0 0 0 0 0 0 0 0 0 0 0 0 0 0 0 0 0 0 0.115017 0"/>
<feBlend mode="normal" in2="effect4_dropShadow_621_240" result="effect5_dropShadow_621_240"/>
<feColorMatrix in="SourceAlpha" type="matrix" values="0 0 0 0 0 0 0 0 0 0 0 0 0 0 0 0 0 0 127 0" result="hardAlpha"/>
<feOffset dy="26.296"/>
<feGaussianBlur stdDeviation="58.1057"/>
<feColorMatrix type="matrix" values="0 0 0 0 0 0 0 0 0 0 0 0 0 0 0 0 0 0 0.16 0"/>
<feBlend mode="normal" in2="effect5_dropShadow_621_240" result="effect6_dropShadow_621_240"/>
<feBlend mode="normal" in="SourceGraphic" in2="effect6_dropShadow_621_240" result="shape"/>
</filter>
</defs>
</svg>
