<svg width="589" height="341" viewBox="0 0 589 341" fill="none" xmlns="http://www.w3.org/2000/svg">
<rect width="589" height="341" rx="18.6617" fill="white"/>
<path d="M0 19C0 8.50659 8.50659 0 19 0H570C580.493 0 589 8.50659 589 19V45H0V19Z" fill="#2617A2"/>
<rect x="19" y="21" width="69" height="5" fill="white"/>
<rect x="145" y="21" width="24" height="5" fill="white"/>
<rect x="191" y="21" width="24" height="5" fill="white"/>
<rect x="237" y="21" width="24" height="5" fill="white"/>
<rect x="283" y="21" width="24" height="5" fill="white"/>
<rect x="501" y="64" width="40" height="14" rx="2" fill="#3B83E4"/>
<rect x="531" y="18" width="10" height="10" fill="white"/>
<rect x="510" y="18" width="10" height="10" fill="white"/>
<path d="M108 45L108 341L19 341C8.50659 341 2.69205e-06 332.493 3.15073e-06 322L1.52588e-05 45L108 45Z" fill="#E6E6E6"/>
<rect x="19" y="87" width="63" height="5" fill="#B4B4B4"/>
<rect x="145" y="98" width="39" height="8" fill="#E5E5E5"/>
<rect x="145" y="62" width="138" height="17" fill="#E5E5E5"/>
<rect x="145" y="112" width="24" height="8" fill="#E5E5E5"/>
<rect x="160" y="157" width="46" height="8" fill="#3B83E4"/>
<rect x="160" y="170" width="32" height="4" fill="#E5E5E5"/>
<rect x="364" y="170" width="32" height="4" fill="#E5E5E5"/>
<rect x="160" y="207" width="162" height="1" fill="#E5E5E5"/>
<rect x="160" y="224" width="162" height="1" fill="#E5E5E5"/>
<rect x="160" y="241" width="162" height="1" fill="#E5E5E5"/>
<rect x="160" y="265" width="162" height="6" fill="#E5E5E5"/>
<rect x="160" y="282" width="162" height="6" fill="#E5E5E5"/>
<rect x="160" y="282" width="162" height="1" fill="#E5E5E5"/>
<rect x="364" y="207" width="162" height="1" fill="#E5E5E5"/>
<rect x="364" y="224" width="162" height="1" fill="#E5E5E5"/>
<rect x="364" y="241" width="162" height="1" fill="#E5E5E5"/>
<rect x="364" y="265" width="162" height="6" fill="#E5E5E5"/>
<rect x="364" y="282" width="162" height="6" fill="#E5E5E5"/>
<rect x="160" y="299" width="162" height="6" fill="#E5E5E5"/>
<rect x="364" y="299" width="162" height="6" fill="#E5E5E5"/>
<rect x="364" y="282" width="162" height="1" fill="#E5E5E5"/>
<rect x="364" y="157" width="46" height="8" fill="#3B83E4"/>
<rect x="202" y="98" width="39" height="8" fill="#E5E5E5"/>
<rect x="202" y="112" width="24" height="8" fill="#E5E5E5"/>
<rect x="259" y="98" width="39" height="8" fill="#E5E5E5"/>
<rect x="259" y="112" width="24" height="8" fill="#E5E5E5"/>
<rect x="316" y="98" width="39" height="8" fill="#E5E5E5"/>
<rect x="316" y="112" width="24" height="8" fill="#E5E5E5"/>
<rect x="373" y="98" width="39" height="8" fill="#E5E5E5"/>
<rect x="373" y="112" width="24" height="8" fill="#E5E5E5"/>
<rect x="19" y="109" width="63" height="5" fill="#B4B4B4"/>
<rect x="19" y="131" width="53" height="5" fill="#B4B4B4"/>
<rect x="19" y="152" width="44" height="5" fill="#B4B4B4"/>
<rect x="19" y="173" width="44" height="5" fill="#B4B4B4"/>
<rect x="19" y="195" width="44" height="5" fill="#B4B4B4"/>
<rect x="19" y="216" width="51" height="5" fill="#B4B4B4"/>
<rect x="19" y="237" width="51" height="5" fill="#B4B4B4"/>
<rect x="19" y="259" width="51" height="5" fill="#B4B4B4"/>
<mask id="path-50-inside-1_621_240" fill="white">
<rect x="145" y="146" width="192" height="169" rx="2"/>
</mask>
<rect x="145" y="146" width="192" height="169" rx="2" stroke="#E5E5E5" stroke-width="8" mask="url(#path-50-inside-1_621_240)"/>
<mask id="path-51-inside-2_621_240" fill="white">
<rect x="349" y="146" width="192" height="169" rx="2"/>
</mask>
<rect x="349" y="146" width="192" height="169" rx="2" stroke="#E5E5E5" stroke-width="8" mask="url(#path-51-inside-2_621_240)"/>
<rect x="189" y="204" width="5" height="20" fill="#3B83E4"/>
<rect x="209" y="210" width="5" height="14" fill="#3B83E4"/>
<rect x="229" y="201" width="5" height="23" fill="#3B83E4"/>
<rect x="249" y="204" width="5" height="20" fill="#3B83E4"/>
<rect x="269" y="210" width="5" height="14" fill="#3B83E4"/>
<rect x="289" y="201" width="5" height="23" fill="#3B83E4"/>
<rect x="294" y="230" width="5" height="5" transform="rotate(-180 294 230)" fill="#2617A2"/>
<rect x="274" y="229" width="5" height="4" transform="rotate(-180 274 229)" fill="#2617A2"/>
<rect x="254" y="231" width="5" height="6" transform="rotate(-180 254 231)" fill="#2617A2"/>
<rect x="234" y="230" width="5" height="5" transform="rotate(-180 234 230)" fill="#2617A2"/>
<rect x="214" y="229" width="5" height="4" transform="rotate(-180 214 229)" fill="#2617A2"/>
<rect x="194" y="231" width="5" height="6" transform="rotate(-180 194 231)" fill="#2617A2"/>
<rect x="400" y="215" width="9" height="2" transform="rotate(90 400 215)" fill="#3B83E4"/>
<rect x="403" y="214" width="10" height="2" transform="rotate(90 403 214)" fill="#3B83E4"/>
<rect x="406" y="212" width="12" height="2" transform="rotate(90 406 212)" fill="#3B83E4"/>
<rect x="409" y="215" width="9" height="2" transform="rotate(90 409 215)" fill="#3B83E4"/>
<rect x="412" y="214" width="10" height="2" transform="rotate(90 412 214)" fill="#3B83E4"/>
<rect x="415" y="212" width="12" height="2" transform="rotate(90 415 212)" fill="#3B83E4"/>
<rect width="12" height="2" transform="matrix(4.37114e-08 1 1 -4.37114e-08 416 212)" fill="#3B83E4"/>
<rect x="421" y="215" width="9" height="2" transform="rotate(90 421 215)" fill="#3B83E4"/>
<rect x="424" y="214" width="10" height="2" transform="rotate(90 424 214)" fill="#3B83E4"/>
<rect x="427" y="212" width="12" height="2" transform="rotate(90 427 212)" fill="#3B83E4"/>
<rect x="430" y="215" width="9" height="2" transform="rotate(90 430 215)" fill="#3B83E4"/>
<rect x="433" y="214" width="10" height="2" transform="rotate(90 433 214)" fill="#3B83E4"/>
<rect x="436" y="212" width="12" height="2" transform="rotate(90 436 212)" fill="#3B83E4"/>
<rect width="12" height="2" transform="matrix(4.37114e-08 1 1 -4.37114e-08 437 212)" fill="#3B83E4"/>
<rect x="442" y="215" width="9" height="2" transform="rotate(90 442 215)" fill="#3B83E4"/>
<rect x="445" y="214" width="10" height="2" transform="rotate(90 445 214)" fill="#3B83E4"/>
<rect x="448" y="212" width="12" height="2" transform="rotate(90 448 212)" fill="#3B83E4"/>
<rect x="451" y="215" width="9" height="2" transform="rotate(90 451 215)" fill="#3B83E4"/>
<rect x="454" y="214" width="10" height="2" transform="rotate(90 454 214)" fill="#3B83E4"/>
<rect x="457" y="212" width="12" height="2" transform="rotate(90 457 212)" fill="#3B83E4"/>
<rect width="12" height="2" transform="matrix(4.37114e-08 1 1 -4.37114e-08 458 212)" fill="#3B83E4"/>
<rect x="463" y="215" width="9" height="2" transform="rotate(90 463 215)" fill="#3B83E4"/>
<rect x="466" y="214" width="10" height="2" transform="rotate(90 466 214)" fill="#3B83E4"/>
<rect x="469" y="212" width="12" height="2" transform="rotate(90 469 212)" fill="#3B83E4"/>
<rect x="472" y="215" width="9" height="2" transform="rotate(90 472 215)" fill="#3B83E4"/>
<rect x="475" y="214" width="10" height="2" transform="rotate(90 475 214)" fill="#3B83E4"/>
<rect x="478" y="212" width="12" height="2" transform="rotate(90 478 212)" fill="#3B83E4"/>
<rect x="484" y="214" width="10" height="2" transform="rotate(90 484 214)" fill="#3B83E4"/>
<rect x="487" y="212" width="12" height="2" transform="rotate(90 487 212)" fill="#3B83E4"/>
<rect width="12" height="2" transform="matrix(4.37114e-08 1 1 -4.37114e-08 479 212)" fill="#3B83E4"/>
<rect x="485" y="231" width="6" height="2" transform="rotate(-90 485 231)" fill="#2617A2"/>
<rect x="482" y="232" width="7" height="2" transform="rotate(-90 482 232)" fill="#2617A2"/>
<rect x="479" y="233" width="7.9993" height="2" transform="rotate(-90 479 233)" fill="#2617A2"/>
<rect x="476" y="231" width="6" height="2" transform="rotate(-90 476 231)" fill="#2617A2"/>
<rect x="473" y="232" width="7" height="2" transform="rotate(-90 473 232)" fill="#2617A2"/>
<rect x="470" y="233" width="7.9993" height="2" transform="rotate(-90 470 233)" fill="#2617A2"/>
<rect width="6" height="2" transform="matrix(-3.27864e-08 -1 -1 -7.15215e-08 463 231)" fill="#2617A2"/>
<rect width="7" height="2" transform="matrix(-3.27864e-08 -1 -1 -7.15215e-08 466 232)" fill="#2617A2"/>
<rect width="7.9993" height="2" transform="matrix(4.37152e-08 -1 -1 -4.37076e-08 469 233)" fill="#2617A2"/>
<rect width="3" height="2" transform="matrix(-1.16013e-07 -1 -1 -7.80234e-08 454 228)" fill="#2617A2"/>
<rect width="4.00018" height="2" transform="matrix(-1.16013e-07 -1 -1 -7.80234e-08 457 229)" fill="#2617A2"/>
<rect width="5" height="2" transform="matrix(-1.16013e-07 -1 -1 -7.80234e-08 460 230)" fill="#2617A2"/>
<rect x="449" y="229" width="4" height="2" transform="rotate(-90 449 229)" fill="#2617A2"/>
<rect x="446" y="229" width="4" height="2" transform="rotate(-90 446 229)" fill="#2617A2"/>
<rect x="443" y="230" width="5" height="2" transform="rotate(-90 443 230)" fill="#2617A2"/>
<rect x="440" y="231" width="6" height="2" transform="rotate(-90 440 231)" fill="#2617A2"/>
<rect x="437" y="232" width="7" height="2" transform="rotate(-90 437 232)" fill="#2617A2"/>
<rect x="434" y="233" width="7.9993" height="2" transform="rotate(-90 434 233)" fill="#2617A2"/>
<rect x="431" y="231" width="6" height="2" transform="rotate(-90 431 231)" fill="#2617A2"/>
<rect x="428" y="232" width="7" height="2" transform="rotate(-90 428 232)" fill="#2617A2"/>
<rect x="425" y="233" width="7.9993" height="2" transform="rotate(-90 425 233)" fill="#2617A2"/>
<rect width="6" height="2" transform="matrix(-3.27864e-08 -1 -1 -7.15215e-08 418 231)" fill="#2617A2"/>
<rect width="7" height="2" transform="matrix(-3.27864e-08 -1 -1 -7.15215e-08 421 232)" fill="#2617A2"/>
<rect width="7.9993" height="2" transform="matrix(4.37152e-08 -1 -1 -4.37076e-08 424 233)" fill="#2617A2"/>
<rect width="3" height="2" transform="matrix(-1.16013e-07 -1 -1 -7.80234e-08 409 228)" fill="#2617A2"/>
<rect width="4.00018" height="2" transform="matrix(-1.16013e-07 -1 -1 -7.80234e-08 412 229)" fill="#2617A2"/>
<rect width="5" height="2" transform="matrix(-1.16013e-07 -1 -1 -7.80234e-08 415 230)" fill="#2617A2"/>
<rect x="404" y="229" width="4" height="2" transform="rotate(-90 404 229)" fill="#2617A2"/>
<rect x="401" y="229" width="4" height="2" transform="rotate(-90 401 229)" fill="#2617A2"/>
<rect x="398" y="230" width="5" height="2" transform="rotate(-90 398 230)" fill="#2617A2"/>
</svg>
