<svg id="Layer_1" data-name="Layer 1" xmlns="http://www.w3.org/2000/svg" viewBox="0 0 208.08 208"><defs><style>.cls-1{fill:#231f20;}.cls-2{fill:#e7ebf1;}.cls-3{fill:#fff;}</style></defs><title>Artboard 1</title><path class="cls-1" d="M2.88,105A100.73,100.73,0,1,0,103.61,4.25,100.73,100.73,0,0,0,2.88,105"/><path class="cls-2" d="M146.44,158.64v.65h-1.25v3.28h-.78v-3.28h-1.26v-.65Zm4.25,3.93-.15-2.31c0-.31,0-.68,0-1.1h-.05c-.1.34-.21.81-.33,1.17l-.71,2.18h-.81l-.7-2.24c-.08-.3-.19-.77-.28-1.11h0c0,.36,0,.73,0,1.1l-.15,2.31h-.75l.29-3.93h1.17l.68,1.92c.09.3.16.59.26,1h0c.1-.37.18-.7.27-1l.68-1.93h1.13l.3,3.93Z"/><path class="cls-3" d="M79.09,139.3,70.3,124.14,59.54,105.55l-8.27-14.3a3.21,3.21,0,0,0-2.74-1.56,3.17,3.17,0,0,0-2.74,1.57l-6,10.31h0a7.51,7.51,0,0,0-1,3.79,7.64,7.64,0,0,0,1,3.83h0l8.63,14.93h0l10.87,18.78,0,0,.1.17,8.69,15A7.54,7.54,0,0,0,71,161L81.87,142.1A7.62,7.62,0,0,1,79.09,139.3Z"/><path class="cls-3" d="M103.09,105.37,92.18,86.5,81.27,67.63,71,49.79a7.54,7.54,0,0,0-2.81,2.74h0L60.37,66a3.14,3.14,0,0,0-.45,1.61,3.24,3.24,0,0,0,.39,1.52l10,17.36,10.92,18.87,8.71,15,0,0a7.56,7.56,0,0,0,2.77,2.79l6.77-11.73.78-1.34h0Z"/><path class="cls-3" d="M168.26,104.5a7.87,7.87,0,0,0-1-3.68l0-.1L159.5,87.19h0a3.21,3.21,0,0,0-2.74-1.59h0l-20,0-19.95,0h0a3.14,3.14,0,0,1-2.47-1.19l-.29-.4-7-12.22h0a3.32,3.32,0,0,1-.47-1.71,3.56,3.56,0,0,1,3.57-3.38h31.72a3.36,3.36,0,0,0,2.91-5.07h0L139,51.55l0,0a7.6,7.6,0,0,0-6.53-3.69H115l-21.8,0-17.35,0h0a7.57,7.57,0,0,0-3.83,1h0l7.62,13.19h0l2.67,4.66L93.17,85.65l10.91,18.87h49Z"/><path class="cls-3" d="M168.12,105.92h0l-64.18,0L93.63,123.8a7.48,7.48,0,0,0,3.7,1h.09l17.44,0h16.31a3.18,3.18,0,0,1,2.78,4.69l-7.27,12.6a3.19,3.19,0,0,1-2.75,1.58H104l-17.45,0a7.49,7.49,0,0,1-3.79-1L71.85,161.56a7.65,7.65,0,0,0,3.78,1h0l16.77,0h22.47l17.39,0h0a7.61,7.61,0,0,0,6.64-3.89h0l8.65-15,10.86-18.87h0l8.69-15.26h0a7.54,7.54,0,0,0,1-3.69Z"/></svg>