<svg width="229" height="82" viewBox="0 0 229 82" fill="none" xmlns="http://www.w3.org/2000/svg">
<path d="M6 40.9821C6 21.1151 22.1255 5 42.0054 5C61.8852 5 78.0108 21.1151 78.0108 40.9821C78.0108 60.8491 61.8852 76.9643 42.0054 76.9643C22.1255 77 6 60.8849 6 40.9821ZM9.93306 40.9821C9.93306 58.7052 24.3066 73.0337 42.0054 73.0337C59.7399 73.0337 74.0777 58.6695 74.0777 40.9821C74.0777 23.2591 59.7042 8.93052 42.0054 8.93052C24.3066 8.93052 9.93306 23.2948 9.93306 40.9821Z" fill="white"/>
<path d="M93.3496 55.1677C91.7407 55.1677 90.2032 54.8819 88.7015 54.3459C87.2355 53.8099 86.0199 53.0238 85.126 52.0591C84.8757 51.7375 84.7327 51.4516 84.7327 51.1658C84.7327 50.737 84.9472 50.3439 85.3405 49.9866C85.6623 49.7365 85.9841 49.6293 86.3059 49.6293C86.735 49.6293 87.1283 49.8079 87.4501 50.1653C88.0579 50.8799 88.8803 51.4516 89.9172 51.8447C90.9541 52.2377 92.0625 52.4164 93.3139 52.4164C95.1374 52.4164 96.4961 52.0948 97.39 51.4873C98.2839 50.8799 98.7844 50.0581 98.7844 49.0218C98.7844 48.0928 98.3196 47.3067 97.4257 46.6993C96.5318 46.0918 95.0659 45.6273 93.0994 45.3057C90.5608 44.8769 88.6657 44.1623 87.3785 43.1261C86.1271 42.0898 85.4835 40.8749 85.4835 39.4099C85.4835 37.5161 86.2344 36.0511 87.7003 35.0149C89.1663 33.9787 90.9898 33.4427 93.2066 33.4427C94.9229 33.4427 96.4246 33.7285 97.676 34.3002C98.9632 34.872 99.9643 35.6938 100.751 36.73C100.965 37.0516 101.073 37.3732 101.073 37.6233C101.073 38.0521 100.858 38.4094 100.465 38.6596C100.286 38.8025 100.036 38.8382 99.7141 38.8382C99.1777 38.8382 98.7129 38.6596 98.3554 38.2665C97.0682 36.8015 95.3519 36.0868 93.1351 36.0868C91.7049 36.0868 90.5608 36.3727 89.7026 36.9801C88.8445 37.5519 88.4154 38.3022 88.4154 39.1955C88.4154 40.1246 88.8087 40.8749 89.6311 41.4466C90.4535 42.0184 91.8479 42.4471 93.9217 42.8045C96.7106 43.269 98.6772 44.0194 99.8928 45.0913C101.073 46.1275 101.681 47.4496 101.681 49.0218C101.681 50.201 101.323 51.273 100.608 52.202C99.8928 53.131 98.8917 53.8457 97.6403 54.3816C96.4246 54.9176 94.9944 55.1677 93.3496 55.1677ZM115.446 33.4784C117.484 33.4784 119.308 33.9429 120.953 34.9077C122.597 35.8725 123.92 37.1588 124.85 38.8382C125.815 40.4819 126.28 42.3399 126.28 44.3767V53.5241C126.28 53.9529 126.137 54.2744 125.851 54.5603C125.565 54.8461 125.207 54.9891 124.743 54.9891C124.314 54.9891 123.92 54.8462 123.634 54.596C123.348 54.3102 123.205 53.9529 123.205 53.5241V51.2015C122.311 52.4521 121.131 53.4169 119.737 54.1315C118.342 54.8461 116.805 55.2035 115.089 55.2035C113.122 55.2035 111.334 54.739 109.725 53.7742C108.117 52.8094 106.865 51.5231 105.935 49.8794C105.006 48.2357 104.541 46.3777 104.541 44.3767C104.541 42.3399 105.006 40.5176 105.971 38.8382C106.937 37.1588 108.224 35.8725 109.869 34.9077C111.585 33.9429 113.444 33.4784 115.446 33.4784ZM115.446 52.4521C116.912 52.4521 118.271 52.0948 119.451 51.4159C120.631 50.7012 121.596 49.7365 122.276 48.5216C122.955 47.271 123.312 45.9131 123.312 44.3767C123.312 42.8402 122.955 41.4466 122.276 40.2318C121.596 38.9811 120.631 38.0164 119.451 37.3017C118.271 36.5871 116.912 36.2298 115.446 36.2298C113.98 36.2298 112.622 36.5871 111.406 37.3017C110.19 38.0164 109.261 38.9811 108.546 40.2318C107.866 41.4824 107.509 42.8402 107.509 44.3767C107.509 45.9131 107.866 47.3067 108.546 48.5216C109.225 49.7722 110.19 50.737 111.406 51.4159C112.622 52.0948 113.98 52.4521 115.446 52.4521ZM136.756 54.9533C135.183 54.9533 133.896 54.3102 132.895 53.0595C131.894 51.8089 131.393 50.201 131.393 48.2V26.0462C131.393 25.6174 131.536 25.26 131.822 24.9742C132.108 24.6883 132.466 24.5811 132.859 24.5811C133.288 24.5811 133.646 24.7241 133.932 24.9742C134.218 25.26 134.325 25.6174 134.325 26.0462V48.2357C134.325 49.3434 134.54 50.2725 135.004 50.9514C135.469 51.666 136.041 51.9876 136.756 51.9876H137.722C138.115 51.9876 138.437 52.1305 138.651 52.3806C138.902 52.6665 139.009 53.0238 139.009 53.4526C139.009 53.8814 138.83 54.2387 138.508 54.5246C138.187 54.8104 137.757 54.9176 137.257 54.9176H136.756V54.9533ZM152.703 51.9876C153.132 51.9876 153.454 52.1305 153.704 52.4164C153.955 52.7022 154.098 53.0595 154.098 53.5241C154.098 53.9529 153.955 54.2744 153.633 54.5603C153.311 54.8461 152.918 54.9891 152.453 54.9891H151.63C150.236 54.9891 149.02 54.6675 147.912 53.9886C146.804 53.3454 145.981 52.4164 145.373 51.3087C144.765 50.1653 144.444 48.9146 144.444 47.4854V37.0516H141.905C141.476 37.0516 141.154 36.9444 140.904 36.6943C140.654 36.4442 140.546 36.1583 140.546 35.7653C140.546 35.3722 140.654 35.0506 140.904 34.8005C141.154 34.5504 141.476 34.4432 141.905 34.4432H144.444V28.4045C144.444 27.9757 144.587 27.5826 144.837 27.3325C145.123 27.0466 145.481 26.9037 145.91 26.9037C146.339 26.9037 146.696 27.0466 147.018 27.3325C147.304 27.6184 147.447 27.9757 147.447 28.4045V34.4432H151.881C152.31 34.4432 152.632 34.5504 152.882 34.8005C153.132 35.0506 153.239 35.3722 153.239 35.7653C153.239 36.1226 153.132 36.4442 152.882 36.6943C152.632 36.9444 152.31 37.0516 151.881 37.0516H147.483V47.4496C147.483 48.7717 147.876 49.8437 148.663 50.7012C149.449 51.5588 150.451 51.9519 151.666 51.9519H152.703V51.9876ZM169.437 33.4784C171.403 33.4784 173.191 33.9429 174.8 34.9077C176.409 35.8725 177.66 37.1588 178.59 38.8025C179.519 40.4462 179.984 42.3042 179.984 44.3052C179.984 46.3419 179.519 48.1643 178.554 49.8437C177.589 51.5231 176.301 52.8094 174.657 53.7742C173.012 54.739 171.153 55.2035 169.15 55.2035C167.112 55.2035 165.289 54.739 163.644 53.7742C161.999 52.8094 160.712 51.5231 159.747 49.8437C158.781 48.2 158.317 46.3419 158.317 44.3052V35.1578C158.317 35.0149 158.317 34.872 158.352 34.8005V26.0819C158.352 25.6531 158.495 25.26 158.746 25.0099C159.032 24.7241 159.389 24.5811 159.818 24.5811C160.247 24.5811 160.641 24.7241 160.927 25.0099C161.213 25.2958 161.356 25.6531 161.356 26.0819V37.4804C162.25 36.2298 163.43 35.265 164.824 34.5504C166.219 33.8357 167.756 33.4784 169.437 33.4784ZM169.15 52.4521C170.616 52.4521 171.975 52.0948 173.191 51.3801C174.406 50.6655 175.336 49.7007 176.051 48.4501C176.731 47.2352 177.088 45.8417 177.088 44.3052C177.088 42.7687 176.731 41.3752 176.051 40.1603C175.372 38.9097 174.406 37.9449 173.191 37.266C171.975 36.5514 170.652 36.2298 169.15 36.2298C167.112 36.2298 165.36 36.873 163.894 38.1593C162.464 39.4457 161.606 41.1251 161.356 43.1618C161.356 43.2332 161.356 43.3047 161.32 43.3404C161.284 43.5548 161.284 43.8764 161.284 44.3052C161.284 45.8417 161.642 47.2352 162.321 48.4501C163.001 49.7007 163.966 50.6655 165.146 51.3801C166.326 52.0948 167.649 52.4521 169.15 52.4521ZM194.072 55.1677C192.034 55.1677 190.174 54.7032 188.53 53.7742C186.885 52.8452 185.598 51.5588 184.668 49.9151C183.739 48.2715 183.274 46.4134 183.274 44.3767C183.274 42.3399 183.739 40.4819 184.668 38.8025C185.598 37.1231 186.885 35.8367 188.53 34.9077C190.174 33.9787 192.034 33.5141 194.072 33.5141C196.11 33.5141 197.969 33.9787 199.614 34.9077C201.259 35.8367 202.546 37.1231 203.475 38.8025C204.441 40.4819 204.906 42.3042 204.906 44.3767C204.906 46.4134 204.441 48.2715 203.511 49.9151C202.581 51.5588 201.294 52.8452 199.65 53.7742C197.969 54.7032 196.11 55.1677 194.072 55.1677ZM194.072 52.4521C195.573 52.4521 196.932 52.0948 198.112 51.4159C199.292 50.7012 200.257 49.7365 200.901 48.5216C201.58 47.271 201.902 45.9131 201.902 44.3767C201.902 42.8045 201.58 41.4109 200.901 40.196C200.222 38.9454 199.292 37.9806 198.112 37.3017C196.932 36.5871 195.573 36.2655 194.072 36.2655C192.606 36.2655 191.247 36.6228 190.031 37.3017C188.816 38.0164 187.886 38.9811 187.171 40.196C186.492 41.4109 186.134 42.8402 186.134 44.3767C186.134 45.9131 186.492 47.3067 187.171 48.5216C187.85 49.7722 188.816 50.737 190.031 51.4159C191.247 52.0948 192.57 52.4521 194.072 52.4521ZM224.571 52.6308C224.857 52.9881 225 53.3454 225 53.667C225 54.0243 224.857 54.3459 224.607 54.596C224.321 54.8462 224.035 54.9533 223.677 54.9533C223.355 54.9533 223.105 54.9176 222.89 54.8104C222.676 54.7032 222.497 54.5246 222.318 54.2744L215.918 46.1275L209.303 54.4888C209.053 54.8104 208.731 54.9533 208.267 54.9533C207.837 54.9533 207.516 54.8104 207.265 54.5603C207.015 54.3102 206.908 53.9886 206.908 53.6313C206.908 53.2025 207.051 52.8809 207.301 52.595L214.059 44.198L207.623 36.0868C207.373 35.801 207.23 35.4437 207.23 35.0506C207.23 34.6576 207.337 34.336 207.587 34.0859C207.837 33.8357 208.159 33.6928 208.588 33.6928C209.017 33.6928 209.411 33.8357 209.732 34.1573L215.99 42.2328L222.175 34.4074C222.533 33.9429 222.962 33.6928 223.462 33.6928C223.892 33.6928 224.213 33.8357 224.464 34.0859C224.714 34.336 224.821 34.6576 224.821 35.0149C224.821 35.4079 224.678 35.7653 224.392 36.1583L217.92 44.198L224.571 52.6308Z" fill="white"/>
<path d="M57.3443 60.1702V60.3846H56.8795V61.5638H56.5935V60.3846H56.1287V60.1702H57.3443ZM58.846 61.5638L58.8103 60.7419C58.8103 60.6347 58.8103 60.4918 58.8103 60.3489C58.7745 60.4561 58.7388 60.6347 58.703 60.7777L58.4527 61.5638H58.1667L57.8449 60.7419C57.8092 60.6347 57.7734 60.4561 57.7376 60.3489C57.7376 60.4918 57.7376 60.599 57.7376 60.7419L57.7019 61.5638H57.4158L57.5231 60.1702H57.9522L58.2025 60.8491C58.2382 60.9563 58.274 61.0635 58.3097 61.2065C58.3455 61.0635 58.3812 60.9563 58.417 60.8491L58.6673 60.1702H59.0606L59.1678 61.5638H58.846Z" fill="white"/>
<path d="M33.2454 53.2739L30.0989 47.8427L26.2374 41.1965L23.3055 36.0869C23.0909 35.7653 22.7334 35.5151 22.3401 35.5151C21.911 35.5151 21.5535 35.7295 21.3747 36.0869L19.2294 39.7672C19.0148 40.1603 18.8718 40.6248 18.8718 41.1251C18.8718 41.6253 19.0148 42.0898 19.2294 42.4829L22.3043 47.807L26.2016 54.5246L26.2374 54.596L29.3481 59.9558C29.5984 60.3846 29.9559 60.7419 30.3492 60.9921L34.2465 54.2744C33.8175 54.0243 33.4957 53.667 33.2454 53.2739Z" fill="white"/>
<path d="M41.8266 41.1251L37.9293 34.4074L34.032 27.6541L30.3492 21.2581C29.9201 21.5082 29.5983 21.8298 29.3481 22.2228L26.5592 27.0467C26.4519 27.2253 26.4161 27.404 26.4161 27.6184C26.4161 27.797 26.4519 28.0114 26.5592 28.1543L30.1347 34.3717L34.032 41.1251L37.1427 46.4849C37.393 46.9137 37.7148 47.2352 38.1438 47.4854L40.5752 43.3047L40.8612 42.8402L41.8266 41.1251Z" fill="white"/>
<path d="M65.1389 40.8392C65.1389 40.3747 64.9959 39.9102 64.7814 39.5171V39.4814L61.9925 34.6576C61.8137 34.336 61.4204 34.0859 61.0271 34.0859H53.8761H46.7251C46.3675 34.0859 46.0457 33.9072 45.8312 33.6571L45.7239 33.5141L43.1853 29.1548C43.0781 28.9762 43.0065 28.7618 43.0065 28.5474C43.0065 27.8685 43.6144 27.3325 44.2937 27.3325H49.943H55.6281C56.3074 27.3325 56.8438 26.7965 56.8438 26.1176C56.8438 25.9032 56.7723 25.6888 56.665 25.5102L54.5912 21.9012C54.1264 21.1151 53.2682 20.5792 52.2671 20.5792H46.0457H38.2511H32.0655C31.5649 20.5792 31.1001 20.7221 30.7068 20.9365L33.4242 25.6531L34.3896 27.3325L38.2869 34.0859L42.1842 40.8392H50.8727H57.7734H59.7042H65.1389Z" fill="white"/>
<path d="M65.0674 41.3395H42.1127L38.4299 47.7355C38.8232 47.9499 39.288 48.0928 39.7528 48.0928H39.7886H46.01H51.838C52.4816 48.0928 52.9822 48.5931 52.9822 49.2362C52.9822 49.4149 52.9465 49.6293 52.8392 49.7722L50.2291 54.2744C50.0145 54.596 49.657 54.8462 49.2637 54.8462H42.1127H35.8913C35.3907 54.8462 34.9259 54.7032 34.5326 54.4888L30.671 61.2065C31.0643 61.4208 31.5291 61.5638 32.0297 61.5638H38.0366H38.2869H46.0457H52.2671C53.304 61.5638 54.1621 60.9921 54.6269 60.1702L57.7019 54.8104L61.5992 48.0571L64.7099 42.5901C64.9602 42.2685 65.0674 41.804 65.0674 41.3395Z" fill="white"/>
</svg>
