<svg width="229" height="82" viewBox="0 0 229 82" fill="none" xmlns="http://www.w3.org/2000/svg">
<path d="M92.3943 55.2123C90.7853 55.2123 89.2479 54.9265 87.7462 54.3905C86.2802 53.8545 85.0645 53.0684 84.1707 52.1036C83.9204 51.782 83.7773 51.4962 83.7773 51.2103C83.7773 50.7816 83.9919 50.3885 84.3852 50.0312C84.707 49.7811 85.0288 49.6739 85.3506 49.6739C85.7796 49.6739 86.1729 49.8525 86.4947 50.2098C87.1026 50.9245 87.9249 51.4962 88.9618 51.8892C89.9987 52.2823 91.1071 52.461 92.3586 52.461C94.1821 52.461 95.5408 52.1394 96.4347 51.5319C97.3285 50.9245 97.8291 50.1026 97.8291 49.0664C97.8291 48.1374 97.3643 47.3513 96.4704 46.7438C95.5765 46.1364 94.1106 45.6719 92.144 45.3503C89.6054 44.9215 87.7104 44.2069 86.4232 43.1706C85.1718 42.1344 84.5282 40.9195 84.5282 39.4545C84.5282 37.5607 85.2791 36.0957 86.745 35.0595C88.211 34.0232 90.0345 33.4873 92.2513 33.4873C93.9675 33.4873 95.4693 33.7731 96.7207 34.3448C98.0079 34.9165 99.009 35.7384 99.7956 36.7746C100.01 37.0962 100.117 37.4178 100.117 37.6679C100.117 38.0967 99.9029 38.454 99.5096 38.7041C99.3308 38.8471 99.0805 38.8828 98.7587 38.8828C98.2224 38.8828 97.7576 38.7041 97.4 38.3111C96.1129 36.8461 94.3966 36.1314 92.1798 36.1314C90.7496 36.1314 89.6054 36.4173 88.7473 37.0247C87.8892 37.5964 87.4601 38.3468 87.4601 39.2401C87.4601 40.1691 87.8534 40.9195 88.6758 41.4912C89.4982 42.0629 90.8926 42.4917 92.9664 42.8491C95.7553 43.3136 97.7218 44.0639 98.9375 45.1359C100.117 46.1721 100.725 47.4942 100.725 49.0664C100.725 50.2456 100.368 51.3175 99.6526 52.2466C98.9375 53.1756 97.9364 53.8902 96.6849 54.4262C95.4693 54.9622 94.0391 55.2123 92.3943 55.2123ZM114.491 33.523C116.529 33.523 118.353 33.9875 119.997 34.9523C121.642 35.917 122.965 37.2034 123.895 38.8828C124.86 40.5265 125.325 42.3845 125.325 44.4213V53.5687C125.325 53.9974 125.182 54.319 124.896 54.6049C124.61 54.8907 124.252 55.0337 123.787 55.0337C123.358 55.0337 122.965 54.8907 122.679 54.6406C122.393 54.3548 122.25 53.9974 122.25 53.5687V51.2461C121.356 52.4967 120.176 53.4615 118.782 54.1761C117.387 54.8907 115.85 55.2481 114.133 55.2481C112.167 55.2481 110.379 54.7835 108.77 53.8188C107.161 52.854 105.91 51.5677 104.98 49.924C104.05 48.2803 103.586 46.4223 103.586 44.4213C103.586 42.3845 104.05 40.5622 105.016 38.8828C105.981 37.2034 107.268 35.917 108.913 34.9523C110.629 33.9875 112.489 33.523 114.491 33.523ZM114.491 52.4967C115.957 52.4967 117.316 52.1394 118.496 51.4605C119.675 50.7458 120.641 49.7811 121.32 48.5662C122 47.3156 122.357 45.9577 122.357 44.4213C122.357 42.8848 122 41.4912 121.32 40.2763C120.641 39.0257 119.675 38.061 118.496 37.3463C117.316 36.6317 115.957 36.2744 114.491 36.2744C113.025 36.2744 111.666 36.6317 110.451 37.3463C109.235 38.061 108.305 39.0257 107.59 40.2763C106.911 41.527 106.553 42.8848 106.553 44.4213C106.553 45.9577 106.911 47.3513 107.59 48.5662C108.27 49.8168 109.235 50.7816 110.451 51.4605C111.666 52.1394 113.025 52.4967 114.491 52.4967ZM135.801 54.9979C134.228 54.9979 132.941 54.3548 131.939 53.1041C130.938 51.8535 130.438 50.2456 130.438 48.2446V26.0907C130.438 25.662 130.581 25.3046 130.867 25.0188C131.153 24.7329 131.51 24.6257 131.904 24.6257C132.333 24.6257 132.69 24.7687 132.976 25.0188C133.262 25.3046 133.37 25.662 133.37 26.0907V48.2803C133.37 49.388 133.584 50.317 134.049 50.9959C134.514 51.7106 135.086 52.0322 135.801 52.0322H136.766C137.16 52.0322 137.482 52.1751 137.696 52.4252C137.946 52.7111 138.054 53.0684 138.054 53.4972C138.054 53.926 137.875 54.2833 137.553 54.5691C137.231 54.855 136.802 54.9622 136.302 54.9622H135.801V54.9979ZM151.748 52.0322C152.177 52.0322 152.499 52.1751 152.749 52.461C152.999 52.7468 153.142 53.1041 153.142 53.5687C153.142 53.9974 152.999 54.319 152.677 54.6049C152.356 54.8907 151.962 55.0337 151.498 55.0337H150.675C149.281 55.0337 148.065 54.7121 146.957 54.0332C145.848 53.39 145.026 52.461 144.418 51.3533C143.81 50.2098 143.488 48.9592 143.488 47.5299V37.0962H140.95C140.521 37.0962 140.199 36.989 139.949 36.7389C139.698 36.4888 139.591 36.2029 139.591 35.8098C139.591 35.4168 139.698 35.0952 139.949 34.8451C140.199 34.595 140.521 34.4878 140.95 34.4878H143.488V28.4491C143.488 28.0203 143.631 27.6272 143.882 27.3771C144.168 27.0912 144.525 26.9483 144.954 26.9483C145.383 26.9483 145.741 27.0912 146.063 27.3771C146.349 27.6629 146.492 28.0203 146.492 28.4491V34.4878H150.925C151.354 34.4878 151.676 34.595 151.927 34.8451C152.177 35.0952 152.284 35.4168 152.284 35.8098C152.284 36.1672 152.177 36.4888 151.927 36.7389C151.676 36.989 151.354 37.0962 150.925 37.0962H146.528V47.4942C146.528 48.8163 146.921 49.8883 147.707 50.7458C148.494 51.6034 149.495 51.9964 150.711 51.9964H151.748V52.0322ZM168.481 33.523C170.448 33.523 172.235 33.9875 173.844 34.9523C175.453 35.917 176.705 37.2034 177.634 38.8471C178.564 40.4907 179.029 42.3488 179.029 44.3498C179.029 46.3865 178.564 48.2089 177.599 49.8883C176.633 51.5677 175.346 52.854 173.701 53.8188C172.057 54.7835 170.197 55.2481 168.195 55.2481C166.157 55.2481 164.334 54.7835 162.689 53.8188C161.044 52.854 159.757 51.5677 158.792 49.8883C157.826 48.2446 157.361 46.3865 157.361 44.3498V35.2024C157.361 35.0595 157.361 34.9165 157.397 34.8451V26.1265C157.397 25.6977 157.54 25.3046 157.79 25.0545C158.076 24.7687 158.434 24.6257 158.863 24.6257C159.292 24.6257 159.685 24.7687 159.971 25.0545C160.258 25.3404 160.401 25.6977 160.401 26.1265V37.525C161.294 36.2744 162.474 35.3096 163.869 34.595C165.263 33.8803 166.801 33.523 168.481 33.523ZM168.195 52.4967C169.661 52.4967 171.02 52.1394 172.235 51.4247C173.451 50.7101 174.381 49.7453 175.096 48.4947C175.775 47.2798 176.133 45.8863 176.133 44.3498C176.133 42.8133 175.775 41.4198 175.096 40.2049C174.417 38.9543 173.451 37.9895 172.235 37.3106C171.02 36.596 169.697 36.2744 168.195 36.2744C166.157 36.2744 164.405 36.9175 162.939 38.2039C161.509 39.4902 160.651 41.1696 160.401 43.2064C160.401 43.2778 160.401 43.3493 160.365 43.385C160.329 43.5994 160.329 43.921 160.329 44.3498C160.329 45.8863 160.687 47.2798 161.366 48.4947C162.045 49.7453 163.011 50.7101 164.191 51.4247C165.37 52.1394 166.693 52.4967 168.195 52.4967ZM193.116 55.2123C191.078 55.2123 189.219 54.7478 187.574 53.8188C185.93 52.8897 184.642 51.6034 183.713 49.9597C182.783 48.316 182.318 46.458 182.318 44.4213C182.318 42.3845 182.783 40.5265 183.713 38.8471C184.642 37.1677 185.93 35.8813 187.574 34.9523C189.219 34.0232 191.078 33.5587 193.116 33.5587C195.154 33.5587 197.014 34.0232 198.658 34.9523C200.303 35.8813 201.59 37.1677 202.52 38.8471C203.485 40.5265 203.95 42.3488 203.95 44.4213C203.95 46.458 203.485 48.316 202.556 49.9597C201.626 51.6034 200.339 52.8897 198.694 53.8188C197.014 54.7478 195.154 55.2123 193.116 55.2123ZM193.116 52.4967C194.618 52.4967 195.977 52.1394 197.157 51.4605C198.337 50.7458 199.302 49.7811 199.946 48.5662C200.625 47.3156 200.947 45.9577 200.947 44.4213C200.947 42.849 200.625 41.4555 199.946 40.2406C199.266 38.99 198.337 38.0252 197.157 37.3463C195.977 36.6317 194.618 36.3101 193.116 36.3101C191.65 36.3101 190.292 36.6674 189.076 37.3463C187.86 38.061 186.931 39.0257 186.216 40.2406C185.536 41.4555 185.179 42.8848 185.179 44.4213C185.179 45.9577 185.536 47.3513 186.216 48.5662C186.895 49.8168 187.86 50.7816 189.076 51.4605C190.292 52.1394 191.615 52.4967 193.116 52.4967ZM223.616 52.6754C223.902 53.0327 224.045 53.39 224.045 53.7116C224.045 54.0689 223.902 54.3905 223.651 54.6406C223.365 54.8907 223.079 54.9979 222.722 54.9979C222.4 54.9979 222.15 54.9622 221.935 54.855C221.721 54.7478 221.542 54.5691 221.363 54.319L214.963 46.1721L208.348 54.5334C208.098 54.855 207.776 54.9979 207.311 54.9979C206.882 54.9979 206.56 54.855 206.31 54.6049C206.06 54.3548 205.953 54.0332 205.953 53.6758C205.953 53.2471 206.096 52.9255 206.346 52.6396L213.104 44.2426L206.668 36.1314C206.417 35.8456 206.274 35.4883 206.274 35.0952C206.274 34.7022 206.382 34.3806 206.632 34.1304C206.882 33.8803 207.204 33.7374 207.633 33.7374C208.062 33.7374 208.455 33.8803 208.777 34.2019L215.034 42.2773L221.22 34.452C221.577 33.9875 222.007 33.7374 222.507 33.7374C222.936 33.7374 223.258 33.8803 223.508 34.1304C223.759 34.3806 223.866 34.7022 223.866 35.0595C223.866 35.4525 223.723 35.8098 223.437 36.2029L216.965 44.2426L223.616 52.6754Z" fill="#192129"/>
<path d="M5 41.0223C5 60.9114 21.1331 77.0445 41.0223 77.0445C60.9114 77.0445 77.0445 60.9114 77.0445 41.0223C77.0803 21.1331 60.9472 5 41.0223 5C21.1331 5 5 21.1331 5 41.0223Z" fill="url(#paint0_linear)"/>
<path d="M56.3686 60.2318V60.4464H55.9036V61.6269H55.6174V60.4464H55.1523V60.2318H56.3686ZM57.871 61.6269L57.8352 60.8041C57.8352 60.6968 57.8352 60.5537 57.8352 60.4106C57.7995 60.5179 57.7637 60.6968 57.7279 60.8399L57.4775 61.6269H57.1913L56.8694 60.8041C56.8336 60.6968 56.7979 60.5179 56.7621 60.4106C56.7621 60.5537 56.7621 60.661 56.7621 60.8041L56.7263 61.6269H56.4401L56.5475 60.2318H56.9767L57.2271 60.9114C57.2629 61.0187 57.2987 61.126 57.3344 61.2691C57.3702 61.126 57.406 61.0187 57.4417 60.9114L57.6921 60.2318H58.0856L58.193 61.6269H57.871Z" fill="#E7EBF1"/>
<path d="M32.2582 53.3278L29.1103 47.8905L25.2469 41.2369L22.3136 36.1215C22.099 35.7996 21.7413 35.5492 21.3478 35.5492C20.9185 35.5492 20.5608 35.7638 20.382 36.1215L18.2356 39.806C18.021 40.1995 17.8779 40.6646 17.8779 41.1654C17.8779 41.6662 18.021 42.1312 18.2356 42.5247L21.312 47.8547L25.2112 54.5798L25.2469 54.6514L28.3591 60.0171C28.6095 60.4464 28.9672 60.8041 29.3607 61.0545L33.2598 54.3294C32.8306 54.079 32.5086 53.7213 32.2582 53.3278Z" fill="#EDF2F7"/>
<path d="M40.8435 41.1654L36.9443 34.4402L33.0452 27.6794L29.3607 21.2762C28.9314 21.5266 28.6095 21.8485 28.3591 22.242L25.5689 27.0712C25.4616 27.2501 25.4258 27.429 25.4258 27.6436C25.4258 27.8225 25.4616 28.0371 25.5689 28.1802L29.1461 34.4045L33.0452 41.1654L36.1573 46.5311C36.4077 46.9604 36.7297 47.2824 37.159 47.5328L39.5914 43.3474L39.8776 42.8824L40.8435 41.1654Z" fill="#EDF2F7"/>
<path d="M64.1668 40.8792C64.1668 40.4141 64.0237 39.9491 63.8091 39.5556V39.5198L61.0189 34.6906C60.84 34.3687 60.4465 34.1183 60.053 34.1183H52.8987H45.7443C45.3866 34.1183 45.0646 33.9394 44.85 33.689L44.7427 33.5459L42.2029 29.1818C42.0956 29.0029 42.024 28.7883 42.024 28.5737C42.024 27.894 42.6321 27.3574 43.3118 27.3574H48.9638H54.6515C55.3312 27.3574 55.8677 26.8208 55.8677 26.1412C55.8677 25.9265 55.7962 25.7119 55.6889 25.533L53.6141 21.9201C53.1491 21.1331 52.2906 20.5965 51.2889 20.5965H45.0646H37.2664H31.0778C30.577 20.5965 30.112 20.7396 29.7185 20.9542L32.4372 25.6761L33.403 27.3574L37.3021 34.1183L41.2013 40.8792H49.8938H56.7978H58.7295H64.1668Z" fill="white"/>
<path d="M64.0952 41.38H41.1296L37.4451 47.7831C37.8386 47.9978 38.3036 48.1409 38.7687 48.1409H38.8044H45.0287H50.8596C51.5035 48.1409 52.0043 48.6417 52.0043 49.2856C52.0043 49.4644 51.9685 49.6791 51.8612 49.8221L49.2498 54.3294C49.0352 54.6513 48.6775 54.9017 48.284 54.9017H41.1296H34.9053C34.4045 54.9017 33.9395 54.7587 33.546 54.544L29.6826 61.2691C30.0761 61.4838 30.5411 61.6269 31.0419 61.6269H37.0516H37.302H45.0645H51.2888C52.3262 61.6269 53.1847 61.0545 53.6498 60.2317L56.7262 54.866L60.6253 48.1051L63.7374 42.632C63.9878 42.3101 64.0952 41.845 64.0952 41.38Z" fill="#DDE6EE"/>
<defs>
<linearGradient id="paint0_linear" x1="4.87851" y1="5" x2="76.923" y2="77.0446" gradientUnits="userSpaceOnUse">
<stop stop-color="#62F4EA"/>
<stop offset="1" stop-color="#4825D4"/>
</linearGradient>
</defs>
</svg>
