<svg width="90" height="90" viewBox="0 0 90 90" fill="none" xmlns="http://www.w3.org/2000/svg">
<path d="M0 44.9777C0 69.8114 20.1439 89.9553 44.9777 89.9553C69.8114 89.9553 89.9553 69.8114 89.9553 44.9777C90 20.1439 69.8561 0 44.9777 0C20.1439 0 0 20.1439 0 44.9777Z" fill="url(#paint0_linear)"/>
<path d="M64.139 68.9628V69.2308H63.5583V70.7047H63.201V69.2308H62.6204V68.9628H64.139ZM66.0149 70.7047L65.9702 69.6774C65.9702 69.5434 65.9702 69.3648 65.9702 69.1861C65.9256 69.3201 65.8809 69.5434 65.8362 69.7221L65.5236 70.7047H65.1663L64.7643 69.6774C64.7196 69.5434 64.675 69.3201 64.6303 69.1861C64.6303 69.3648 64.6303 69.4988 64.6303 69.6774L64.5856 70.7047H64.2283L64.3623 68.9628H64.8983L65.2109 69.8114C65.2556 69.9454 65.3003 70.0794 65.3449 70.2581C65.3896 70.0794 65.4343 69.9454 65.4789 69.8114L65.7916 68.9628H66.2829L66.4169 70.7047H66.0149Z" fill="#E7EBF1"/>
<path d="M34.0347 60.3424L30.1042 53.5533L25.2803 45.2457L21.6178 38.8586C21.3498 38.4566 20.9032 38.1439 20.4119 38.1439C19.8759 38.1439 19.4292 38.4119 19.2059 38.8586L16.526 43.4591C16.258 43.9504 16.0793 44.531 16.0793 45.1563C16.0793 45.7816 16.258 46.3623 16.526 46.8536L20.3672 53.5087L25.2357 61.9057L25.2803 61.995L29.1662 68.6948C29.4789 69.2308 29.9255 69.6774 30.4168 69.9901L35.2853 61.593C34.7493 61.2804 34.3473 60.8337 34.0347 60.3424Z" fill="#EDF2F7"/>
<path d="M44.7543 45.1563L39.8858 36.7593L35.0173 28.3176L30.4168 20.3226C29.8808 20.6352 29.4788 21.0372 29.1662 21.5285L25.6823 27.5583C25.5483 27.7816 25.5037 28.005 25.5037 28.2729C25.5037 28.4963 25.5483 28.7643 25.6823 28.9429L30.1488 36.7146L35.0173 45.1563L38.9032 51.8561C39.2158 52.3921 39.6178 52.794 40.1538 53.1067L43.191 47.8809L43.5483 47.3002L44.7543 45.1563Z" fill="#EDF2F7"/>
<path d="M73.8759 44.799C73.8759 44.2184 73.6973 43.6377 73.4293 43.1464V43.1017L69.9454 37.072C69.7221 36.67 69.2308 36.3573 68.7395 36.3573H59.8065H50.8735C50.4268 36.3573 50.0248 36.134 49.7568 35.8213L49.6228 35.6427L46.4516 30.1935C46.3176 29.9702 46.2283 29.7022 46.2283 29.4342C46.2283 28.5856 46.9876 27.9156 47.8362 27.9156H54.8933H61.995C62.8437 27.9156 63.5137 27.2456 63.5137 26.397C63.5137 26.129 63.4243 25.861 63.2903 25.6377L60.6998 21.1265C60.1191 20.1439 59.0471 19.4739 57.7965 19.4739H50.0248H40.2878H32.5608C31.9355 19.4739 31.3548 19.6526 30.8635 19.9206L34.2581 25.8164L35.464 27.9156L40.3325 36.3573L45.201 44.799H56.0546H64.6749H67.0869H73.8759Z" fill="white"/>
<path d="M73.7866 45.4243H45.1117L40.5112 53.4194C41.0025 53.6873 41.5831 53.866 42.1638 53.866H42.2084H49.9801H57.2605C58.0645 53.866 58.6898 54.4913 58.6898 55.2953C58.6898 55.5186 58.6452 55.7866 58.5112 55.9653L55.2506 61.593C54.9826 61.995 54.536 62.3077 54.0447 62.3077H45.1117H37.3399C36.7146 62.3077 36.134 62.129 35.6427 61.861L30.8188 70.2581C31.3102 70.526 31.8908 70.7047 32.5161 70.7047H40.0198H40.3325H50.0248H57.7965C59.0918 70.7047 60.1638 69.9901 60.7444 68.9628L64.5856 62.263L69.4541 53.8213L73.3399 46.9876C73.6526 46.5856 73.7866 46.005 73.7866 45.4243Z" fill="#DDE6EE"/>
<defs>
<linearGradient id="paint0_linear" x1="-0.151695" y1="-1.36138e-07" x2="89.8036" y2="89.9554" gradientUnits="userSpaceOnUse">
<stop stop-color="#62F4EA"/>
<stop offset="1" stop-color="#4825D4"/>
</linearGradient>
</defs>
</svg>
