<svg width="284" height="229" viewBox="0 0 284 229" fill="none" xmlns="http://www.w3.org/2000/svg">
<rect y="32" width="284" height="197" rx="14.4517" fill="#2617A2"/>
<g filter="url(#filter0_d_621_242)">
<rect x="30" y="99" width="213" height="63" rx="6.07031" fill="white"/>
<path d="M50.5673 127.216V131.04H55.7028V133.466H50.5673V137.509H56.3584V140H47.5079V124.725H56.3584V127.216H50.5673ZM75.0478 127.719C76.5338 127.719 77.7284 128.177 78.6317 129.095C79.5495 129.999 80.0084 131.266 80.0084 132.898V140H76.949V133.313C76.949 132.366 76.7086 131.645 76.2278 131.149C75.7471 130.64 75.0915 130.385 74.2611 130.385C73.4306 130.385 72.7678 130.64 72.2724 131.149C71.7916 131.645 71.5513 132.366 71.5513 133.313V140H68.4918V133.313C68.4918 132.366 68.2514 131.645 67.7707 131.149C67.2899 130.64 66.6343 130.385 65.8039 130.385C64.9589 130.385 64.2887 130.64 63.7934 131.149C63.3126 131.645 63.0722 132.366 63.0722 133.313V140H60.0128V127.893H63.0722V129.358C63.4656 128.848 63.9682 128.447 64.5801 128.156C65.2066 127.864 65.8913 127.719 66.6343 127.719C67.5813 127.719 68.4263 127.923 69.1693 128.33C69.9123 128.724 70.4877 129.292 70.8957 130.035C71.289 129.336 71.8572 128.775 72.6002 128.352C73.3578 127.93 74.1736 127.719 75.0478 127.719ZM82.9991 133.903C82.9991 132.679 83.2394 131.594 83.7202 130.647C84.2156 129.7 84.8784 128.971 85.7089 128.462C86.5538 127.952 87.4935 127.697 88.5279 127.697C89.4312 127.697 90.2179 127.879 90.888 128.243C91.5728 128.607 92.1191 129.066 92.527 129.62V127.893H95.6083V140H92.527V138.23C92.1337 138.798 91.5873 139.272 90.888 139.65C90.2033 140.015 89.4093 140.197 88.5061 140.197C87.4862 140.197 86.5538 139.934 85.7089 139.41C84.8784 138.885 84.2156 138.15 83.7202 137.203C83.2394 136.241 82.9991 135.141 82.9991 133.903ZM92.527 133.947C92.527 133.204 92.3813 132.57 92.09 132.045C91.7986 131.506 91.4052 131.098 90.9099 130.822C90.4146 130.53 89.8828 130.385 89.3146 130.385C88.7464 130.385 88.222 130.523 87.7412 130.8C87.2604 131.077 86.8671 131.485 86.5611 132.024C86.2697 132.548 86.1241 133.175 86.1241 133.903C86.1241 134.631 86.2697 135.272 86.5611 135.826C86.8671 136.365 87.2604 136.78 87.7412 137.072C88.2365 137.363 88.761 137.509 89.3146 137.509C89.8828 137.509 90.4146 137.37 90.9099 137.094C91.4052 136.802 91.7986 136.394 92.09 135.87C92.3813 135.331 92.527 134.69 92.527 133.947ZM101.022 126.451C100.483 126.451 100.031 126.284 99.6672 125.948C99.3175 125.599 99.1427 125.169 99.1427 124.659C99.1427 124.149 99.3175 123.727 99.6672 123.392C100.031 123.042 100.483 122.867 101.022 122.867C101.561 122.867 102.005 123.042 102.355 123.392C102.719 123.727 102.901 124.149 102.901 124.659C102.901 125.169 102.719 125.599 102.355 125.948C102.005 126.284 101.561 126.451 101.022 126.451ZM102.53 127.893V140H99.4705V127.893H102.53ZM109.486 123.829V140H106.427V123.829H109.486Z" fill="#2617A2"/>
</g>
<path d="M219 110C218.023 110 218 111.023 218 112V128C218 128.977 218.023 129 219 129C219.977 129 221 128.977 221 128V112C221 111.023 219.977 110 219 110ZM201 118C200.547 118 200.345 117.654 200 118C199.309 118.691 199.309 120.309 200 121L210 131C210.691 131.691 212.309 131.691 213 131C213.691 130.309 213.691 128.691 213 128L203 118C202.654 117.654 201.453 118 201 118ZM238 118C237.547 118 236.346 117.654 236 118L226 128C225.309 128.691 225.309 130.309 226 131C226.691 131.691 228.309 131.691 229 131L239 121C239.691 120.309 239.691 118.691 239 118C238.655 117.654 238.453 118 238 118ZM217 135L232 176L238 165L252 179L261 170L247 156L258 150L217 135ZM194 136C193.023 136 192 136.023 192 137C192 137.977 193.023 139 194 139H210C210.977 139 211 137.977 211 137C211 136.023 210.977 136 210 136H194ZM211 144C210.547 144 210.346 143.654 210 144L200 154C199.309 154.691 199.309 156.309 200 157C200.691 157.691 202.309 157.691 203 157L213 147C213.691 146.309 213.691 144.691 213 144C212.654 143.654 211.453 144 211 144Z" fill="#3B83E4"/>
<g filter="url(#filter1_d_621_242)">
<path d="M28 6C28 3.23858 30.2386 1 33 1H73C75.7614 1 78 3.23858 78 6V51H28V6Z" fill="#3B83E4"/>
</g>
<path d="M46.7044 19.444V13.72H56.6764V40H50.2684V19.444H46.7044Z" fill="white"/>
<defs>
<filter id="filter0_d_621_242" x="26.9575" y="99" width="219.085" height="69.0849" filterUnits="userSpaceOnUse" color-interpolation-filters="sRGB">
<feFlood flood-opacity="0" result="BackgroundImageFix"/>
<feColorMatrix in="SourceAlpha" type="matrix" values="0 0 0 0 0 0 0 0 0 0 0 0 0 0 0 0 0 0 127 0" result="hardAlpha"/>
<feOffset dy="3.04247"/>
<feGaussianBlur stdDeviation="1.52124"/>
<feComposite in2="hardAlpha" operator="out"/>
<feColorMatrix type="matrix" values="0 0 0 0 0 0 0 0 0 0 0 0 0 0 0 0 0 0 0.25 0"/>
<feBlend mode="normal" in2="BackgroundImageFix" result="effect1_dropShadow_621_242"/>
<feBlend mode="normal" in="SourceGraphic" in2="effect1_dropShadow_621_242" result="shape"/>
</filter>
<filter id="filter1_d_621_242" x="24" y="1" width="58" height="58" filterUnits="userSpaceOnUse" color-interpolation-filters="sRGB">
<feFlood flood-opacity="0" result="BackgroundImageFix"/>
<feColorMatrix in="SourceAlpha" type="matrix" values="0 0 0 0 0 0 0 0 0 0 0 0 0 0 0 0 0 0 127 0" result="hardAlpha"/>
<feOffset dy="4"/>
<feGaussianBlur stdDeviation="2"/>
<feComposite in2="hardAlpha" operator="out"/>
<feColorMatrix type="matrix" values="0 0 0 0 0 0 0 0 0 0 0 0 0 0 0 0 0 0 0.25 0"/>
<feBlend mode="normal" in2="BackgroundImageFix" result="effect1_dropShadow_621_242"/>
<feBlend mode="normal" in="SourceGraphic" in2="effect1_dropShadow_621_242" result="shape"/>
</filter>
</defs>
</svg>
