<svg width="589" height="341" viewBox="0 0 589 341" fill="none" xmlns="http://www.w3.org/2000/svg">
<rect width="589" height="341" rx="18.6617" fill="white"/>
<path d="M0 19C0 8.50659 8.50659 0 19 0H570C580.493 0 589 8.50659 589 19V45H0V19Z" fill="#2617A2"/>
<rect x="81" y="21" width="69" height="5" fill="white"/>
<rect x="213" y="21" width="24" height="5" fill="white"/>
<rect x="259" y="21" width="24" height="5" fill="white"/>
<rect x="305" y="21" width="24" height="5" fill="white"/>
<rect x="351" y="21" width="24" height="5" fill="white"/>
<rect x="469" y="16" width="40" height="14" rx="2" fill="#3B83E4"/>
<rect x="110" y="162" width="318" height="5" fill="#D9D9D9"/>
<rect x="110" y="172" width="303" height="5" fill="#D9D9D9"/>
<rect x="110" y="192" width="264" height="5" fill="#D9D9D9"/>
<rect x="110" y="182" width="309" height="5" fill="#D9D9D9"/>
<rect x="110" y="222" width="298" height="5" fill="#D9D9D9"/>
<rect x="110" y="232" width="284" height="5" fill="#D9D9D9"/>
<rect x="110" y="252" width="247" height="5" fill="#D9D9D9"/>
<rect x="110" y="242" width="289" height="5" fill="#D9D9D9"/>
<rect x="110" y="79" width="144" height="12" fill="#3B83E4"/>
<rect x="110" y="98" width="98" height="12" fill="#3B83E4"/>
<rect x="110" y="117" width="63" height="5" fill="#D9D9D9"/>
<rect x="134" y="162" width="63" height="5" fill="#3B83E4"/>
<rect x="265" y="172" width="63" height="5" fill="#3B83E4"/>
<rect x="184" y="192" width="102" height="5" fill="#3B83E4"/>
<rect x="157" y="232" width="102" height="5" fill="#3B83E4"/>
<rect x="110" y="262" width="268" height="5" fill="#D9D9D9"/>
<rect x="110" y="272" width="255" height="5" fill="#D9D9D9"/>
<rect x="110" y="292" width="222" height="5" fill="#D9D9D9"/>
<rect x="110" y="282" width="260" height="5" fill="#D9D9D9"/>
<rect x="195" y="272" width="102" height="5" fill="#3B83E4"/>
<rect x="301" y="242" width="71" height="5" fill="#3B83E4"/>
</svg>
