<svg width="284" height="229" viewBox="0 0 284 229" fill="none" xmlns="http://www.w3.org/2000/svg">
<rect y="32" width="284" height="197" rx="14.4517" fill="#2617A2"/>
<g filter="url(#filter0_d_621_244)">
<rect x="48" y="77" width="188" height="109" rx="6.07031" fill="white"/>
</g>
<g filter="url(#filter1_d_621_244)">
<path d="M28 6C28 3.23858 30.2386 1 33 1H73C75.7614 1 78 3.23858 78 6V51H28V6Z" fill="#3B83E4"/>
</g>
<path d="M43.4376 21.136C43.5336 18.568 44.3736 16.588 45.9576 15.196C47.5416 13.804 49.6896 13.108 52.4016 13.108C54.2016 13.108 55.7376 13.42 57.0096 14.044C58.3056 14.668 59.2776 15.52 59.9256 16.6C60.5976 17.68 60.9336 18.892 60.9336 20.236C60.9336 21.82 60.5376 23.116 59.7456 24.124C58.9536 25.108 58.0296 25.78 56.9736 26.14V26.284C58.3416 26.74 59.4216 27.496 60.2136 28.552C61.0056 29.608 61.4016 30.964 61.4016 32.62C61.4016 34.108 61.0536 35.428 60.3576 36.58C59.6856 37.708 58.6896 38.596 57.3696 39.244C56.0736 39.892 54.5256 40.216 52.7256 40.216C49.8456 40.216 47.5416 39.508 45.8136 38.092C44.1096 36.676 43.2096 34.54 43.1136 31.684H49.0896C49.1136 32.74 49.4136 33.58 49.9896 34.204C50.5656 34.804 51.4056 35.104 52.5096 35.104C53.4456 35.104 54.1656 34.84 54.6696 34.312C55.1976 33.76 55.4616 33.04 55.4616 32.152C55.4616 31 55.0896 30.172 54.3456 29.668C53.6256 29.14 52.4616 28.876 50.8536 28.876H49.7016V23.872H50.8536C52.0776 23.872 53.0616 23.668 53.8056 23.26C54.5736 22.828 54.9576 22.072 54.9576 20.992C54.9576 20.128 54.7176 19.456 54.2376 18.976C53.7576 18.496 53.0976 18.256 52.2576 18.256C51.3456 18.256 50.6616 18.532 50.2056 19.084C49.7736 19.636 49.5216 20.32 49.4496 21.136H43.4376Z" fill="white"/>
<path d="M70 115C69.2846 115 69 115.285 69 116V171C69 171.715 69.2846 172 70 172H125C125.715 172 126 171.715 126 171C126 170.285 125.715 169 125 169H72V116C72 115.285 70.7154 115 70 115ZM117 127C114.869 127 113 128.869 113 131C113 131.874 113.505 133.348 114 134L106 146C105.547 145.813 105.517 145 105 145C103.92 145 102.708 146.277 102 147L95 142C95.0738 141.703 96 142.318 96 142C96 139.869 94.131 138 92 138C89.869 138 88 139.869 88 142C88 142.885 88.494 143.344 89 144L81 156C80.8216 155.975 81.1847 156 81 156C78.869 156 77 157.869 77 160C77 162.131 78.869 164 81 164C83.131 164 85 162.131 85 160C85 158.984 83.6488 157.696 83 157L91 145C91.2946 145.073 91.6843 145 92 145C92.8807 145 93.3451 145.502 94 145L101 149C100.989 149.117 101 148.88 101 149C101 151.131 102.869 153 105 153C107.131 153 109 151.131 109 149C109 148.334 108.301 147.551 108 147L116 135C116.3 135.075 116.678 135 117 135C119.131 135 121 133.131 121 131C120.973 128.411 118.684 126.977 117 127ZM117 130C117.731 130 118 130.269 118 131C118 131.731 117.731 132 117 132C116.269 132 116 131.731 116 131C116 130.269 116.269 130 117 130ZM92 140C92.7308 140 93 141.269 93 142C93 142.731 92.7308 143 92 143C91.2692 143 90 142.731 90 142C90 141.269 91.2692 140 92 140ZM105 148C105.731 148 106 148.269 106 149C106 149.731 105.731 151 105 151C104.269 151 103 149.731 103 149C103 148.269 104.269 148 105 148ZM81 158C81.7308 158 82 159.269 82 160C82 160.731 81.7308 161 81 161C80.2692 161 79 160.731 79 160C79 159.269 80.2692 158 81 158Z" fill="#2617A2"/>
<rect width="4" height="4" transform="matrix(1 0 0 -1 69 92)" fill="#2617A2"/>
<rect width="4" height="4" transform="matrix(1 0 0 -1 210 92)" fill="#2617A2"/>
<rect width="4" height="4" transform="matrix(1 0 0 -1 205 92)" fill="#2617A2"/>
<rect width="15" height="4" transform="matrix(1 0 0 -1 77 92)" fill="#2617A2"/>
<rect width="58" height="4" rx="2" transform="matrix(1 0 0 -1 113 92)" fill="#2617A2"/>
<path d="M182 143V115C182 115 181.055 115 181 115C165.267 115 153 128.233 153 144C153 159.772 166.267 172 182 172C197.709 172 209.959 159.35 210 143H182Z" fill="#2617A2"/>
<path d="M214 139C214 139 214 139.026 214 139C214 123.535 202.072 111.088 186 111V139H214Z" fill="#2617A2"/>
<defs>
<filter id="filter0_d_621_244" x="44.9575" y="77" width="194.085" height="115.085" filterUnits="userSpaceOnUse" color-interpolation-filters="sRGB">
<feFlood flood-opacity="0" result="BackgroundImageFix"/>
<feColorMatrix in="SourceAlpha" type="matrix" values="0 0 0 0 0 0 0 0 0 0 0 0 0 0 0 0 0 0 127 0" result="hardAlpha"/>
<feOffset dy="3.04247"/>
<feGaussianBlur stdDeviation="1.52124"/>
<feComposite in2="hardAlpha" operator="out"/>
<feColorMatrix type="matrix" values="0 0 0 0 0 0 0 0 0 0 0 0 0 0 0 0 0 0 0.25 0"/>
<feBlend mode="normal" in2="BackgroundImageFix" result="effect1_dropShadow_621_244"/>
<feBlend mode="normal" in="SourceGraphic" in2="effect1_dropShadow_621_244" result="shape"/>
</filter>
<filter id="filter1_d_621_244" x="24" y="1" width="58" height="58" filterUnits="userSpaceOnUse" color-interpolation-filters="sRGB">
<feFlood flood-opacity="0" result="BackgroundImageFix"/>
<feColorMatrix in="SourceAlpha" type="matrix" values="0 0 0 0 0 0 0 0 0 0 0 0 0 0 0 0 0 0 127 0" result="hardAlpha"/>
<feOffset dy="4"/>
<feGaussianBlur stdDeviation="2"/>
<feComposite in2="hardAlpha" operator="out"/>
<feColorMatrix type="matrix" values="0 0 0 0 0 0 0 0 0 0 0 0 0 0 0 0 0 0 0.25 0"/>
<feBlend mode="normal" in2="BackgroundImageFix" result="effect1_dropShadow_621_244"/>
<feBlend mode="normal" in="SourceGraphic" in2="effect1_dropShadow_621_244" result="shape"/>
</filter>
</defs>
</svg>
