<svg width="823" height="574" viewBox="0 0 823 574" fill="none" xmlns="http://www.w3.org/2000/svg">
<g filter="url(#filter0_dddddd_621_239)">
<rect x="117" y="90" width="589" height="341" rx="18.6617" fill="white"/>
<path d="M117 109C117 98.5066 125.507 90 136 90H687C697.493 90 706 98.5066 706 109V135H117V109Z" fill="#2617A2"/>
<rect x="198" y="111" width="69" height="5" fill="white"/>
<rect x="330" y="111" width="24" height="5" fill="white"/>
<rect x="376" y="111" width="24" height="5" fill="white"/>
<rect x="422" y="111" width="24" height="5" fill="white"/>
<rect x="468" y="111" width="24" height="5" fill="white"/>
<rect x="586" y="106" width="40" height="14" rx="2" fill="#3B83E4"/>
</g>
<rect x="227" y="252" width="318" height="5" fill="#D9D9D9"/>
<rect x="227" y="262" width="303" height="5" fill="#D9D9D9"/>
<rect x="227" y="282" width="264" height="5" fill="#D9D9D9"/>
<rect x="227" y="272" width="309" height="5" fill="#D9D9D9"/>
<rect x="227" y="312" width="298" height="5" fill="#D9D9D9"/>
<rect x="227" y="322" width="284" height="5" fill="#D9D9D9"/>
<rect x="227" y="342" width="247" height="5" fill="#D9D9D9"/>
<rect x="227" y="332" width="289" height="5" fill="#D9D9D9"/>
<rect x="227" y="169" width="144" height="12" fill="#3B83E4"/>
<rect x="227" y="188" width="98" height="12" fill="#3B83E4"/>
<rect x="227" y="207" width="63" height="5" fill="#D9D9D9"/>
<rect x="251" y="252" width="63" height="5" fill="#3B83E4"/>
<rect x="382" y="262" width="63" height="5" fill="#3B83E4"/>
<rect x="301" y="282" width="102" height="5" fill="#3B83E4"/>
<rect x="274" y="322" width="102" height="5" fill="#3B83E4"/>
<rect x="227" y="352" width="268" height="5" fill="#D9D9D9"/>
<rect x="227" y="362" width="255" height="5" fill="#D9D9D9"/>
<rect x="227" y="382" width="222" height="5" fill="#D9D9D9"/>
<rect x="227" y="372" width="260" height="5" fill="#D9D9D9"/>
<rect x="312" y="362" width="102" height="5" fill="#3B83E4"/>
<rect x="418" y="332" width="71" height="5" fill="#3B83E4"/>
<defs>
<filter id="filter0_dddddd_621_239" x="0.788551" y="0.0845718" width="821.423" height="573.423" filterUnits="userSpaceOnUse" color-interpolation-filters="sRGB">
<feFlood flood-opacity="0" result="BackgroundImageFix"/>
<feColorMatrix in="SourceAlpha" type="matrix" values="0 0 0 0 0 0 0 0 0 0 0 0 0 0 0 0 0 0 127 0" result="hardAlpha"/>
<feOffset dy="0.727678"/>
<feGaussianBlur stdDeviation="1.60793"/>
<feColorMatrix type="matrix" values="0 0 0 0 0 0 0 0 0 0 0 0 0 0 0 0 0 0 0.0449833 0"/>
<feBlend mode="normal" in2="BackgroundImageFix" result="effect1_dropShadow_621_239"/>
<feColorMatrix in="SourceAlpha" type="matrix" values="0 0 0 0 0 0 0 0 0 0 0 0 0 0 0 0 0 0 127 0" result="hardAlpha"/>
<feOffset dy="1.74871"/>
<feGaussianBlur stdDeviation="3.86409"/>
<feColorMatrix type="matrix" values="0 0 0 0 0 0 0 0 0 0 0 0 0 0 0 0 0 0 0.0646228 0"/>
<feBlend mode="normal" in2="effect1_dropShadow_621_239" result="effect2_dropShadow_621_239"/>
<feColorMatrix in="SourceAlpha" type="matrix" values="0 0 0 0 0 0 0 0 0 0 0 0 0 0 0 0 0 0 127 0" result="hardAlpha"/>
<feOffset dy="3.29267"/>
<feGaussianBlur stdDeviation="7.27574"/>
<feColorMatrix type="matrix" values="0 0 0 0 0 0 0 0 0 0 0 0 0 0 0 0 0 0 0.08 0"/>
<feBlend mode="normal" in2="effect2_dropShadow_621_239" result="effect3_dropShadow_621_239"/>
<feColorMatrix in="SourceAlpha" type="matrix" values="0 0 0 0 0 0 0 0 0 0 0 0 0 0 0 0 0 0 127 0" result="hardAlpha"/>
<feOffset dy="5.87356"/>
<feGaussianBlur stdDeviation="12.9787"/>
<feColorMatrix type="matrix" values="0 0 0 0 0 0 0 0 0 0 0 0 0 0 0 0 0 0 0.0953772 0"/>
<feBlend mode="normal" in2="effect3_dropShadow_621_239" result="effect4_dropShadow_621_239"/>
<feColorMatrix in="SourceAlpha" type="matrix" values="0 0 0 0 0 0 0 0 0 0 0 0 0 0 0 0 0 0 127 0" result="hardAlpha"/>
<feOffset dy="10.9858"/>
<feGaussianBlur stdDeviation="24.2752"/>
<feColorMatrix type="matrix" values="0 0 0 0 0 0 0 0 0 0 0 0 0 0 0 0 0 0 0.115017 0"/>
<feBlend mode="normal" in2="effect4_dropShadow_621_239" result="effect5_dropShadow_621_239"/>
<feColorMatrix in="SourceAlpha" type="matrix" values="0 0 0 0 0 0 0 0 0 0 0 0 0 0 0 0 0 0 127 0" result="hardAlpha"/>
<feOffset dy="26.296"/>
<feGaussianBlur stdDeviation="58.1057"/>
<feColorMatrix type="matrix" values="0 0 0 0 0 0 0 0 0 0 0 0 0 0 0 0 0 0 0.16 0"/>
<feBlend mode="normal" in2="effect5_dropShadow_621_239" result="effect6_dropShadow_621_239"/>
<feBlend mode="normal" in="SourceGraphic" in2="effect6_dropShadow_621_239" result="shape"/>
</filter>
</defs>
</svg>
