<svg width="589" height="341" viewBox="0 0 589 341" fill="none" xmlns="http://www.w3.org/2000/svg">
<path d="M0 19C0 8.50659 8.50659 0 19 0H570C580.493 0 589 8.50659 589 19V322C589 332.493 580.493 341 570 341H19C8.50661 341 0 332.493 0 322V19Z" fill="white"/>
<rect x="110" y="122" width="54" height="3" fill="#D9D9D9"/>
<rect x="110" y="130" width="45" height="3" fill="#D9D9D9"/>
<rect x="110" y="106" width="68" height="3" fill="#D9D9D9"/>
<rect x="110" y="98" width="67" height="3" fill="#D9D9D9"/>
<rect x="80" y="89" width="47" height="5" fill="#D9D9D9"/>
<rect x="110" y="114" width="44" height="3" fill="#3B83E4"/>
<rect x="240" y="109" width="54" height="3" transform="rotate(-180 240 109)" fill="#D9D9D9"/>
<rect x="229" y="101" width="45" height="3" transform="rotate(-180 229 101)" fill="#D9D9D9"/>
<rect x="240" y="125" width="68" height="3" transform="rotate(-180 240 125)" fill="#D9D9D9"/>
<rect x="230" y="133" width="66" height="3" transform="rotate(-180 230 133)" fill="#3B83E4"/>
<rect x="206" y="117" width="45" height="3" transform="rotate(-180 206 117)" fill="#D9D9D9"/>
<rect x="110" y="185" width="76" height="3" fill="#D9D9D9"/>
<rect x="110" y="193" width="63" height="3" fill="#D9D9D9"/>
<rect x="110" y="169" width="96" height="3" fill="#3B83E4"/>
<rect x="110" y="161" width="95" height="3" fill="#D9D9D9"/>
<rect x="80" y="152" width="55" height="5" fill="#D9D9D9"/>
<rect x="110" y="177" width="63" height="3" fill="#D9D9D9"/>
<rect x="292" y="172" width="76" height="3" transform="rotate(-180 292 172)" fill="#D9D9D9"/>
<rect x="276" y="164" width="63" height="3" transform="rotate(-180 276 164)" fill="#D9D9D9"/>
<rect x="292" y="188" width="96" height="3" transform="rotate(-180 292 188)" fill="#3B83E4"/>
<rect x="279" y="196" width="93" height="3" transform="rotate(-180 279 196)" fill="#D9D9D9"/>
<rect x="134" y="201" width="56" height="3" fill="#D9D9D9"/>
<rect x="134" y="208" width="45" height="4" fill="#D9D9D9"/>
<rect x="267" y="204" width="69" height="3" transform="rotate(-180 267 204)" fill="#D9D9D9"/>
<rect x="258" y="212" width="68" height="3" transform="rotate(-180 258 212)" fill="#D9D9D9"/>
<rect x="244" y="180" width="62" height="3" transform="rotate(-180 244 180)" fill="#D9D9D9"/>
<rect x="110" y="264" width="39" height="3" fill="#D9D9D9"/>
<rect x="110" y="272" width="32" height="3" fill="#3B83E4"/>
<rect x="110" y="248" width="50" height="3" fill="#D9D9D9"/>
<rect x="110" y="240" width="49" height="3" fill="#3B83E4"/>
<rect x="80" y="231" width="44" height="5" fill="#D9D9D9"/>
<rect x="110" y="256" width="33" height="3" fill="#D9D9D9"/>
<rect x="205" y="251" width="39" height="3" transform="rotate(-180 205 251)" fill="#D9D9D9"/>
<rect x="197" y="243" width="33" height="3" transform="rotate(-180 197 243)" fill="#D9D9D9"/>
<rect x="205" y="267" width="50" height="3" transform="rotate(-180 205 267)" fill="#D9D9D9"/>
<rect x="198" y="275" width="48" height="3" transform="rotate(-180 198 275)" fill="#D9D9D9"/>
<rect x="122" y="280" width="30" height="3" fill="#D9D9D9"/>
<rect x="122" y="287" width="24" height="4" fill="#D9D9D9"/>
<rect x="191" y="283" width="35" height="3" transform="rotate(-180 191 283)" fill="#D9D9D9"/>
<rect x="188" y="291" width="36" height="3" transform="rotate(-180 188 291)" fill="#D9D9D9"/>
<rect x="180" y="259" width="33" height="3" transform="rotate(-180 180 259)" fill="#3B83E4"/>
<path d="M0 19C0 8.50659 8.50659 0 19 0H570C580.493 0 589 8.50659 589 19V45H0V19Z" fill="#2617A2"/>
<rect x="29" y="19" width="10" height="10" fill="#3B83E4"/>
<rect x="550" y="19" width="10" height="10" fill="#3B83E4"/>
<rect x="533" y="19" width="10" height="10" fill="#3B83E4"/>
<rect x="46" y="19" width="60" height="10" fill="#3B83E4"/>
<path fill-rule="evenodd" clip-rule="evenodd" d="M484 161L473 159C472.305 156.569 471.042 155.084 470 153L477 143C477.695 141.958 477.695 140.695 477 140L469 132C468.305 131.305 466.695 131.305 466 132L457 139C454.569 137.958 452.431 136.695 450 136L448 125C448 123.958 447.042 123 446 123H435C433.958 123 433 123.958 433 125L431 136C428.569 136.695 426.431 137.958 424 139L415 132C414.305 131.305 412.695 131.305 412 132L404 140C403.653 140.695 403.305 141.958 404 143L411 152C409.958 154.431 408.695 156.569 408 159L397 161C395.958 161 395 161.958 395 163V174C395 175.042 395.958 176 397 176L408 178C408.695 180.431 409.958 182.569 411 185L404 194C403.305 194.695 403.305 196.305 404 197L412 205C412.695 205.695 413.958 205.695 415 205L424 198C426.431 199.042 428.569 200.305 431 201L433 212C433 213.042 433.958 214 435 214H446C447.042 214 448 213.042 448 212L450 201C452.431 200.305 454.569 199.042 457 198L467 205C467.695 205.695 468.305 205.695 469 205L477 197C477.695 196.305 477.347 194.695 477 194L470 184C471.042 181.916 472.305 180.431 473 178L484 176C485.042 176 486 175.042 486 174V163C486 161.958 485.042 161 484 161ZM440 148C451.462 148 461 157.537 461 169C461 180.462 451.462 189 440 189C428.538 189 420 180.463 420 169C420 157.537 428.538 148 440 148Z" fill="#2617A2"/>
<g clip-path="url(#clip0_621_238)">
<path fill-rule="evenodd" clip-rule="evenodd" d="M509 228L503 226C502.626 224.691 501.561 224.122 501 223L505 218C505.374 217.439 505.374 216.374 505 216L501 212C500.626 211.626 499.374 211.626 499 212L494 216C492.691 215.439 492.309 214.374 491 214L489 208C489 207.439 488.561 207 488 207H483C482.439 207 482 207.439 482 208L480 214C478.691 214.374 478.309 215.439 477 216L472 212C471.626 211.626 470.374 211.626 470 212L466 216C465.813 216.374 465.626 217.439 466 218L470 223C469.439 224.309 468.374 224.691 468 226L462 228C461.439 228 461 228.439 461 229V234C461 234.561 461.439 235 462 235L468 237C468.374 238.309 469.439 238.691 470 240L466 245C465.626 245.374 465.626 246.626 466 247L470 251C470.374 251.374 471.439 251.374 472 251L477 247C478.309 247.561 478.691 248.626 480 249L482 255C482 255.561 482.439 256 483 256H488C488.561 256 489 255.561 489 255L491 249C492.309 248.626 492.691 247.561 494 247L500 251C500.374 251.374 500.626 251.374 501 251L505 247C505.374 246.626 505.187 245.374 505 245L501 240C501.561 238.878 502.626 238.309 503 237L509 235C509.561 235 510 234.561 510 234V229C510 228.439 509.561 228 509 228ZM485 220C491.172 220 497 225.828 497 232C497 238.172 491.172 243 485 243C478.828 243 474 238.172 474 232C474 225.828 478.828 220 485 220Z" fill="#2617A2"/>
</g>
<path fill-rule="evenodd" clip-rule="evenodd" d="M82 72L80 74L85 78L80 82L82 84L86 80L88 78L86 76L82 72ZM76 72L70 78L72 80L76 84L78 82L73 78L78 74L76 72Z" fill="#3B83E4"/>
<defs>
<clipPath id="clip0_621_238">
<rect width="49" height="49" fill="white" transform="translate(460 207)"/>
</clipPath>
</defs>
</svg>
