<svg width="823" height="574" viewBox="0 0 823 574" fill="none" xmlns="http://www.w3.org/2000/svg">
<g filter="url(#filter0_dddddd_621_238)">
<path d="M117 109C117 98.5066 125.507 90 136 90H687C697.493 90 706 98.5066 706 109V412C706 422.493 697.493 431 687 431H136C125.507 431 117 422.493 117 412V109Z" fill="white"/>
<rect x="227" y="212" width="54" height="3" fill="#D9D9D9"/>
<rect x="227" y="220" width="45" height="3" fill="#D9D9D9"/>
<rect x="227" y="196" width="68" height="3" fill="#D9D9D9"/>
<rect x="227" y="188" width="67" height="3" fill="#D9D9D9"/>
<rect x="197" y="179" width="47" height="5" fill="#D9D9D9"/>
<rect x="227" y="204" width="44" height="3" fill="#3B83E4"/>
<rect x="357" y="199" width="54" height="3" transform="rotate(-180 357 199)" fill="#D9D9D9"/>
<rect x="346" y="191" width="45" height="3" transform="rotate(-180 346 191)" fill="#D9D9D9"/>
<rect x="357" y="215" width="68" height="3" transform="rotate(-180 357 215)" fill="#D9D9D9"/>
<rect x="347" y="223" width="66" height="3" transform="rotate(-180 347 223)" fill="#3B83E4"/>
<rect x="323" y="207" width="45" height="3" transform="rotate(-180 323 207)" fill="#D9D9D9"/>
<rect x="227" y="275" width="76" height="3" fill="#D9D9D9"/>
<rect x="227" y="283" width="63" height="3" fill="#D9D9D9"/>
<rect x="227" y="259" width="96" height="3" fill="#3B83E4"/>
<rect x="227" y="251" width="95" height="3" fill="#D9D9D9"/>
<rect x="197" y="242" width="55" height="5" fill="#D9D9D9"/>
<rect x="227" y="267" width="63" height="3" fill="#D9D9D9"/>
<rect x="409" y="262" width="76" height="3" transform="rotate(-180 409 262)" fill="#D9D9D9"/>
<rect x="393" y="254" width="63" height="3" transform="rotate(-180 393 254)" fill="#D9D9D9"/>
<rect x="409" y="278" width="96" height="3" transform="rotate(-180 409 278)" fill="#3B83E4"/>
<rect x="396" y="286" width="93" height="3" transform="rotate(-180 396 286)" fill="#D9D9D9"/>
<rect x="251" y="291" width="56" height="3" fill="#D9D9D9"/>
<rect x="251" y="298" width="45" height="4" fill="#D9D9D9"/>
<rect x="384" y="294" width="69" height="3" transform="rotate(-180 384 294)" fill="#D9D9D9"/>
<rect x="375" y="302" width="68" height="3" transform="rotate(-180 375 302)" fill="#D9D9D9"/>
<rect x="361" y="270" width="62" height="3" transform="rotate(-180 361 270)" fill="#D9D9D9"/>
<rect x="227" y="354" width="39" height="3" fill="#D9D9D9"/>
<rect x="227" y="362" width="32" height="3" fill="#3B83E4"/>
<rect x="227" y="338" width="50" height="3" fill="#D9D9D9"/>
<rect x="227" y="330" width="49" height="3" fill="#3B83E4"/>
<rect x="197" y="321" width="44" height="5" fill="#D9D9D9"/>
<rect x="227" y="346" width="33" height="3" fill="#D9D9D9"/>
<rect x="322" y="341" width="39" height="3" transform="rotate(-180 322 341)" fill="#D9D9D9"/>
<rect x="314" y="333" width="33" height="3" transform="rotate(-180 314 333)" fill="#D9D9D9"/>
<rect x="322" y="357" width="50" height="3" transform="rotate(-180 322 357)" fill="#D9D9D9"/>
<rect x="315" y="365" width="48" height="3" transform="rotate(-180 315 365)" fill="#D9D9D9"/>
<rect x="239" y="370" width="30" height="3" fill="#D9D9D9"/>
<rect x="239" y="377" width="24" height="4" fill="#D9D9D9"/>
<rect x="308" y="373" width="35" height="3" transform="rotate(-180 308 373)" fill="#D9D9D9"/>
<rect x="305" y="381" width="36" height="3" transform="rotate(-180 305 381)" fill="#D9D9D9"/>
<rect x="297" y="349" width="33" height="3" transform="rotate(-180 297 349)" fill="#3B83E4"/>
<path d="M117 109C117 98.5066 125.507 90 136 90H687C697.493 90 706 98.5066 706 109V135H117V109Z" fill="#2617A2"/>
<rect x="146" y="109" width="10" height="10" fill="#3B83E4"/>
<rect x="667" y="109" width="10" height="10" fill="#3B83E4"/>
<rect x="650" y="109" width="10" height="10" fill="#3B83E4"/>
<rect x="163" y="109" width="60" height="10" fill="#3B83E4"/>
</g>
<path fill-rule="evenodd" clip-rule="evenodd" d="M601 251L590 249C589.305 246.569 588.042 245.084 587 243L594 233C594.695 231.958 594.695 230.695 594 230L586 222C585.305 221.305 583.695 221.305 583 222L574 229C571.569 227.958 569.431 226.695 567 226L565 215C565 213.958 564.042 213 563 213H552C550.958 213 550 213.958 550 215L548 226C545.569 226.695 543.431 227.958 541 229L532 222C531.305 221.305 529.695 221.305 529 222L521 230C520.653 230.695 520.305 231.958 521 233L528 242C526.958 244.431 525.695 246.569 525 249L514 251C512.958 251 512 251.958 512 253V264C512 265.042 512.958 266 514 266L525 268C525.695 270.431 526.958 272.569 528 275L521 284C520.305 284.695 520.305 286.305 521 287L529 295C529.695 295.695 530.958 295.695 532 295L541 288C543.431 289.042 545.569 290.305 548 291L550 302C550 303.042 550.958 304 552 304H563C564.042 304 565 303.042 565 302L567 291C569.431 290.305 571.569 289.042 574 288L584 295C584.695 295.695 585.305 295.695 586 295L594 287C594.695 286.305 594.347 284.695 594 284L587 274C588.042 271.916 589.305 270.431 590 268L601 266C602.042 266 603 265.042 603 264V253C603 251.958 602.042 251 601 251ZM557 238C568.462 238 578 247.537 578 259C578 270.462 568.462 279 557 279C545.538 279 537 270.463 537 259C537 247.537 545.538 238 557 238Z" fill="#2617A2"/>
<g clip-path="url(#clip0_621_238)">
<path fill-rule="evenodd" clip-rule="evenodd" d="M626 318L620 316C619.626 314.691 618.561 314.122 618 313L622 308C622.374 307.439 622.374 306.374 622 306L618 302C617.626 301.626 616.374 301.626 616 302L611 306C609.691 305.439 609.309 304.374 608 304L606 298C606 297.439 605.561 297 605 297H600C599.439 297 599 297.439 599 298L597 304C595.691 304.374 595.309 305.439 594 306L589 302C588.626 301.626 587.374 301.626 587 302L583 306C582.813 306.374 582.626 307.439 583 308L587 313C586.439 314.309 585.374 314.691 585 316L579 318C578.439 318 578 318.439 578 319V324C578 324.561 578.439 325 579 325L585 327C585.374 328.309 586.439 328.691 587 330L583 335C582.626 335.374 582.626 336.626 583 337L587 341C587.374 341.374 588.439 341.374 589 341L594 337C595.309 337.561 595.691 338.626 597 339L599 345C599 345.561 599.439 346 600 346H605C605.561 346 606 345.561 606 345L608 339C609.309 338.626 609.691 337.561 611 337L617 341C617.374 341.374 617.626 341.374 618 341L622 337C622.374 336.626 622.187 335.374 622 335L618 330C618.561 328.878 619.626 328.309 620 327L626 325C626.561 325 627 324.561 627 324V319C627 318.439 626.561 318 626 318ZM602 310C608.172 310 614 315.828 614 322C614 328.172 608.172 333 602 333C595.828 333 591 328.172 591 322C591 315.828 595.828 310 602 310Z" fill="#2617A2"/>
</g>
<path fill-rule="evenodd" clip-rule="evenodd" d="M199 162L197 164L202 168L197 172L199 174L203 170L205 168L203 166L199 162ZM193 162L187 168L189 170L193 174L195 172L190 168L195 164L193 162Z" fill="#3B83E4"/>
<defs>
<filter id="filter0_dddddd_621_238" x="0.788551" y="0.0845718" width="821.423" height="573.423" filterUnits="userSpaceOnUse" color-interpolation-filters="sRGB">
<feFlood flood-opacity="0" result="BackgroundImageFix"/>
<feColorMatrix in="SourceAlpha" type="matrix" values="0 0 0 0 0 0 0 0 0 0 0 0 0 0 0 0 0 0 127 0" result="hardAlpha"/>
<feOffset dy="0.727678"/>
<feGaussianBlur stdDeviation="1.60793"/>
<feColorMatrix type="matrix" values="0 0 0 0 0 0 0 0 0 0 0 0 0 0 0 0 0 0 0.0449833 0"/>
<feBlend mode="normal" in2="BackgroundImageFix" result="effect1_dropShadow_621_238"/>
<feColorMatrix in="SourceAlpha" type="matrix" values="0 0 0 0 0 0 0 0 0 0 0 0 0 0 0 0 0 0 127 0" result="hardAlpha"/>
<feOffset dy="1.74871"/>
<feGaussianBlur stdDeviation="3.86409"/>
<feColorMatrix type="matrix" values="0 0 0 0 0 0 0 0 0 0 0 0 0 0 0 0 0 0 0.0646228 0"/>
<feBlend mode="normal" in2="effect1_dropShadow_621_238" result="effect2_dropShadow_621_238"/>
<feColorMatrix in="SourceAlpha" type="matrix" values="0 0 0 0 0 0 0 0 0 0 0 0 0 0 0 0 0 0 127 0" result="hardAlpha"/>
<feOffset dy="3.29267"/>
<feGaussianBlur stdDeviation="7.27574"/>
<feColorMatrix type="matrix" values="0 0 0 0 0 0 0 0 0 0 0 0 0 0 0 0 0 0 0.08 0"/>
<feBlend mode="normal" in2="effect2_dropShadow_621_238" result="effect3_dropShadow_621_238"/>
<feColorMatrix in="SourceAlpha" type="matrix" values="0 0 0 0 0 0 0 0 0 0 0 0 0 0 0 0 0 0 127 0" result="hardAlpha"/>
<feOffset dy="5.87356"/>
<feGaussianBlur stdDeviation="12.9787"/>
<feColorMatrix type="matrix" values="0 0 0 0 0 0 0 0 0 0 0 0 0 0 0 0 0 0 0.0953772 0"/>
<feBlend mode="normal" in2="effect3_dropShadow_621_238" result="effect4_dropShadow_621_238"/>
<feColorMatrix in="SourceAlpha" type="matrix" values="0 0 0 0 0 0 0 0 0 0 0 0 0 0 0 0 0 0 127 0" result="hardAlpha"/>
<feOffset dy="10.9858"/>
<feGaussianBlur stdDeviation="24.2752"/>
<feColorMatrix type="matrix" values="0 0 0 0 0 0 0 0 0 0 0 0 0 0 0 0 0 0 0.115017 0"/>
<feBlend mode="normal" in2="effect4_dropShadow_621_238" result="effect5_dropShadow_621_238"/>
<feColorMatrix in="SourceAlpha" type="matrix" values="0 0 0 0 0 0 0 0 0 0 0 0 0 0 0 0 0 0 127 0" result="hardAlpha"/>
<feOffset dy="26.296"/>
<feGaussianBlur stdDeviation="58.1057"/>
<feColorMatrix type="matrix" values="0 0 0 0 0 0 0 0 0 0 0 0 0 0 0 0 0 0 0.16 0"/>
<feBlend mode="normal" in2="effect5_dropShadow_621_238" result="effect6_dropShadow_621_238"/>
<feBlend mode="normal" in="SourceGraphic" in2="effect6_dropShadow_621_238" result="shape"/>
</filter>
<clipPath id="clip0_621_238">
<rect width="49" height="49" fill="white" transform="translate(577 297)"/>
</clipPath>
</defs>
</svg>
