<svg width="100" height="100" viewBox="0 0 100 100" fill="none" xmlns="http://www.w3.org/2000/svg">
<circle cx="50" cy="50" r="50" fill="url(#paint0_linear)"/>
<path fill-rule="evenodd" clip-rule="evenodd" d="M50.3219 65.2C38.4692 65.2 28.0222 59.1734 21.8805 50C28.0222 40.8266 38.4692 34.8 50.3219 34.8C62.1747 34.8 72.6217 40.8266 78.7633 50C72.6217 59.1734 62.1747 65.2 50.3219 65.2ZM18.5609 48.1299C17.813 49.2657 17.813 50.7343 18.5609 51.8701C25.3552 62.1891 37.0432 69 50.3219 69C63.6007 69 75.2887 62.1891 82.083 51.8701C82.8308 50.7343 82.8308 49.2657 82.083 48.1299C75.2887 37.811 63.6007 31 50.3219 31C37.0432 31 25.3552 37.811 18.5609 48.1299ZM50.3217 57.6C46.1243 57.6 42.7217 54.1974 42.7217 50C42.7217 45.8026 46.1243 42.4 50.3217 42.4C54.519 42.4 57.9217 45.8026 57.9217 50C57.9217 54.1974 54.519 57.6 50.3217 57.6ZM50.3217 61.4C44.0256 61.4 38.9217 56.296 38.9217 50C38.9217 43.704 44.0256 38.6 50.3217 38.6C56.6177 38.6 61.7217 43.704 61.7217 50C61.7217 56.296 56.6177 61.4 50.3217 61.4Z" fill="white"/>
<defs>
<linearGradient id="paint0_linear" x1="99.8974" y1="100" x2="-0.102627" y2="0" gradientUnits="userSpaceOnUse">
<stop stop-color="#4825D4"/>
<stop offset="1" stop-color="#81DEFD"/>
</linearGradient>
</defs>
</svg>
